%TF.GenerationSoftware,KiCad,Pcbnew,9.0.7-9.0.7~ubuntu24.04.1*%
%TF.CreationDate,2026-01-18T07:10:00-06:00*%
%TF.ProjectId,MCU,4d43552e-6b69-4636-9164-5f7063625858,rev?*%
%TF.SameCoordinates,PX6ea0500PY7cee6c0*%
%TF.FileFunction,Legend,Bot*%
%TF.FilePolarity,Positive*%
%FSLAX46Y46*%
G04 Gerber Fmt 4.6, Leading zero omitted, Abs format (unit mm)*
G04 Created by KiCad (PCBNEW 9.0.7-9.0.7~ubuntu24.04.1) date 2026-01-18 07:10:00*
%MOMM*%
%LPD*%
G01*
G04 APERTURE LIST*
%ADD10C,0.120000*%
G04 APERTURE END LIST*
D10*
%TO.C,C29*%
X9658767Y46772500D02*
X9366233Y46772500D01*
X9658767Y45752500D02*
X9366233Y45752500D01*
%TO.C,Jetson1*%
X5180000Y36625000D02*
X5180000Y31325000D01*
X5180000Y36625000D02*
X5750000Y36625000D01*
X5180000Y31325000D02*
X5750000Y31325000D01*
X5750000Y38015000D02*
X5750000Y36625000D01*
X7370000Y36625000D02*
X8290000Y36625000D01*
X7370000Y31325000D02*
X8290000Y31325000D01*
X9910000Y36625000D02*
X10830000Y36625000D01*
X9910000Y31325000D02*
X10830000Y31325000D01*
X12450000Y36625000D02*
X13370000Y36625000D01*
X12450000Y31325000D02*
X13370000Y31325000D01*
X14990000Y36625000D02*
X15910000Y36625000D01*
X14990000Y31325000D02*
X15910000Y31325000D01*
X17530000Y36625000D02*
X18450000Y36625000D01*
X17530000Y31325000D02*
X18450000Y31325000D01*
X20070000Y36625000D02*
X20990000Y36625000D01*
X20070000Y31325000D02*
X20990000Y31325000D01*
X22610000Y36625000D02*
X23530000Y36625000D01*
X22610000Y31325000D02*
X23530000Y31325000D01*
X25150000Y36625000D02*
X26070000Y36625000D01*
X25150000Y31325000D02*
X26070000Y31325000D01*
X27690000Y36625000D02*
X28610000Y36625000D01*
X27690000Y31325000D02*
X28610000Y31325000D01*
X30230000Y36625000D02*
X31150000Y36625000D01*
X30230000Y31325000D02*
X31150000Y31325000D01*
X32770000Y36625000D02*
X33690000Y36625000D01*
X32770000Y31325000D02*
X33690000Y31325000D01*
X35310000Y36625000D02*
X36230000Y36625000D01*
X35310000Y31325000D02*
X36230000Y31325000D01*
X37850000Y36625000D02*
X38770000Y36625000D01*
X37850000Y31325000D02*
X38770000Y31325000D01*
X40390000Y36625000D02*
X41310000Y36625000D01*
X40390000Y31325000D02*
X41310000Y31325000D01*
X42930000Y36625000D02*
X43850000Y36625000D01*
X42930000Y31325000D02*
X43850000Y31325000D01*
X45470000Y36625000D02*
X46390000Y36625000D01*
X45470000Y31325000D02*
X46390000Y31325000D01*
X48010000Y36625000D02*
X48930000Y36625000D01*
X48010000Y31325000D02*
X48930000Y31325000D01*
X50550000Y36625000D02*
X51470000Y36625000D01*
X50550000Y31325000D02*
X51470000Y31325000D01*
X53090000Y36625000D02*
X54010000Y36625000D01*
X53090000Y31325000D02*
X54010000Y31325000D01*
X55630000Y36625000D02*
X56200000Y36625000D01*
X55630000Y31325000D02*
X56200000Y31325000D01*
X56200000Y36625000D02*
X56200000Y31325000D01*
%TO.C,U6*%
X7890000Y45122500D02*
X7890000Y43897500D01*
X7890000Y43127500D02*
X7890000Y41902500D01*
X7890000Y41902500D02*
X8365000Y41902500D01*
X8365000Y45122500D02*
X7890000Y45122500D01*
X12135000Y41902500D02*
X12610000Y41902500D01*
X12610000Y45122500D02*
X12135000Y45122500D01*
X12610000Y43897500D02*
X12610000Y45122500D01*
X12610000Y41902500D02*
X12610000Y43127500D01*
X11750000Y45372500D02*
X11510000Y45702500D01*
X11990000Y45702500D01*
X11750000Y45372500D01*
G36*
X11750000Y45372500D02*
G01*
X11510000Y45702500D01*
X11990000Y45702500D01*
X11750000Y45372500D01*
G37*
%TO.C,C28*%
X9896267Y41272500D02*
X9603733Y41272500D01*
X9896267Y40252500D02*
X9603733Y40252500D01*
%TD*%
M02*
