%TF.GenerationSoftware,KiCad,Pcbnew,9.0.7-9.0.7~ubuntu24.04.1*%
%TF.CreationDate,2026-01-18T07:10:00-06:00*%
%TF.ProjectId,MCU,4d43552e-6b69-4636-9164-5f7063625858,rev?*%
%TF.SameCoordinates,PX6ea0500PY7cee6c0*%
%TF.FileFunction,Paste,Top*%
%TF.FilePolarity,Positive*%
%FSLAX46Y46*%
G04 Gerber Fmt 4.6, Leading zero omitted, Abs format (unit mm)*
G04 Created by KiCad (PCBNEW 9.0.7-9.0.7~ubuntu24.04.1) date 2026-01-18 07:10:00*
%MOMM*%
%LPD*%
G01*
G04 APERTURE LIST*
G04 Aperture macros list*
%AMRoundRect*
0 Rectangle with rounded corners*
0 $1 Rounding radius*
0 $2 $3 $4 $5 $6 $7 $8 $9 X,Y pos of 4 corners*
0 Add a 4 corners polygon primitive as box body*
4,1,4,$2,$3,$4,$5,$6,$7,$8,$9,$2,$3,0*
0 Add four circle primitives for the rounded corners*
1,1,$1+$1,$2,$3*
1,1,$1+$1,$4,$5*
1,1,$1+$1,$6,$7*
1,1,$1+$1,$8,$9*
0 Add four rect primitives between the rounded corners*
20,1,$1+$1,$2,$3,$4,$5,0*
20,1,$1+$1,$4,$5,$6,$7,0*
20,1,$1+$1,$6,$7,$8,$9,0*
20,1,$1+$1,$8,$9,$2,$3,0*%
%AMFreePoly0*
4,1,25,-1.500000,1.420000,-1.360000,1.280000,-1.205000,1.155000,-1.035000,1.045000,-0.860000,0.950000,-0.675000,0.875000,-0.480000,0.820000,-0.280000,0.780000,-0.085000,0.765000,0.085000,0.765000,0.280000,0.780000,0.480000,0.820000,0.675000,0.875000,0.860000,0.950000,1.035000,1.045000,1.205000,1.155000,1.360000,1.280000,1.500000,1.420000,1.645000,1.595000,3.555000,1.595000,
3.555000,-0.755000,-3.555000,-0.755000,-3.555000,1.595000,-1.645000,1.595000,-1.500000,1.420000,-1.500000,1.420000,$1*%
G04 Aperture macros list end*
%ADD10RoundRect,0.237500X0.250000X0.237500X-0.250000X0.237500X-0.250000X-0.237500X0.250000X-0.237500X0*%
%ADD11RoundRect,0.237500X-0.300000X-0.237500X0.300000X-0.237500X0.300000X0.237500X-0.300000X0.237500X0*%
%ADD12RoundRect,0.237500X0.237500X-0.250000X0.237500X0.250000X-0.237500X0.250000X-0.237500X-0.250000X0*%
%ADD13R,0.350000X0.500000*%
%ADD14RoundRect,0.237500X0.300000X0.237500X-0.300000X0.237500X-0.300000X-0.237500X0.300000X-0.237500X0*%
%ADD15R,1.500000X1.500000*%
%ADD16RoundRect,0.250000X0.450000X-0.325000X0.450000X0.325000X-0.450000X0.325000X-0.450000X-0.325000X0*%
%ADD17RoundRect,0.150000X-0.150000X-0.350000X0.150000X-0.350000X0.150000X0.350000X-0.150000X0.350000X0*%
%ADD18RoundRect,0.075000X-0.075000X-0.500000X0.075000X-0.500000X0.075000X0.500000X-0.075000X0.500000X0*%
%ADD19O,1.000000X2.100000*%
%ADD20O,1.000000X1.800000*%
%ADD21RoundRect,0.237500X-0.237500X0.300000X-0.237500X-0.300000X0.237500X-0.300000X0.237500X0.300000X0*%
%ADD22RoundRect,0.200000X-0.700000X-0.200000X0.700000X-0.200000X0.700000X0.200000X-0.700000X0.200000X0*%
%ADD23RoundRect,0.237500X-0.237500X0.287500X-0.237500X-0.287500X0.237500X-0.287500X0.237500X0.287500X0*%
%ADD24RoundRect,0.150000X-0.587500X-0.150000X0.587500X-0.150000X0.587500X0.150000X-0.587500X0.150000X0*%
%ADD25RoundRect,0.237500X-0.250000X-0.237500X0.250000X-0.237500X0.250000X0.237500X-0.250000X0.237500X0*%
%ADD26RoundRect,0.237500X0.237500X-0.300000X0.237500X0.300000X-0.237500X0.300000X-0.237500X-0.300000X0*%
%ADD27R,1.200000X1.200000*%
%ADD28C,1.730000*%
%ADD29FreePoly0,270.000000*%
%ADD30FreePoly0,90.000000*%
%ADD31RoundRect,0.062500X0.117500X0.062500X-0.117500X0.062500X-0.117500X-0.062500X0.117500X-0.062500X0*%
%ADD32RoundRect,0.150000X0.150000X-0.512500X0.150000X0.512500X-0.150000X0.512500X-0.150000X-0.512500X0*%
%ADD33R,0.450000X0.950000*%
%ADD34R,4.350000X3.450000*%
%ADD35R,0.254000X0.675000*%
%ADD36R,0.675000X0.254000*%
%ADD37R,1.000000X1.800000*%
%ADD38R,0.200000X0.850000*%
%ADD39R,0.850000X0.200000*%
%ADD40R,4.050000X4.050000*%
%ADD41RoundRect,0.250000X0.250000X-0.325000X0.250000X0.325000X-0.250000X0.325000X-0.250000X-0.325000X0*%
%ADD42RoundRect,0.243750X-0.243750X-0.456250X0.243750X-0.456250X0.243750X0.456250X-0.243750X0.456250X0*%
%ADD43RoundRect,0.237500X0.287500X0.237500X-0.287500X0.237500X-0.287500X-0.237500X0.287500X-0.237500X0*%
%ADD44R,0.950000X1.750000*%
%ADD45R,3.200000X1.750000*%
G04 APERTURE END LIST*
D10*
%TO.C,R10*%
X25662500Y13250000D03*
X23837500Y13250000D03*
%TD*%
D11*
%TO.C,C20*%
X34750000Y39250000D03*
X36475000Y39250000D03*
%TD*%
D12*
%TO.C,R13*%
X27250000Y13750000D03*
X27250000Y15575000D03*
%TD*%
D13*
%TO.C,U7*%
X30475000Y24725000D03*
X29825000Y24725000D03*
X29175000Y24725000D03*
X28525000Y24725000D03*
X28525000Y26775000D03*
X29175000Y26775000D03*
X29825000Y26775000D03*
X30475000Y26775000D03*
%TD*%
D11*
%TO.C,C19*%
X48387500Y39250000D03*
X50112500Y39250000D03*
%TD*%
D12*
%TO.C,R16*%
X26500000Y40337500D03*
X26500000Y42162500D03*
%TD*%
D14*
%TO.C,C11*%
X57612500Y22250000D03*
X55887500Y22250000D03*
%TD*%
D15*
%TO.C,Boot1*%
X40750000Y41100000D03*
X40750000Y48900000D03*
%TD*%
D16*
%TO.C,LED1*%
X15710000Y6000000D03*
X15710000Y8050000D03*
%TD*%
D15*
%TO.C,Rst1*%
X47500000Y41100000D03*
X47500000Y48900000D03*
%TD*%
D16*
%TO.C,LED2*%
X19750000Y6000000D03*
X19750000Y8050000D03*
%TD*%
D17*
%TO.C,J3*%
X28800000Y6755000D03*
X29600000Y6755000D03*
D18*
X30750000Y6680000D03*
X31750000Y6680000D03*
X32250000Y6680000D03*
X33250000Y6680000D03*
D17*
X34400000Y6755000D03*
X35200000Y6755000D03*
X35200000Y6755000D03*
X34400000Y6755000D03*
D18*
X33750000Y6680000D03*
X32750000Y6680000D03*
X31250000Y6680000D03*
X30250000Y6680000D03*
D17*
X29600000Y6755000D03*
X28800000Y6755000D03*
D19*
X27680000Y6105000D03*
D20*
X27680000Y1925000D03*
D19*
X36320000Y6105000D03*
D20*
X36320000Y1925000D03*
%TD*%
D21*
%TO.C,C4*%
X47240000Y24362500D03*
X47240000Y22637500D03*
%TD*%
D11*
%TO.C,C31*%
X28812500Y28275000D03*
X30537500Y28275000D03*
%TD*%
D22*
%TO.C,U5*%
X7250000Y33750000D03*
X7250000Y32650000D03*
X7250000Y31550000D03*
X7250000Y30450000D03*
X7250000Y29350000D03*
X7250000Y28250000D03*
X7250000Y27150000D03*
X7250000Y24150000D03*
X7250000Y23050000D03*
X7250000Y21950000D03*
X7250000Y20850000D03*
X7250000Y19750000D03*
X19250000Y19750000D03*
X19250000Y20850000D03*
X19250000Y21950000D03*
X19250000Y23050000D03*
X19250000Y24150000D03*
X19250000Y27150000D03*
X19250000Y28250000D03*
X19250000Y29350000D03*
X19250000Y30450000D03*
X19250000Y31550000D03*
X19250000Y32650000D03*
X19250000Y33750000D03*
%TD*%
D23*
%TO.C,L3*%
X3250000Y22625000D03*
X3250000Y20875000D03*
%TD*%
D10*
%TO.C,R1*%
X57750000Y20500000D03*
X55925000Y20500000D03*
%TD*%
D24*
%TO.C,Q1*%
X55992500Y17040000D03*
X55992500Y15140000D03*
X57867500Y16090000D03*
%TD*%
D25*
%TO.C,R4*%
X18175000Y4250000D03*
X20000000Y4250000D03*
%TD*%
D10*
%TO.C,R14*%
X5162500Y24250000D03*
X3337500Y24250000D03*
%TD*%
D21*
%TO.C,C1*%
X42730000Y33862500D03*
X42730000Y32137500D03*
%TD*%
D11*
%TO.C,C18*%
X41637500Y39250000D03*
X43362500Y39250000D03*
%TD*%
D21*
%TO.C,C2*%
X44240000Y24362500D03*
X44240000Y22637500D03*
%TD*%
D14*
%TO.C,C32*%
X5112500Y19250000D03*
X3387500Y19250000D03*
%TD*%
D26*
%TO.C,C15*%
X60500000Y6537500D03*
X60500000Y8262500D03*
%TD*%
D25*
%TO.C,R9*%
X31337500Y39260000D03*
X33162500Y39260000D03*
%TD*%
%TO.C,R3*%
X14175000Y4250000D03*
X16000000Y4250000D03*
%TD*%
D14*
%TO.C,C23*%
X23750000Y22000000D03*
X22025000Y22000000D03*
%TD*%
D26*
%TO.C,C14*%
X51500000Y6537500D03*
X51500000Y8262500D03*
%TD*%
D27*
%TO.C,D2*%
X55850000Y13000000D03*
X58650000Y13000000D03*
%TD*%
D14*
%TO.C,C12*%
X54000000Y13500000D03*
X52275000Y13500000D03*
%TD*%
D21*
%TO.C,C30*%
X27175000Y26387500D03*
X27175000Y24662500D03*
%TD*%
D28*
%TO.C,J4*%
X5950000Y12000000D03*
D29*
X3150000Y12000000D03*
D30*
X8750000Y12000000D03*
%TD*%
D31*
%TO.C,D1*%
X56580000Y23500000D03*
X57420000Y23500000D03*
%TD*%
D14*
%TO.C,C13*%
X54000000Y15000000D03*
X52275000Y15000000D03*
%TD*%
D26*
%TO.C,C5*%
X34000000Y21387500D03*
X34000000Y23112500D03*
%TD*%
D12*
%TO.C,R5*%
X38250000Y5087500D03*
X38250000Y6912500D03*
%TD*%
D32*
%TO.C,D3*%
X30800000Y10862500D03*
X31750000Y10862500D03*
X32700000Y10862500D03*
X32700000Y13137500D03*
X31750000Y13137500D03*
X30800000Y13137500D03*
%TD*%
D33*
%TO.C,U2*%
X36190000Y12950000D03*
X37460000Y12950000D03*
X38730000Y12950000D03*
X40000000Y12950000D03*
X40000000Y20750000D03*
X38730000Y20750000D03*
X37460000Y20750000D03*
X36190000Y20750000D03*
D34*
X38095000Y16850000D03*
%TD*%
D26*
%TO.C,C27*%
X22250000Y11387500D03*
X22250000Y13112500D03*
%TD*%
D35*
%TO.C,U4*%
X21137500Y17912500D03*
D36*
X21000000Y17000000D03*
X21000000Y16500000D03*
X21000000Y16000000D03*
X21000000Y15500000D03*
D35*
X21137500Y14587500D03*
X21637500Y14587500D03*
X22137500Y14587500D03*
X22637500Y14587500D03*
X23137500Y14587500D03*
X23637500Y14587500D03*
X24137500Y14587500D03*
X24637500Y14587500D03*
X25137500Y14587500D03*
X25637500Y14587500D03*
D36*
X25775000Y15500000D03*
X25775000Y16000000D03*
X25775000Y16500000D03*
X25775000Y17000000D03*
D35*
X25637500Y17912500D03*
X25137500Y17912500D03*
X24637500Y17912500D03*
X24137500Y17912500D03*
X23637500Y17912500D03*
X23137500Y17912500D03*
X22637500Y17912500D03*
X22137500Y17912500D03*
X21637500Y17912500D03*
%TD*%
D25*
%TO.C,R8*%
X44975000Y39250000D03*
X46800000Y39250000D03*
%TD*%
D10*
%TO.C,R2*%
X57750000Y18750000D03*
X55925000Y18750000D03*
%TD*%
D21*
%TO.C,C3*%
X45750000Y24362500D03*
X45750000Y22637500D03*
%TD*%
D11*
%TO.C,C24*%
X21637500Y34740000D03*
X23362500Y34740000D03*
%TD*%
D21*
%TO.C,C6*%
X34000000Y19612500D03*
X34000000Y17887500D03*
%TD*%
%TO.C,C17*%
X44230000Y28112500D03*
X44230000Y26387500D03*
%TD*%
D11*
%TO.C,C21*%
X17887500Y16250000D03*
X19612500Y16250000D03*
%TD*%
D12*
%TO.C,R6*%
X25750000Y5087500D03*
X25750000Y6912500D03*
%TD*%
D37*
%TO.C,Y1*%
X22000000Y20000000D03*
X24500000Y20000000D03*
%TD*%
D12*
%TO.C,R15*%
X22000000Y40337500D03*
X22000000Y42162500D03*
%TD*%
D25*
%TO.C,R7*%
X38250000Y39250000D03*
X40075000Y39250000D03*
%TD*%
D38*
%TO.C,U3*%
X41930000Y30650000D03*
X41530000Y30650000D03*
X41130000Y30650000D03*
X40730000Y30650000D03*
X40330000Y30650000D03*
X39930000Y30650000D03*
X39530000Y30650000D03*
X39130000Y30650000D03*
X38730000Y30650000D03*
X38330000Y30650000D03*
X37930000Y30650000D03*
X37530000Y30650000D03*
X37130000Y30650000D03*
X36730000Y30650000D03*
D39*
X35880000Y29800000D03*
X35880000Y29400000D03*
X35880000Y29000000D03*
X35880000Y28600000D03*
X35880000Y28200000D03*
X35880000Y27800000D03*
X35880000Y27400000D03*
X35880000Y27000000D03*
X35880000Y26600000D03*
X35880000Y26200000D03*
X35880000Y25800000D03*
X35880000Y25400000D03*
X35880000Y25000000D03*
X35880000Y24600000D03*
D38*
X36730000Y23750000D03*
X37130000Y23750000D03*
X37530000Y23750000D03*
X37930000Y23750000D03*
X38330000Y23750000D03*
X38730000Y23750000D03*
X39130000Y23750000D03*
X39530000Y23750000D03*
X39930000Y23750000D03*
X40330000Y23750000D03*
X40730000Y23750000D03*
X41130000Y23750000D03*
X41530000Y23750000D03*
X41930000Y23750000D03*
D39*
X42780000Y24600000D03*
X42780000Y25000000D03*
X42780000Y25400000D03*
X42780000Y25800000D03*
X42780000Y26200000D03*
X42780000Y26600000D03*
X42780000Y27000000D03*
X42780000Y27400000D03*
X42780000Y27800000D03*
X42780000Y28200000D03*
X42780000Y28600000D03*
X42780000Y29000000D03*
X42780000Y29400000D03*
X42780000Y29800000D03*
D40*
X39330000Y27200000D03*
%TD*%
D14*
%TO.C,C7*%
X34362500Y27750000D03*
X32637500Y27750000D03*
%TD*%
D21*
%TO.C,C8*%
X48750000Y24362500D03*
X48750000Y22637500D03*
%TD*%
D25*
%TO.C,R12*%
X17837500Y14750000D03*
X19662500Y14750000D03*
%TD*%
D41*
%TO.C,X1*%
X47180000Y26375000D03*
X47180000Y28125000D03*
X45780000Y28125000D03*
X45780000Y26375000D03*
%TD*%
D11*
%TO.C,C9*%
X44367500Y32750000D03*
X46092500Y32750000D03*
%TD*%
%TO.C,C25*%
X21637500Y33250000D03*
X23362500Y33250000D03*
%TD*%
D42*
%TO.C,F1*%
X35812500Y9500000D03*
X37687500Y9500000D03*
%TD*%
D43*
%TO.C,L2*%
X46105000Y29750000D03*
X44355000Y29750000D03*
%TD*%
D11*
%TO.C,C10*%
X44367500Y31250000D03*
X46092500Y31250000D03*
%TD*%
D15*
%TO.C,NxtPg1*%
X34000000Y41100000D03*
X34000000Y48900000D03*
%TD*%
D44*
%TO.C,U1*%
X58300000Y10650000D03*
X56000000Y10650000D03*
X53700000Y10650000D03*
D45*
X56000000Y4350000D03*
%TD*%
D25*
%TO.C,R11*%
X17837500Y13250000D03*
X19662500Y13250000D03*
%TD*%
D11*
%TO.C,C26*%
X21637500Y31740000D03*
X23362500Y31740000D03*
%TD*%
D21*
%TO.C,C22*%
X26000000Y21362500D03*
X26000000Y19637500D03*
%TD*%
D26*
%TO.C,C16*%
X49000000Y26387500D03*
X49000000Y28112500D03*
%TD*%
D43*
%TO.C,L1*%
X46105000Y34250000D03*
X44355000Y34250000D03*
%TD*%
M02*
