%TF.GenerationSoftware,KiCad,Pcbnew,9.0.7-9.0.7~ubuntu24.04.1*%
%TF.CreationDate,2026-01-18T07:10:00-06:00*%
%TF.ProjectId,MCU,4d43552e-6b69-4636-9164-5f7063625858,rev?*%
%TF.SameCoordinates,PX6ea0500PY7cee6c0*%
%TF.FileFunction,Copper,L4,Bot*%
%TF.FilePolarity,Positive*%
%FSLAX46Y46*%
G04 Gerber Fmt 4.6, Leading zero omitted, Abs format (unit mm)*
G04 Created by KiCad (PCBNEW 9.0.7-9.0.7~ubuntu24.04.1) date 2026-01-18 07:10:00*
%MOMM*%
%LPD*%
G01*
G04 APERTURE LIST*
G04 Aperture macros list*
%AMRoundRect*
0 Rectangle with rounded corners*
0 $1 Rounding radius*
0 $2 $3 $4 $5 $6 $7 $8 $9 X,Y pos of 4 corners*
0 Add a 4 corners polygon primitive as box body*
4,1,4,$2,$3,$4,$5,$6,$7,$8,$9,$2,$3,0*
0 Add four circle primitives for the rounded corners*
1,1,$1+$1,$2,$3*
1,1,$1+$1,$4,$5*
1,1,$1+$1,$6,$7*
1,1,$1+$1,$8,$9*
0 Add four rect primitives between the rounded corners*
20,1,$1+$1,$2,$3,$4,$5,0*
20,1,$1+$1,$4,$5,$6,$7,0*
20,1,$1+$1,$6,$7,$8,$9,0*
20,1,$1+$1,$8,$9,$2,$3,0*%
G04 Aperture macros list end*
%TA.AperFunction,ComponentPad*%
%ADD10C,0.800000*%
%TD*%
%TA.AperFunction,ComponentPad*%
%ADD11C,6.400000*%
%TD*%
%TA.AperFunction,ComponentPad*%
%ADD12RoundRect,0.250000X0.600000X0.750000X-0.600000X0.750000X-0.600000X-0.750000X0.600000X-0.750000X0*%
%TD*%
%TA.AperFunction,ComponentPad*%
%ADD13O,1.700000X2.000000*%
%TD*%
%TA.AperFunction,ComponentPad*%
%ADD14RoundRect,0.250000X-0.600000X-0.725000X0.600000X-0.725000X0.600000X0.725000X-0.600000X0.725000X0*%
%TD*%
%TA.AperFunction,ComponentPad*%
%ADD15O,1.700000X1.950000*%
%TD*%
%TA.AperFunction,HeatsinkPad*%
%ADD16O,1.000000X2.100000*%
%TD*%
%TA.AperFunction,HeatsinkPad*%
%ADD17O,1.000000X1.800000*%
%TD*%
%TA.AperFunction,ComponentPad*%
%ADD18R,3.500000X3.500000*%
%TD*%
%TA.AperFunction,ComponentPad*%
%ADD19RoundRect,0.750000X0.750000X1.000000X-0.750000X1.000000X-0.750000X-1.000000X0.750000X-1.000000X0*%
%TD*%
%TA.AperFunction,ComponentPad*%
%ADD20RoundRect,0.875000X0.875000X0.875000X-0.875000X0.875000X-0.875000X-0.875000X0.875000X-0.875000X0*%
%TD*%
%TA.AperFunction,SMDPad,CuDef*%
%ADD21RoundRect,0.237500X0.300000X0.237500X-0.300000X0.237500X-0.300000X-0.237500X0.300000X-0.237500X0*%
%TD*%
%TA.AperFunction,SMDPad,CuDef*%
%ADD22R,1.000000X3.150000*%
%TD*%
%TA.AperFunction,SMDPad,CuDef*%
%ADD23C,1.000000*%
%TD*%
%TA.AperFunction,SMDPad,CuDef*%
%ADD24RoundRect,0.062500X0.062500X0.275000X-0.062500X0.275000X-0.062500X-0.275000X0.062500X-0.275000X0*%
%TD*%
%TA.AperFunction,SMDPad,CuDef*%
%ADD25RoundRect,0.062500X0.275000X0.062500X-0.275000X0.062500X-0.275000X-0.062500X0.275000X-0.062500X0*%
%TD*%
%TA.AperFunction,ViaPad*%
%ADD26C,0.700000*%
%TD*%
%TA.AperFunction,ViaPad*%
%ADD27C,0.600000*%
%TD*%
%TA.AperFunction,Conductor*%
%ADD28C,0.250000*%
%TD*%
%TA.AperFunction,Conductor*%
%ADD29C,0.750000*%
%TD*%
%TA.AperFunction,Conductor*%
%ADD30C,0.500000*%
%TD*%
%TA.AperFunction,Conductor*%
%ADD31C,0.300000*%
%TD*%
%TA.AperFunction,Conductor*%
%ADD32C,0.200000*%
%TD*%
G04 APERTURE END LIST*
D10*
%TO.P,H1,1,1*%
%TO.N,GND*%
X71600000Y49000000D03*
X72302944Y50697056D03*
X72302944Y47302944D03*
X74000000Y51400000D03*
D11*
X74000000Y49000000D03*
D10*
X74000000Y46600000D03*
X75697056Y50697056D03*
X75697056Y47302944D03*
X76400000Y49000000D03*
%TD*%
D12*
%TO.P,RBCs1,1,Pin_1*%
%TO.N,RB_RX*%
X45500000Y5250000D03*
D13*
%TO.P,RBCs1,2,Pin_2*%
%TO.N,RB_TX*%
X43000000Y5250000D03*
%TD*%
D14*
%TO.P,Oled1,1,Pin_1*%
%TO.N,GND*%
X18000000Y47000000D03*
D15*
%TO.P,Oled1,2,Pin_2*%
%TO.N,+3V3*%
X20500000Y47000000D03*
%TO.P,Oled1,3,Pin_3*%
%TO.N,SCL*%
X23000000Y47000000D03*
%TO.P,Oled1,4,Pin_4*%
%TO.N,SDA*%
X25500000Y47000000D03*
%TD*%
D16*
%TO.P,J3,S1*%
%TO.N,GND*%
X27680000Y6105000D03*
D17*
X27680000Y1925000D03*
D16*
X36320000Y6105000D03*
D17*
X36320000Y1925000D03*
%TD*%
D18*
%TO.P,J1,1*%
%TO.N,+RB_VDD_5V*%
X61000000Y34000000D03*
D19*
%TO.P,J1,2*%
%TO.N,GND*%
X67000000Y34000000D03*
D20*
%TO.P,J1,3*%
%TO.N,N/C*%
X64000000Y38700000D03*
%TD*%
D10*
%TO.P,H4,1,1*%
%TO.N,GND*%
X1600000Y49000000D03*
X2302944Y50697056D03*
X2302944Y47302944D03*
X4000000Y51400000D03*
D11*
X4000000Y49000000D03*
D10*
X4000000Y46600000D03*
X5697056Y50697056D03*
X5697056Y47302944D03*
X6400000Y49000000D03*
%TD*%
D14*
%TO.P,LEDStrip1,1,Pin_1*%
%TO.N,GND*%
X55750000Y47000000D03*
D15*
%TO.P,LEDStrip1,2,Pin_2*%
%TO.N,LedStrip*%
X58250000Y47000000D03*
%TO.P,LEDStrip1,3,Pin_3*%
%TO.N,+RB_VDD_5V*%
X60750000Y47000000D03*
%TD*%
D10*
%TO.P,H2,1,1*%
%TO.N,GND*%
X71600000Y4000000D03*
X72302944Y5697056D03*
X72302944Y2302944D03*
X74000000Y6400000D03*
D11*
X74000000Y4000000D03*
D10*
X74000000Y1600000D03*
X75697056Y5697056D03*
X75697056Y2302944D03*
X76400000Y4000000D03*
%TD*%
D18*
%TO.P,J2,1*%
%TO.N,+VDD_5V*%
X61000000Y19542500D03*
D19*
%TO.P,J2,2*%
%TO.N,GND*%
X67000000Y19542500D03*
D20*
%TO.P,J2,3*%
%TO.N,N/C*%
X64000000Y24242500D03*
%TD*%
D10*
%TO.P,H3,1,1*%
%TO.N,GND*%
X1600000Y4000000D03*
X2302944Y5697056D03*
X2302944Y2302944D03*
X4000000Y6400000D03*
D11*
X4000000Y4000000D03*
D10*
X4000000Y1600000D03*
X5697056Y5697056D03*
X5697056Y2302944D03*
X6400000Y4000000D03*
%TD*%
D21*
%TO.P,C29,1*%
%TO.N,+3V3*%
X10375000Y46262500D03*
%TO.P,C29,2*%
%TO.N,GND*%
X8650000Y46262500D03*
%TD*%
D22*
%TO.P,Jetson1,1,Pin_1*%
%TO.N,unconnected-(Jetson1-Pin_1-Pad1)*%
X6560000Y36500000D03*
%TO.P,Jetson1,2,Pin_2*%
%TO.N,unconnected-(Jetson1-Pin_2-Pad2)*%
X6560000Y31450000D03*
%TO.P,Jetson1,3,Pin_3*%
%TO.N,SDA*%
X9100000Y36500000D03*
%TO.P,Jetson1,4,Pin_4*%
%TO.N,unconnected-(Jetson1-Pin_4-Pad4)*%
X9100000Y31450000D03*
%TO.P,Jetson1,5,Pin_5*%
%TO.N,SCL*%
X11640000Y36500000D03*
%TO.P,Jetson1,6,Pin_6*%
%TO.N,GND*%
X11640000Y31450000D03*
%TO.P,Jetson1,7,Pin_7*%
%TO.N,unconnected-(Jetson1-Pin_7-Pad7)*%
X14180000Y36500000D03*
%TO.P,Jetson1,8,Pin_8*%
%TO.N,JT_TX*%
X14180000Y31450000D03*
%TO.P,Jetson1,9,Pin_9*%
%TO.N,GND*%
X16720000Y36500000D03*
%TO.P,Jetson1,10,Pin_10*%
%TO.N,JT_RX*%
X16720000Y31450000D03*
%TO.P,Jetson1,11,Pin_11*%
%TO.N,unconnected-(Jetson1-Pin_11-Pad11)*%
X19260000Y36500000D03*
%TO.P,Jetson1,12,Pin_12*%
%TO.N,unconnected-(Jetson1-Pin_12-Pad12)*%
X19260000Y31450000D03*
%TO.P,Jetson1,13,Pin_13*%
%TO.N,unconnected-(Jetson1-Pin_13-Pad13)*%
X21800000Y36500000D03*
%TO.P,Jetson1,14,Pin_14*%
%TO.N,GND*%
X21800000Y31450000D03*
%TO.P,Jetson1,15,Pin_15*%
%TO.N,unconnected-(Jetson1-Pin_15-Pad15)*%
X24340000Y36500000D03*
%TO.P,Jetson1,16,Pin_16*%
%TO.N,unconnected-(Jetson1-Pin_16-Pad16)*%
X24340000Y31450000D03*
%TO.P,Jetson1,17,Pin_17*%
%TO.N,unconnected-(Jetson1-Pin_17-Pad17)*%
X26880000Y36500000D03*
%TO.P,Jetson1,18,Pin_18*%
%TO.N,unconnected-(Jetson1-Pin_18-Pad18)*%
X26880000Y31450000D03*
%TO.P,Jetson1,19,Pin_19*%
%TO.N,unconnected-(Jetson1-Pin_19-Pad19)*%
X29420000Y36500000D03*
%TO.P,Jetson1,20,Pin_20*%
%TO.N,GND*%
X29420000Y31450000D03*
%TO.P,Jetson1,21,Pin_21*%
%TO.N,unconnected-(Jetson1-Pin_21-Pad21)*%
X31960000Y36500000D03*
%TO.P,Jetson1,22,Pin_22*%
%TO.N,unconnected-(Jetson1-Pin_22-Pad22)*%
X31960000Y31450000D03*
%TO.P,Jetson1,23,Pin_23*%
%TO.N,unconnected-(Jetson1-Pin_23-Pad23)*%
X34500000Y36500000D03*
%TO.P,Jetson1,24,Pin_24*%
%TO.N,unconnected-(Jetson1-Pin_24-Pad24)*%
X34500000Y31450000D03*
%TO.P,Jetson1,25,Pin_25*%
%TO.N,GND*%
X37040000Y36500000D03*
%TO.P,Jetson1,26,Pin_26*%
%TO.N,unconnected-(Jetson1-Pin_26-Pad26)*%
X37040000Y31450000D03*
%TO.P,Jetson1,27,Pin_27*%
%TO.N,unconnected-(Jetson1-Pin_27-Pad27)*%
X39580000Y36500000D03*
%TO.P,Jetson1,28,Pin_28*%
%TO.N,unconnected-(Jetson1-Pin_28-Pad28)*%
X39580000Y31450000D03*
%TO.P,Jetson1,29,Pin_29*%
%TO.N,JT_MCU1*%
X42120000Y36500000D03*
%TO.P,Jetson1,30,Pin_30*%
%TO.N,GND*%
X42120000Y31450000D03*
%TO.P,Jetson1,31,Pin_31*%
%TO.N,JT_MCU2*%
X44660000Y36500000D03*
%TO.P,Jetson1,32,Pin_32*%
%TO.N,unconnected-(Jetson1-Pin_32-Pad32)*%
X44660000Y31450000D03*
%TO.P,Jetson1,33,Pin_33*%
%TO.N,unconnected-(Jetson1-Pin_33-Pad33)*%
X47200000Y36500000D03*
%TO.P,Jetson1,34,Pin_34*%
%TO.N,GND*%
X47200000Y31450000D03*
%TO.P,Jetson1,35,Pin_35*%
%TO.N,unconnected-(Jetson1-Pin_35-Pad35)*%
X49740000Y36500000D03*
%TO.P,Jetson1,36,Pin_36*%
%TO.N,unconnected-(Jetson1-Pin_36-Pad36)*%
X49740000Y31450000D03*
%TO.P,Jetson1,37,Pin_37*%
%TO.N,unconnected-(Jetson1-Pin_37-Pad37)*%
X52280000Y36500000D03*
%TO.P,Jetson1,38,Pin_38*%
%TO.N,unconnected-(Jetson1-Pin_38-Pad38)*%
X52280000Y31450000D03*
%TO.P,Jetson1,39,Pin_39*%
%TO.N,GND*%
X54820000Y36500000D03*
%TO.P,Jetson1,40,Pin_40*%
%TO.N,unconnected-(Jetson1-Pin_40-Pad40)*%
X54820000Y31450000D03*
%TD*%
D23*
%TO.P,FID6,*%
%TO.N,*%
X9750000Y4000000D03*
%TD*%
D24*
%TO.P,U6,1,INT2*%
%TO.N,Net-(U6-INT2)*%
X11750000Y44775000D03*
%TO.P,U6,2,GNDA*%
%TO.N,GND*%
X11250000Y44775000D03*
%TO.P,U6,3,VDD*%
%TO.N,+3V3*%
X10750000Y44775000D03*
%TO.P,U6,4,GNDA*%
%TO.N,GND*%
X10250000Y44775000D03*
%TO.P,U6,5,~{CSB2}*%
%TO.N,unconnected-(U6-~{CSB2}-Pad5)*%
X9750000Y44775000D03*
%TO.P,U6,6,GNDIO*%
%TO.N,GND*%
X9250000Y44775000D03*
%TO.P,U6,7,PS*%
%TO.N,+3V3*%
X8750000Y44775000D03*
D25*
%TO.P,U6,8,SCK/SCL*%
%TO.N,SCL*%
X8237500Y43512500D03*
D24*
%TO.P,U6,9,SDI/SDA*%
%TO.N,SDA*%
X8750000Y42250000D03*
%TO.P,U6,10,SDO2*%
%TO.N,GND*%
X9250000Y42250000D03*
%TO.P,U6,11,VDDIO*%
%TO.N,+3V3*%
X9750000Y42250000D03*
%TO.P,U6,12,INT3*%
%TO.N,unconnected-(U6-INT3-Pad12)*%
X10250000Y42250000D03*
%TO.P,U6,13,INT4*%
%TO.N,Net-(U6-INT2)*%
X10750000Y42250000D03*
%TO.P,U6,14,~{CSB1}*%
%TO.N,+3V3*%
X11250000Y42250000D03*
%TO.P,U6,15,SDO1*%
X11750000Y42250000D03*
D25*
%TO.P,U6,16,INT1*%
%TO.N,unconnected-(U6-INT1-Pad16)*%
X12262500Y43512500D03*
%TD*%
D21*
%TO.P,C28,1*%
%TO.N,+3V3*%
X10612500Y40762500D03*
%TO.P,C28,2*%
%TO.N,GND*%
X8887500Y40762500D03*
%TD*%
D23*
%TO.P,FID5,*%
%TO.N,*%
X68250000Y4000000D03*
%TD*%
%TO.P,FID4,*%
%TO.N,*%
X68250000Y49000000D03*
%TD*%
D26*
%TO.N,GND*%
X18000000Y34750000D03*
X61000000Y2750000D03*
X32500000Y49000000D03*
X23250000Y11500000D03*
X8750000Y22000000D03*
X10750000Y20000000D03*
X55750000Y45000000D03*
X7250000Y18750000D03*
X3250000Y39750000D03*
X44750000Y16750000D03*
X20500000Y17750000D03*
X18000000Y49000000D03*
X61500000Y8250000D03*
X44000000Y42500000D03*
X37250000Y48250000D03*
X18000000Y17250000D03*
X30500000Y29250000D03*
X10750000Y22500000D03*
X21250000Y11500000D03*
X35250000Y7750000D03*
X44750000Y14000000D03*
X6000000Y9500000D03*
X3250000Y25250000D03*
X34000000Y24250000D03*
X65250000Y42500000D03*
X20750000Y22000000D03*
X58250000Y9250000D03*
X23750000Y23000000D03*
X8250000Y7750000D03*
X7250000Y26000000D03*
X24750000Y27500000D03*
D27*
X47250000Y29000000D03*
D26*
X52250000Y16000000D03*
X47500000Y50250000D03*
X48250000Y31500000D03*
X38750000Y2500000D03*
X27250000Y10750000D03*
X54750000Y22250000D03*
X64250000Y3750000D03*
X39250000Y49000000D03*
X13000000Y50000000D03*
X15500000Y36500000D03*
X73000000Y19250000D03*
X67000000Y31500000D03*
X15750000Y21250000D03*
X30250000Y1500000D03*
X67500000Y7500000D03*
X9250000Y39250000D03*
X60500000Y9250000D03*
D27*
X37000000Y28750000D03*
D26*
X48709948Y21598000D03*
X51000000Y42250000D03*
X65500000Y45750000D03*
X51250000Y48250000D03*
X69500000Y19500000D03*
X34250000Y10750000D03*
X5750000Y27250000D03*
X30250000Y45000000D03*
X41500000Y11250000D03*
X13000000Y26000000D03*
X30250000Y25750000D03*
X24500000Y26000000D03*
X32750000Y28750000D03*
X17750000Y19750000D03*
X26000000Y22500000D03*
X23250000Y15500000D03*
X32500000Y17750000D03*
X32000000Y3750000D03*
X33250000Y1500000D03*
X25500000Y25000000D03*
X23250000Y35750000D03*
X16750000Y38750000D03*
X67000000Y36750000D03*
X5250000Y25250000D03*
X72750000Y34250000D03*
X11750000Y33500000D03*
X45000000Y27250000D03*
X2250000Y24250000D03*
X15750000Y2250000D03*
X23250000Y17000000D03*
D27*
X40750000Y29750000D03*
X41750000Y25750000D03*
D26*
X18000000Y25750000D03*
X51250000Y45000000D03*
X4250000Y21750000D03*
X40750000Y17000000D03*
X29250000Y17500000D03*
X32750000Y16000000D03*
X10500000Y31250000D03*
X55750000Y49000000D03*
X16000000Y27000000D03*
X8750000Y19750000D03*
X44250000Y21500000D03*
X17750000Y33750000D03*
X12000000Y2250000D03*
X30250000Y48250000D03*
D27*
X37000000Y27750000D03*
D26*
X16750000Y13250000D03*
X41000000Y32750000D03*
X3250000Y34250000D03*
X71750000Y27250000D03*
X42250000Y49000000D03*
X35500000Y49000000D03*
X51250000Y15000000D03*
X30500000Y31500000D03*
X24750000Y7000000D03*
X12750000Y31250000D03*
X21500000Y24500000D03*
X51750000Y2250000D03*
X47500000Y8000000D03*
X52250000Y27500000D03*
X24750000Y16500000D03*
X54750000Y20500000D03*
X30250000Y42250000D03*
X2000000Y19250000D03*
X36000000Y36250000D03*
D27*
X37000000Y25750000D03*
X41750000Y26750000D03*
D26*
X36000000Y38000000D03*
X17750000Y12250000D03*
X10500000Y10250000D03*
X36750000Y11000000D03*
X39250000Y7000000D03*
X16750000Y16250000D03*
X44000000Y45000000D03*
X37250000Y42250000D03*
X34000000Y15500000D03*
X64500000Y10000000D03*
X43250000Y22250000D03*
D27*
X37000000Y26750000D03*
D26*
X6250000Y16500000D03*
X44500000Y11500000D03*
X34000000Y14250000D03*
D27*
X39250000Y24750000D03*
X41750000Y27750000D03*
D26*
X41000000Y13000000D03*
X67750000Y27250000D03*
X3250000Y29000000D03*
X24750000Y49750000D03*
X44250000Y2250000D03*
X40250000Y5000000D03*
X49000000Y49000000D03*
X24500000Y39250000D03*
X17750000Y36500000D03*
X40750000Y50250000D03*
X27000000Y21500000D03*
X4250000Y23500000D03*
X4250000Y16000000D03*
X16000000Y24000000D03*
X55750000Y23500000D03*
X50500000Y8250000D03*
X59250000Y27250000D03*
X41250000Y7750000D03*
X51500000Y9250000D03*
X25250000Y2250000D03*
X42750000Y13500000D03*
X55000000Y38750000D03*
X32750000Y26750000D03*
X7500000Y45750000D03*
X22750000Y27500000D03*
X10500000Y14500000D03*
X3000000Y43250000D03*
X11250000Y27500000D03*
X55000000Y34250000D03*
X67000000Y22250000D03*
X17750000Y7250000D03*
X2000000Y20750000D03*
X50500000Y26500000D03*
X51250000Y13500000D03*
X12750000Y17000000D03*
X16250000Y47000000D03*
X18000000Y45000000D03*
X56000000Y27500000D03*
X45750000Y21500000D03*
X22750000Y5750000D03*
D27*
X41750000Y28750000D03*
D26*
X27000000Y19500000D03*
X23250000Y20500000D03*
X13500000Y27250000D03*
X17250000Y41750000D03*
X5750000Y22000000D03*
X48000000Y13750000D03*
X65250000Y49000000D03*
X8750000Y23000000D03*
X8750000Y27250000D03*
X5250000Y18250000D03*
X37250000Y45000000D03*
X13500000Y13000000D03*
X27250000Y12750000D03*
X70500000Y10250000D03*
X60000000Y41250000D03*
X49750000Y22500000D03*
X52250000Y12500000D03*
X48750000Y17500000D03*
X59500000Y10500000D03*
X26250000Y27500000D03*
D27*
X40750000Y24750000D03*
D26*
X31500000Y27750000D03*
X44000000Y48250000D03*
X20750000Y19750000D03*
D27*
X37750000Y24750000D03*
D26*
X8750000Y20750000D03*
X54000000Y47000000D03*
X47250000Y21500000D03*
X29000000Y40000000D03*
X14000000Y3000000D03*
X12000000Y7000000D03*
X34000000Y50250000D03*
X2000000Y22500000D03*
X48250000Y32750000D03*
X49750000Y40250000D03*
X31750000Y9750000D03*
X43000000Y40250000D03*
X24500000Y34000000D03*
X13750000Y19750000D03*
D27*
X38250000Y29750000D03*
D26*
X16750000Y14750000D03*
X28500000Y13500000D03*
X36250000Y40250000D03*
X22250000Y10250000D03*
X42750000Y23000000D03*
X10000000Y25000000D03*
X72750000Y40750000D03*
X34000000Y16750000D03*
X46000000Y49000000D03*
X67000000Y16750000D03*
X13250000Y10000000D03*
X39500000Y11000000D03*
X19250000Y18750000D03*
X18000000Y3000000D03*
X28750000Y7750000D03*
X21750000Y2250000D03*
X2500000Y18250000D03*
X23337998Y30750000D03*
X13000000Y21750000D03*
X56000000Y36500000D03*
X12000000Y45750000D03*
X68250000Y43500000D03*
X49750000Y4500000D03*
X69500000Y34000000D03*
X25000000Y22000000D03*
X63750000Y27750000D03*
X53000000Y41250000D03*
X11750000Y29500000D03*
X51750000Y19500000D03*
X12750000Y24000000D03*
%TO.N,+VDD_5V*%
X58750000Y22250000D03*
X63750000Y19500000D03*
X61000000Y16750000D03*
X61000000Y22250000D03*
X38750000Y9500000D03*
X58500000Y14750000D03*
X59250000Y16000000D03*
X58250000Y23500000D03*
X59750000Y13000000D03*
X58250000Y17250000D03*
%TO.N,LED_WHITE*%
X15750000Y10000000D03*
X41250000Y19500000D03*
%TO.N,LED_RED*%
X41750000Y15000000D03*
X21250000Y8000000D03*
%TO.N,JT_MCU2*%
X38250000Y32000000D03*
%TO.N,JT_MCU1*%
X36500000Y33750000D03*
%TO.N,SPIWP*%
X38500000Y14250000D03*
X38000000Y19500000D03*
%TO.N,SPICS0*%
X36125000Y13875000D03*
X37746356Y22249000D03*
%TO.N,SPIQ*%
X37250000Y14250000D03*
X39000000Y22500000D03*
%TO.N,SDA*%
X35880000Y30870000D03*
X29250000Y22500000D03*
%TO.N,JT_TX*%
X35000000Y34000000D03*
%TO.N,JT_RX*%
X33250000Y34250000D03*
%TO.N,+3V3*%
X34750000Y26750000D03*
X21000000Y42250000D03*
X11500000Y46500000D03*
X43250000Y30500000D03*
X45000000Y25250000D03*
X20500000Y45000000D03*
X28750000Y29250000D03*
X22000000Y17000000D03*
X60500000Y5500000D03*
X55000000Y10500000D03*
X30250000Y23500000D03*
X31250000Y26500000D03*
X27750000Y27500000D03*
X53750000Y4500000D03*
X51500000Y5500000D03*
X20750000Y30750000D03*
X20500000Y35500000D03*
X31000000Y40250000D03*
X28250000Y26000000D03*
X46500000Y25250000D03*
X48000000Y25250000D03*
X35250000Y19750000D03*
X44750000Y40250000D03*
X35750000Y23500000D03*
X50500000Y6500000D03*
X56000000Y3000000D03*
X10737500Y39512500D03*
X26000000Y26500000D03*
X25750000Y12250000D03*
X43707001Y25400292D03*
X12500000Y42512500D03*
X34500000Y28750000D03*
X27500000Y42250000D03*
X7250000Y44762500D03*
X20500000Y49000000D03*
X61500000Y6500000D03*
X56000000Y9250000D03*
X17750000Y31250000D03*
X35250000Y21500000D03*
X38000000Y40250000D03*
X19500000Y17250000D03*
X58250000Y4500000D03*
X17750000Y32500000D03*
X47250000Y34000000D03*
X20750000Y32500000D03*
X43250000Y24000000D03*
X49500000Y25250000D03*
%TO.N,+RB_VDD_5V*%
X62750000Y47000000D03*
X58250000Y34000000D03*
X61000000Y36750000D03*
X63750000Y34000000D03*
X61000000Y31250000D03*
X60750000Y49000000D03*
X60750000Y45000000D03*
%TD*%
D28*
%TO.N,GND*%
X9971999Y45390500D02*
X9544728Y45390500D01*
X9250000Y44775000D02*
X9250000Y45662500D01*
X10250000Y45112499D02*
X9971999Y45390500D01*
D29*
X41000000Y32000000D02*
X41000000Y32750000D01*
D30*
X48200000Y31450000D02*
X48250000Y31500000D01*
D29*
X41550000Y31450000D02*
X41000000Y32000000D01*
X11640000Y33390000D02*
X11750000Y33500000D01*
D30*
X23050000Y31450000D02*
X23337998Y31162002D01*
D29*
X29500000Y31530000D02*
X29420000Y31450000D01*
D28*
X11750000Y45750000D02*
X12000000Y45750000D01*
D29*
X54820000Y36500000D02*
X56000000Y36500000D01*
X36790000Y36250000D02*
X37040000Y36500000D01*
D30*
X9250000Y39300000D02*
X8887500Y39662500D01*
D28*
X8137500Y45750000D02*
X8650000Y46262500D01*
D29*
X16720000Y38720000D02*
X16750000Y38750000D01*
X29420000Y31450000D02*
X30450000Y31450000D01*
D28*
X10250000Y44775000D02*
X10250000Y45112499D01*
X11250000Y45250000D02*
X11750000Y45750000D01*
X9250000Y41125000D02*
X8887500Y40762500D01*
D30*
X23337998Y31162002D02*
X23337998Y30750000D01*
D29*
X36000000Y36250000D02*
X36790000Y36250000D01*
D30*
X9250000Y39250000D02*
X9250000Y39300000D01*
D28*
X9250000Y45095772D02*
X9250000Y44775000D01*
D29*
X16720000Y36500000D02*
X16720000Y38720000D01*
D28*
X9250000Y45662500D02*
X8650000Y46262500D01*
D29*
X42120000Y31450000D02*
X41550000Y31450000D01*
D28*
X11250000Y44775000D02*
X11250000Y45250000D01*
D30*
X8887500Y39662500D02*
X8887500Y40762500D01*
D28*
X9544728Y45390500D02*
X9250000Y45095772D01*
D30*
X47200000Y31450000D02*
X48200000Y31450000D01*
D28*
X9250000Y42250000D02*
X9250000Y41125000D01*
D29*
X30450000Y31450000D02*
X30500000Y31500000D01*
D30*
X21800000Y31450000D02*
X23050000Y31450000D01*
D29*
X11640000Y31450000D02*
X11640000Y33390000D01*
D28*
X7500000Y45750000D02*
X8137500Y45750000D01*
D29*
%TO.N,+VDD_5V*%
X52750000Y10750000D02*
X55000000Y13000000D01*
X44625000Y9500000D02*
X45875000Y10750000D01*
X45875000Y10750000D02*
X52750000Y10750000D01*
X38750000Y9500000D02*
X44625000Y9500000D01*
X55000000Y13000000D02*
X59750000Y13000000D01*
D31*
%TO.N,LED_WHITE*%
X15750000Y10000000D02*
X18000000Y10000000D01*
X22503000Y14503000D02*
X30747000Y14503000D01*
X30747000Y14503000D02*
X32500000Y12750000D01*
X38250000Y12750000D02*
X39750000Y14250000D01*
X39750000Y14250000D02*
X39750000Y18000000D01*
X18000000Y10000000D02*
X22503000Y14503000D01*
X32500000Y12750000D02*
X38250000Y12750000D01*
X39750000Y18000000D02*
X41250000Y19500000D01*
%TO.N,LED_RED*%
X21250000Y8000000D02*
X22750000Y8000000D01*
X31717548Y12000000D02*
X38750000Y12000000D01*
X22750000Y8000000D02*
X24000000Y9250000D01*
X38750000Y12000000D02*
X41750000Y15000000D01*
X24000000Y9250000D02*
X28967548Y9250000D01*
X28967548Y9250000D02*
X31717548Y12000000D01*
D32*
%TO.N,JT_MCU2*%
X38250000Y33000000D02*
X38250000Y32000000D01*
X39000000Y33750000D02*
X38250000Y33000000D01*
X44660000Y34660000D02*
X43750000Y33750000D01*
X44660000Y36500000D02*
X44660000Y34660000D01*
X43750000Y33750000D02*
X39000000Y33750000D01*
%TO.N,JT_MCU1*%
X40250000Y34250000D02*
X37000000Y34250000D01*
X37000000Y34250000D02*
X36500000Y33750000D01*
X40750000Y36250000D02*
X40750000Y34750000D01*
X41000000Y36500000D02*
X40750000Y36250000D01*
X40750000Y34750000D02*
X40250000Y34250000D01*
X42120000Y36500000D02*
X41000000Y36500000D01*
%TO.N,SPIWP*%
X38000000Y19500000D02*
X38000000Y14750000D01*
X38000000Y14750000D02*
X38500000Y14250000D01*
%TO.N,SPICS0*%
X37746356Y22249000D02*
X37746356Y21746356D01*
X36125000Y20125000D02*
X36125000Y13875000D01*
X37746356Y21746356D02*
X36125000Y20125000D01*
%TO.N,SPIQ*%
X39000000Y22000000D02*
X37000000Y20000000D01*
X37000000Y14500000D02*
X37250000Y14250000D01*
X37000000Y20000000D02*
X37000000Y14500000D01*
X39000000Y22500000D02*
X39000000Y22000000D01*
D28*
%TO.N,SCL*%
X8237500Y43512500D02*
X6987500Y43512500D01*
X11750000Y47250000D02*
X13628000Y45372000D01*
X11640000Y38890000D02*
X11640000Y36500000D01*
X13628000Y45372000D02*
X13628000Y40878000D01*
X8000000Y47250000D02*
X11750000Y47250000D01*
X6987500Y43512500D02*
X6250000Y44250000D01*
X6250000Y44250000D02*
X6250000Y45500000D01*
X6250000Y45500000D02*
X8000000Y47250000D01*
X13628000Y40878000D02*
X11640000Y38890000D01*
D32*
%TO.N,SDA*%
X31500000Y22500000D02*
X29250000Y22500000D01*
D28*
X9100000Y38115468D02*
X9100000Y36500000D01*
X7750000Y41500000D02*
X7750000Y39465468D01*
D32*
X35880000Y30870000D02*
X35880000Y28732771D01*
X35880000Y28732771D02*
X32500000Y25352771D01*
X32500000Y25352771D02*
X32500000Y23500000D01*
X32500000Y23500000D02*
X31500000Y22500000D01*
D28*
X7750000Y39465468D02*
X9100000Y38115468D01*
X8750000Y42250000D02*
X8500000Y42250000D01*
X8500000Y42250000D02*
X7750000Y41500000D01*
D32*
%TO.N,JT_TX*%
X31591000Y28500000D02*
X33250000Y30159000D01*
X33250000Y32781000D02*
X34469000Y34000000D01*
X14180000Y29570000D02*
X15250000Y28500000D01*
X34469000Y34000000D02*
X35000000Y34000000D01*
X33250000Y30159000D02*
X33250000Y32781000D01*
X15250000Y28500000D02*
X31591000Y28500000D01*
X14180000Y31450000D02*
X14180000Y29570000D01*
%TO.N,JT_RX*%
X16720000Y29780000D02*
X17147000Y29353000D01*
X20675229Y33278000D02*
X28389874Y33278000D01*
X28389874Y33278000D02*
X29361874Y34250000D01*
X29361874Y34250000D02*
X33250000Y34250000D01*
X19706229Y29353000D02*
X20147000Y29793771D01*
X20147000Y29793771D02*
X20147000Y32749771D01*
X16720000Y31450000D02*
X16720000Y29780000D01*
X17147000Y29353000D02*
X19706229Y29353000D01*
X20147000Y32749771D02*
X20675229Y33278000D01*
D28*
%TO.N,+3V3*%
X9750000Y42250000D02*
X9750000Y41625000D01*
D30*
X10612500Y40762500D02*
X10612500Y39637500D01*
D31*
X7262500Y44775000D02*
X7250000Y44762500D01*
D30*
X10612500Y39637500D02*
X10737500Y39512500D01*
D28*
X10612500Y46500000D02*
X10375000Y46262500D01*
D31*
X11750000Y42250000D02*
X12237500Y42250000D01*
D28*
X10750000Y44775000D02*
X10750000Y45887500D01*
D31*
X12237500Y42250000D02*
X12500000Y42512500D01*
D28*
X9750000Y41625000D02*
X10612500Y40762500D01*
D31*
X8750000Y44775000D02*
X7262500Y44775000D01*
X11750000Y42250000D02*
X11250000Y42250000D01*
D28*
X11500000Y46500000D02*
X10612500Y46500000D01*
X10750000Y45887500D02*
X10375000Y46262500D01*
D32*
%TO.N,Net-(U6-INT2)*%
X13250000Y44012500D02*
X12487500Y44775000D01*
X11003001Y41659500D02*
X12647000Y41659500D01*
X12487500Y44775000D02*
X11750000Y44775000D01*
X12647000Y41659500D02*
X13250000Y42262500D01*
X10750000Y41912501D02*
X11003001Y41659500D01*
X13250000Y42262500D02*
X13250000Y44012500D01*
X10750000Y42250000D02*
X10750000Y41912501D01*
%TD*%
%TA.AperFunction,Conductor*%
%TO.N,GND*%
G36*
X32655722Y33747032D02*
G01*
X32663611Y33748281D01*
X32684264Y33737758D01*
X32706316Y33730593D01*
X32718128Y33720504D01*
X32757540Y33681093D01*
X32771584Y33667049D01*
X32894505Y33584916D01*
X33031087Y33528342D01*
X33064992Y33521598D01*
X33118376Y33491701D01*
X33143992Y33436136D01*
X33132055Y33376126D01*
X33115681Y33354496D01*
X32964221Y33203037D01*
X32909705Y33175260D01*
X32849273Y33184832D01*
X32806009Y33228095D01*
X32788050Y33263342D01*
X32698342Y33353050D01*
X32585304Y33410646D01*
X32585305Y33410646D01*
X32491521Y33425500D01*
X31428478Y33425500D01*
X31428476Y33425499D01*
X31334700Y33410648D01*
X31334695Y33410646D01*
X31221659Y33353051D01*
X31131949Y33263341D01*
X31074354Y33150305D01*
X31059500Y33056522D01*
X31059500Y29843479D01*
X31059501Y29843477D01*
X31074352Y29749701D01*
X31074354Y29749696D01*
X31131950Y29636658D01*
X31221658Y29546950D01*
X31334696Y29489354D01*
X31428481Y29474500D01*
X31618678Y29474501D01*
X31676868Y29455594D01*
X31712832Y29406094D01*
X31712833Y29344909D01*
X31688682Y29305498D01*
X31412683Y29029497D01*
X31358166Y29001719D01*
X31342679Y29000500D01*
X29586207Y29000500D01*
X29528016Y29019407D01*
X29492052Y29068907D01*
X29489109Y29118814D01*
X29500499Y29176079D01*
X29500500Y29176084D01*
X29500500Y29323917D01*
X29500499Y29323921D01*
X29496324Y29344909D01*
X29474090Y29456687D01*
X29481282Y29517448D01*
X29522814Y29562378D01*
X29571188Y29575001D01*
X29964790Y29575001D01*
X29964791Y29575002D01*
X29989874Y29577910D01*
X30092477Y29623214D01*
X30171786Y29702523D01*
X30217090Y29805128D01*
X30219999Y29830203D01*
X30220000Y29830205D01*
X30220000Y31299999D01*
X30219999Y31300000D01*
X28620002Y31300000D01*
X28620000Y31299999D01*
X28620000Y30070592D01*
X28601093Y30012401D01*
X28551593Y29976437D01*
X28540318Y29973495D01*
X28531090Y29971660D01*
X28531088Y29971659D01*
X28394504Y29915084D01*
X28271585Y29832952D01*
X28167048Y29728415D01*
X28084915Y29605494D01*
X28028342Y29468915D01*
X27999500Y29323919D01*
X27999500Y29176079D01*
X28010891Y29118814D01*
X28003699Y29058053D01*
X27962166Y29013123D01*
X27913793Y29000500D01*
X20300550Y29000500D01*
X20242359Y29019407D01*
X20206395Y29068907D01*
X20206395Y29130093D01*
X20230546Y29169503D01*
X20393993Y29332951D01*
X20454312Y29393270D01*
X20454314Y29393271D01*
X20547500Y29486457D01*
X20549173Y29489355D01*
X20613390Y29600581D01*
X20613390Y29600583D01*
X20613392Y29600585D01*
X20647500Y29727879D01*
X20647500Y29900500D01*
X20666407Y29958691D01*
X20715907Y29994655D01*
X20746500Y29999500D01*
X20823917Y29999500D01*
X20823918Y29999500D01*
X20968913Y30028342D01*
X21105495Y30084916D01*
X21228416Y30167049D01*
X21332951Y30271584D01*
X21415084Y30394505D01*
X21471658Y30531087D01*
X21500500Y30676082D01*
X21500500Y30823918D01*
X21471658Y30968913D01*
X21415084Y31105495D01*
X21332951Y31228416D01*
X21228416Y31332951D01*
X21105495Y31415084D01*
X21105493Y31415085D01*
X20968914Y31471658D01*
X20823918Y31500500D01*
X20746500Y31500500D01*
X20731588Y31505345D01*
X20715907Y31505345D01*
X20703221Y31514562D01*
X20688309Y31519407D01*
X20679092Y31532093D01*
X20666407Y31541309D01*
X20661561Y31556222D01*
X20652345Y31568907D01*
X20647500Y31599500D01*
X20647500Y31650500D01*
X20666407Y31708691D01*
X20715907Y31744655D01*
X20746500Y31749500D01*
X20823917Y31749500D01*
X20823918Y31749500D01*
X20968913Y31778342D01*
X21105495Y31834916D01*
X21228416Y31917049D01*
X21332951Y32021584D01*
X21415084Y32144505D01*
X21471658Y32281087D01*
X21500500Y32426082D01*
X21500500Y32573918D01*
X21483539Y32659186D01*
X21490731Y32719947D01*
X21532263Y32764877D01*
X21580637Y32777500D01*
X23340500Y32777500D01*
X23398691Y32758593D01*
X23434655Y32709093D01*
X23439500Y32678500D01*
X23439500Y29843479D01*
X23439501Y29843477D01*
X23454352Y29749701D01*
X23454354Y29749696D01*
X23511950Y29636658D01*
X23601658Y29546950D01*
X23714696Y29489354D01*
X23808481Y29474500D01*
X24871518Y29474501D01*
X24871521Y29474501D01*
X24871522Y29474502D01*
X24947012Y29486457D01*
X24965299Y29489353D01*
X24965299Y29489354D01*
X24965304Y29489354D01*
X25078342Y29546950D01*
X25168050Y29636658D01*
X25225646Y29749696D01*
X25240500Y29843481D01*
X25240499Y32678501D01*
X25259406Y32736691D01*
X25308906Y32772655D01*
X25339499Y32777500D01*
X25880500Y32777500D01*
X25938691Y32758593D01*
X25974655Y32709093D01*
X25979500Y32678500D01*
X25979500Y29843479D01*
X25979501Y29843477D01*
X25994352Y29749701D01*
X25994354Y29749696D01*
X26051950Y29636658D01*
X26141658Y29546950D01*
X26254696Y29489354D01*
X26348481Y29474500D01*
X27411518Y29474501D01*
X27411521Y29474501D01*
X27411522Y29474502D01*
X27487012Y29486457D01*
X27505299Y29489353D01*
X27505299Y29489354D01*
X27505304Y29489354D01*
X27618342Y29546950D01*
X27708050Y29636658D01*
X27765646Y29749696D01*
X27780500Y29843481D01*
X27780499Y32678501D01*
X27799406Y32736691D01*
X27848906Y32772655D01*
X27879499Y32777500D01*
X28455765Y32777500D01*
X28455766Y32777500D01*
X28495377Y32788114D01*
X28556477Y32784913D01*
X28604028Y32746409D01*
X28620000Y32692488D01*
X28620000Y31600001D01*
X28620001Y31600000D01*
X29269999Y31600000D01*
X29270000Y31600001D01*
X29270000Y33324999D01*
X29570000Y33324999D01*
X29570000Y31600001D01*
X29570001Y31600000D01*
X30219998Y31600000D01*
X30219999Y31600001D01*
X30219999Y33069790D01*
X30219998Y33069792D01*
X30217090Y33094875D01*
X30171786Y33197478D01*
X30092477Y33276787D01*
X29989872Y33322091D01*
X29964797Y33325000D01*
X29570001Y33325000D01*
X29570000Y33324999D01*
X29270000Y33324999D01*
X29270000Y33332071D01*
X29249569Y33372170D01*
X29259140Y33432602D01*
X29277341Y33457654D01*
X29540192Y33720504D01*
X29594708Y33748281D01*
X29610195Y33749500D01*
X32648125Y33749500D01*
X32655722Y33747032D01*
G37*
%TD.AperFunction*%
%TA.AperFunction,Conductor*%
G36*
X12194910Y46050183D02*
G01*
X12228836Y46027995D01*
X13073504Y45183327D01*
X13077130Y45176210D01*
X13083593Y45171514D01*
X13090756Y45149466D01*
X13101281Y45128810D01*
X13102500Y45113323D01*
X13102500Y45106822D01*
X13083593Y45048631D01*
X13034093Y45012667D01*
X12972907Y45012667D01*
X12933497Y45036818D01*
X12794814Y45175500D01*
X12794809Y45175504D01*
X12680689Y45241391D01*
X12680691Y45241391D01*
X12631299Y45254625D01*
X12553392Y45275500D01*
X12553390Y45275500D01*
X12271494Y45275500D01*
X12213303Y45294407D01*
X12191840Y45315710D01*
X12143589Y45381089D01*
X12031289Y45463969D01*
X12031285Y45463971D01*
X11899553Y45510066D01*
X11899544Y45510068D01*
X11868282Y45513000D01*
X11868272Y45513000D01*
X11631728Y45513000D01*
X11631717Y45513000D01*
X11600455Y45510068D01*
X11600446Y45510066D01*
X11468714Y45463971D01*
X11468705Y45463966D01*
X11433286Y45437826D01*
X11418072Y45432757D01*
X11405093Y45423327D01*
X11389770Y45423327D01*
X11375238Y45418485D01*
X11359949Y45423327D01*
X11343907Y45423327D01*
X11331510Y45432334D01*
X11316908Y45436958D01*
X11307384Y45449863D01*
X11294407Y45459291D01*
X11289672Y45473862D01*
X11280576Y45486188D01*
X11275500Y45517482D01*
X11275500Y45658821D01*
X11294407Y45717012D01*
X11343907Y45752976D01*
X11393816Y45755918D01*
X11426073Y45749501D01*
X11426080Y45749501D01*
X11426082Y45749500D01*
X11426083Y45749500D01*
X11573917Y45749500D01*
X11573918Y45749500D01*
X11718913Y45778342D01*
X11855495Y45834916D01*
X11978416Y45917049D01*
X12082951Y46021584D01*
X12082953Y46021588D01*
X12086390Y46025024D01*
X12087374Y46024040D01*
X12133831Y46053782D01*
X12194910Y46050183D01*
G37*
%TD.AperFunction*%
%TA.AperFunction,Conductor*%
G36*
X9456370Y45726353D02*
G01*
X9483525Y45725796D01*
X9486502Y45723538D01*
X9490227Y45723190D01*
X9510634Y45705239D01*
X9532278Y45688826D01*
X9536158Y45682787D01*
X9536168Y45682778D01*
X9566874Y45630857D01*
X9567066Y45630665D01*
X9570357Y45625115D01*
X9575779Y45600982D01*
X9584152Y45577706D01*
X9582379Y45571612D01*
X9583771Y45565419D01*
X9573973Y45542708D01*
X9567065Y45518955D01*
X9562048Y45515066D01*
X9559534Y45509238D01*
X9521255Y45483444D01*
X9518708Y45481468D01*
X9518306Y45481456D01*
X9517899Y45481181D01*
X9468712Y45463970D01*
X9468710Y45463969D01*
X9424828Y45431584D01*
X9424803Y45431564D01*
X9356411Y45381089D01*
X9348058Y45369773D01*
X9348055Y45369769D01*
X9329656Y45344837D01*
X9279889Y45309244D01*
X9218705Y45309700D01*
X9170344Y45344837D01*
X9144344Y45380067D01*
X9125003Y45438115D01*
X9125000Y45438854D01*
X9125000Y45448849D01*
X9143907Y45507040D01*
X9187683Y45540947D01*
X9215910Y45552078D01*
X9215912Y45552080D01*
X9333639Y45641355D01*
X9333645Y45641361D01*
X9372127Y45692107D01*
X9375196Y45694243D01*
X9376677Y45697675D01*
X9400052Y45711535D01*
X9422353Y45727049D01*
X9426089Y45726973D01*
X9429307Y45728880D01*
X9456370Y45726353D01*
G37*
%TD.AperFunction*%
%TA.AperFunction,Conductor*%
G36*
X7758445Y46168534D02*
G01*
X7801710Y46125269D01*
X7812500Y46080324D01*
X7812500Y45982918D01*
X7822873Y45896542D01*
X7877076Y45759092D01*
X7877079Y45759088D01*
X7966354Y45641361D01*
X7966360Y45641355D01*
X8084087Y45552080D01*
X8084091Y45552077D01*
X8174062Y45516597D01*
X8221259Y45477661D01*
X8236556Y45418418D01*
X8214110Y45361499D01*
X8162494Y45328644D01*
X8137743Y45325500D01*
X7788148Y45325500D01*
X7732922Y45343444D01*
X7732459Y45342749D01*
X7729997Y45344394D01*
X7729957Y45344407D01*
X7729825Y45344509D01*
X7728417Y45345450D01*
X7728416Y45345451D01*
X7605495Y45427584D01*
X7605493Y45427585D01*
X7468914Y45484158D01*
X7323918Y45513000D01*
X7245176Y45513000D01*
X7186985Y45531907D01*
X7151021Y45581407D01*
X7151021Y45642593D01*
X7175172Y45682004D01*
X7252260Y45759092D01*
X7643498Y46150330D01*
X7698013Y46178105D01*
X7758445Y46168534D01*
G37*
%TD.AperFunction*%
%TA.AperFunction,Conductor*%
G36*
X74002421Y52499381D02*
G01*
X74031158Y52497970D01*
X74338173Y52482887D01*
X74347815Y52481937D01*
X74677915Y52432971D01*
X74687421Y52431081D01*
X75011144Y52349992D01*
X75020415Y52347180D01*
X75334625Y52234754D01*
X75343594Y52231039D01*
X75645263Y52088360D01*
X75653826Y52083782D01*
X75940049Y51912227D01*
X75948127Y51906829D01*
X76216150Y51708049D01*
X76223660Y51701886D01*
X76470921Y51477782D01*
X76477781Y51470922D01*
X76603484Y51332230D01*
X76701885Y51223661D01*
X76708048Y51216151D01*
X76906828Y50948128D01*
X76912226Y50940050D01*
X77083781Y50653827D01*
X77088361Y50645259D01*
X77231036Y50343598D01*
X77234754Y50334622D01*
X77347175Y50020429D01*
X77349995Y50011132D01*
X77431077Y49687433D01*
X77432972Y49677904D01*
X77481934Y49347830D01*
X77482887Y49338162D01*
X77499381Y49002423D01*
X77499500Y48997565D01*
X77499500Y4002436D01*
X77499381Y3997578D01*
X77482887Y3661839D01*
X77481934Y3652171D01*
X77432972Y3322097D01*
X77431077Y3312568D01*
X77349995Y2988869D01*
X77347175Y2979572D01*
X77234754Y2665379D01*
X77231036Y2656403D01*
X77088361Y2354742D01*
X77083781Y2346174D01*
X76912226Y2059951D01*
X76906828Y2051873D01*
X76708048Y1783850D01*
X76701885Y1776340D01*
X76477786Y1529084D01*
X76470916Y1522214D01*
X76223660Y1298115D01*
X76216150Y1291952D01*
X75948127Y1093172D01*
X75940049Y1087774D01*
X75653826Y916219D01*
X75645258Y911639D01*
X75343597Y768964D01*
X75334621Y765246D01*
X75020428Y652825D01*
X75011131Y650005D01*
X74687432Y568923D01*
X74677903Y567028D01*
X74347829Y518066D01*
X74338161Y517113D01*
X74002422Y500619D01*
X73997564Y500500D01*
X4002436Y500500D01*
X3997578Y500619D01*
X3661838Y517113D01*
X3652170Y518066D01*
X3322096Y567028D01*
X3312567Y568923D01*
X2988868Y650005D01*
X2979571Y652825D01*
X2665378Y765246D01*
X2656402Y768964D01*
X2354741Y911639D01*
X2346173Y916219D01*
X2059950Y1087774D01*
X2051872Y1093172D01*
X1783849Y1291952D01*
X1776339Y1298115D01*
X1529083Y1522214D01*
X1522218Y1529079D01*
X1298114Y1776340D01*
X1291951Y1783850D01*
X1093171Y2051873D01*
X1087773Y2059951D01*
X974161Y2249501D01*
X916216Y2346177D01*
X911638Y2354742D01*
X774589Y2644507D01*
X768961Y2656406D01*
X765245Y2665379D01*
X652820Y2979585D01*
X650008Y2988856D01*
X568919Y3312579D01*
X567029Y3322085D01*
X518063Y3652185D01*
X517113Y3661827D01*
X500619Y3997579D01*
X500500Y4002436D01*
X500500Y4125966D01*
X8149500Y4125966D01*
X8149500Y3874035D01*
X8188908Y3625220D01*
X8266759Y3385621D01*
X8351699Y3218915D01*
X8381130Y3161155D01*
X8529207Y2957344D01*
X8707344Y2779207D01*
X8911155Y2631130D01*
X9135621Y2516759D01*
X9375215Y2438910D01*
X9375216Y2438910D01*
X9375219Y2438909D01*
X9624035Y2399500D01*
X9624038Y2399500D01*
X9875965Y2399500D01*
X10124780Y2438909D01*
X10124781Y2438910D01*
X10124785Y2438910D01*
X10364379Y2516759D01*
X10588845Y2631130D01*
X10792656Y2779207D01*
X10970793Y2957344D01*
X11055489Y3073919D01*
X55249500Y3073919D01*
X55249500Y2926082D01*
X55278342Y2781086D01*
X55326270Y2665379D01*
X55334916Y2644505D01*
X55417049Y2521584D01*
X55521584Y2417049D01*
X55644505Y2334916D01*
X55781087Y2278342D01*
X55926082Y2249500D01*
X55926083Y2249500D01*
X56073917Y2249500D01*
X56073918Y2249500D01*
X56218913Y2278342D01*
X56355495Y2334916D01*
X56478416Y2417049D01*
X56582951Y2521584D01*
X56665084Y2644505D01*
X56721658Y2781087D01*
X56750500Y2926082D01*
X56750500Y3073918D01*
X56721658Y3218913D01*
X56665084Y3355495D01*
X56582951Y3478416D01*
X56478416Y3582951D01*
X56355495Y3665084D01*
X56355493Y3665085D01*
X56218914Y3721658D01*
X56073918Y3750500D01*
X55926082Y3750500D01*
X55926081Y3750500D01*
X55781085Y3721658D01*
X55644506Y3665085D01*
X55521585Y3582952D01*
X55417048Y3478415D01*
X55334915Y3355494D01*
X55278342Y3218915D01*
X55249500Y3073919D01*
X11055489Y3073919D01*
X11118870Y3161155D01*
X11233241Y3385621D01*
X11311090Y3625215D01*
X11311091Y3625220D01*
X11350500Y3874035D01*
X11350500Y4125966D01*
X11311091Y4374781D01*
X11311090Y4374785D01*
X11233241Y4614379D01*
X11118870Y4838845D01*
X10970793Y5042656D01*
X10792656Y5220793D01*
X10588845Y5368870D01*
X10588844Y5368871D01*
X10588842Y5368872D01*
X10364379Y5483241D01*
X10124780Y5561092D01*
X9942253Y5590001D01*
X9875965Y5600500D01*
X9875962Y5600500D01*
X9624038Y5600500D01*
X9624035Y5600500D01*
X9375219Y5561092D01*
X9135620Y5483241D01*
X8911157Y5368872D01*
X8707345Y5220794D01*
X8529206Y5042655D01*
X8381128Y4838843D01*
X8266759Y4614380D01*
X8188908Y4374781D01*
X8149500Y4125966D01*
X500500Y4125966D01*
X500500Y5681293D01*
X28530500Y5681293D01*
X28530500Y5528707D01*
X28538615Y5498421D01*
X28569993Y5381318D01*
X28646281Y5249184D01*
X28646283Y5249182D01*
X28646285Y5249179D01*
X28754179Y5141285D01*
X28754181Y5141284D01*
X28754183Y5141282D01*
X28886318Y5064994D01*
X28886319Y5064994D01*
X28886322Y5064992D01*
X29033707Y5025500D01*
X29033708Y5025500D01*
X29186292Y5025500D01*
X29186293Y5025500D01*
X29333678Y5064992D01*
X29333680Y5064994D01*
X29333682Y5064994D01*
X29465816Y5141282D01*
X29465816Y5141283D01*
X29465821Y5141285D01*
X29573715Y5249179D01*
X29650008Y5381322D01*
X29689500Y5528707D01*
X29689500Y5681293D01*
X34310500Y5681293D01*
X34310500Y5528707D01*
X34318615Y5498421D01*
X34349993Y5381318D01*
X34426281Y5249184D01*
X34426283Y5249182D01*
X34426285Y5249179D01*
X34534179Y5141285D01*
X34534181Y5141284D01*
X34534183Y5141282D01*
X34666318Y5064994D01*
X34666319Y5064994D01*
X34666322Y5064992D01*
X34813707Y5025500D01*
X34813708Y5025500D01*
X34966292Y5025500D01*
X34966293Y5025500D01*
X35113678Y5064992D01*
X35113680Y5064994D01*
X35113682Y5064994D01*
X35245816Y5141282D01*
X35245816Y5141283D01*
X35245821Y5141285D01*
X35353715Y5249179D01*
X35430008Y5381322D01*
X35461385Y5498421D01*
X41749500Y5498421D01*
X41749500Y5001580D01*
X41780289Y4807179D01*
X41841116Y4619975D01*
X41928872Y4447742D01*
X41930476Y4444595D01*
X42046172Y4285354D01*
X42185354Y4146172D01*
X42344595Y4030476D01*
X42519975Y3941116D01*
X42707174Y3880291D01*
X42707175Y3880291D01*
X42707178Y3880290D01*
X42901580Y3849500D01*
X42901583Y3849500D01*
X43098420Y3849500D01*
X43292821Y3880290D01*
X43292822Y3880291D01*
X43292826Y3880291D01*
X43480025Y3941116D01*
X43655405Y4030476D01*
X43814646Y4146172D01*
X43953828Y4285354D01*
X44069524Y4444595D01*
X44069525Y4444598D01*
X44071810Y4447742D01*
X44072779Y4447038D01*
X44115604Y4483629D01*
X44176600Y4488443D01*
X44228776Y4456484D01*
X44251208Y4402359D01*
X44251493Y4402410D01*
X44251734Y4401090D01*
X44252202Y4399961D01*
X44252203Y4399949D01*
X44252400Y4397442D01*
X44252401Y4397434D01*
X44252402Y4397431D01*
X44298256Y4239602D01*
X44381919Y4098135D01*
X44498135Y3981919D01*
X44639602Y3898256D01*
X44797431Y3852402D01*
X44834306Y3849500D01*
X44834311Y3849500D01*
X46165689Y3849500D01*
X46165694Y3849500D01*
X46202569Y3852402D01*
X46360398Y3898256D01*
X46501865Y3981919D01*
X46618081Y4098135D01*
X46701744Y4239602D01*
X46747598Y4397431D01*
X46750500Y4434306D01*
X46750500Y4573919D01*
X52999500Y4573919D01*
X52999500Y4426082D01*
X53028342Y4281086D01*
X53084915Y4144507D01*
X53084916Y4144505D01*
X53167049Y4021584D01*
X53271584Y3917049D01*
X53394505Y3834916D01*
X53531087Y3778342D01*
X53676082Y3749500D01*
X53676083Y3749500D01*
X53823917Y3749500D01*
X53823918Y3749500D01*
X53968913Y3778342D01*
X54105495Y3834916D01*
X54228416Y3917049D01*
X54332951Y4021584D01*
X54415084Y4144505D01*
X54471658Y4281087D01*
X54500500Y4426082D01*
X54500500Y4573918D01*
X54500500Y4573919D01*
X57499500Y4573919D01*
X57499500Y4426082D01*
X57528342Y4281086D01*
X57584915Y4144507D01*
X57584916Y4144505D01*
X57667049Y4021584D01*
X57771584Y3917049D01*
X57894505Y3834916D01*
X58031087Y3778342D01*
X58176082Y3749500D01*
X58176083Y3749500D01*
X58323917Y3749500D01*
X58323918Y3749500D01*
X58468913Y3778342D01*
X58605495Y3834916D01*
X58728416Y3917049D01*
X58832951Y4021584D01*
X58902697Y4125966D01*
X66649500Y4125966D01*
X66649500Y3874035D01*
X66688908Y3625220D01*
X66766759Y3385621D01*
X66851699Y3218915D01*
X66881130Y3161155D01*
X67029207Y2957344D01*
X67207344Y2779207D01*
X67411155Y2631130D01*
X67635621Y2516759D01*
X67875215Y2438910D01*
X67875216Y2438910D01*
X67875219Y2438909D01*
X68124035Y2399500D01*
X68124038Y2399500D01*
X68375965Y2399500D01*
X68624780Y2438909D01*
X68624781Y2438910D01*
X68624785Y2438910D01*
X68864379Y2516759D01*
X69088845Y2631130D01*
X69292656Y2779207D01*
X69470793Y2957344D01*
X69618870Y3161155D01*
X69733241Y3385621D01*
X69811090Y3625215D01*
X69811091Y3625220D01*
X69850500Y3874035D01*
X69850500Y4125966D01*
X69811091Y4374781D01*
X69811090Y4374785D01*
X69733241Y4614379D01*
X69618870Y4838845D01*
X69470793Y5042656D01*
X69292656Y5220793D01*
X69088845Y5368870D01*
X69088844Y5368871D01*
X69088842Y5368872D01*
X68864379Y5483241D01*
X68624780Y5561092D01*
X68375965Y5600500D01*
X68375962Y5600500D01*
X68124038Y5600500D01*
X68124035Y5600500D01*
X67875219Y5561092D01*
X67635620Y5483241D01*
X67411157Y5368872D01*
X67207345Y5220794D01*
X67029206Y5042655D01*
X66881128Y4838843D01*
X66766759Y4614380D01*
X66688908Y4374781D01*
X66649500Y4125966D01*
X58902697Y4125966D01*
X58915084Y4144505D01*
X58971658Y4281087D01*
X59000500Y4426082D01*
X59000500Y4573918D01*
X58971658Y4718913D01*
X58915084Y4855495D01*
X58832951Y4978416D01*
X58728416Y5082951D01*
X58605495Y5165084D01*
X58605493Y5165085D01*
X58468914Y5221658D01*
X58323918Y5250500D01*
X58176082Y5250500D01*
X58176081Y5250500D01*
X58031085Y5221658D01*
X57894506Y5165085D01*
X57771585Y5082952D01*
X57667048Y4978415D01*
X57584915Y4855494D01*
X57528342Y4718915D01*
X57499500Y4573919D01*
X54500500Y4573919D01*
X54471658Y4718913D01*
X54415084Y4855495D01*
X54332951Y4978416D01*
X54228416Y5082951D01*
X54105495Y5165084D01*
X54105493Y5165085D01*
X53968914Y5221658D01*
X53823918Y5250500D01*
X53676082Y5250500D01*
X53676081Y5250500D01*
X53531085Y5221658D01*
X53394506Y5165085D01*
X53271585Y5082952D01*
X53167048Y4978415D01*
X53084915Y4855494D01*
X53028342Y4718915D01*
X52999500Y4573919D01*
X46750500Y4573919D01*
X46750500Y6065694D01*
X46747598Y6102569D01*
X46701744Y6260398D01*
X46618081Y6401865D01*
X46501865Y6518081D01*
X46407448Y6573919D01*
X49749500Y6573919D01*
X49749500Y6426082D01*
X49778342Y6281086D01*
X49834708Y6145007D01*
X49834916Y6144505D01*
X49917049Y6021584D01*
X50021584Y5917049D01*
X50144505Y5834916D01*
X50281087Y5778342D01*
X50426082Y5749500D01*
X50426083Y5749500D01*
X50573917Y5749500D01*
X50573918Y5749500D01*
X50593886Y5753472D01*
X50647779Y5764192D01*
X50708540Y5757002D01*
X50753470Y5715470D01*
X50765408Y5655460D01*
X50764192Y5647781D01*
X50749500Y5573921D01*
X50749500Y5426082D01*
X50778342Y5281086D01*
X50826392Y5165084D01*
X50834916Y5144505D01*
X50917049Y5021584D01*
X51021584Y4917049D01*
X51144505Y4834916D01*
X51281087Y4778342D01*
X51426082Y4749500D01*
X51426083Y4749500D01*
X51573917Y4749500D01*
X51573918Y4749500D01*
X51718913Y4778342D01*
X51855495Y4834916D01*
X51978416Y4917049D01*
X52082951Y5021584D01*
X52165084Y5144505D01*
X52221658Y5281087D01*
X52250500Y5426082D01*
X52250500Y5573918D01*
X52250500Y5573919D01*
X59749500Y5573919D01*
X59749500Y5426082D01*
X59778342Y5281086D01*
X59826392Y5165084D01*
X59834916Y5144505D01*
X59917049Y5021584D01*
X60021584Y4917049D01*
X60144505Y4834916D01*
X60281087Y4778342D01*
X60426082Y4749500D01*
X60426083Y4749500D01*
X60573917Y4749500D01*
X60573918Y4749500D01*
X60718913Y4778342D01*
X60855495Y4834916D01*
X60978416Y4917049D01*
X61082951Y5021584D01*
X61165084Y5144505D01*
X61221658Y5281087D01*
X61250500Y5426082D01*
X61250500Y5573918D01*
X61235807Y5647782D01*
X61242998Y5708541D01*
X61284531Y5753472D01*
X61344540Y5765409D01*
X61352205Y5764196D01*
X61426082Y5749500D01*
X61426083Y5749500D01*
X61573917Y5749500D01*
X61573918Y5749500D01*
X61718913Y5778342D01*
X61855495Y5834916D01*
X61978416Y5917049D01*
X62082951Y6021584D01*
X62165084Y6144505D01*
X62221658Y6281087D01*
X62250500Y6426082D01*
X62250500Y6573918D01*
X62221658Y6718913D01*
X62165084Y6855495D01*
X62082951Y6978416D01*
X61978416Y7082951D01*
X61855495Y7165084D01*
X61855493Y7165085D01*
X61718914Y7221658D01*
X61573918Y7250500D01*
X61426082Y7250500D01*
X61426081Y7250500D01*
X61281085Y7221658D01*
X61144506Y7165085D01*
X61021585Y7082952D01*
X60917048Y6978415D01*
X60834915Y6855494D01*
X60778342Y6718915D01*
X60749500Y6573919D01*
X60749500Y6426080D01*
X60764192Y6352220D01*
X60757000Y6291459D01*
X60715468Y6246529D01*
X60655458Y6234592D01*
X60647780Y6235808D01*
X60573920Y6250500D01*
X60573918Y6250500D01*
X60426082Y6250500D01*
X60426081Y6250500D01*
X60281085Y6221658D01*
X60144506Y6165085D01*
X60021585Y6082952D01*
X59917048Y5978415D01*
X59834915Y5855494D01*
X59778342Y5718915D01*
X59749500Y5573919D01*
X52250500Y5573919D01*
X52221658Y5718913D01*
X52165084Y5855495D01*
X52082951Y5978416D01*
X51978416Y6082951D01*
X51855495Y6165084D01*
X51855493Y6165085D01*
X51718914Y6221658D01*
X51573918Y6250500D01*
X51426082Y6250500D01*
X51426079Y6250500D01*
X51352219Y6235808D01*
X51291458Y6243000D01*
X51246528Y6284533D01*
X51234591Y6344542D01*
X51235808Y6352221D01*
X51250498Y6426072D01*
X51250497Y6426072D01*
X51250500Y6426082D01*
X51250500Y6573918D01*
X51221658Y6718913D01*
X51165084Y6855495D01*
X51082951Y6978416D01*
X50978416Y7082951D01*
X50855495Y7165084D01*
X50855493Y7165085D01*
X50718914Y7221658D01*
X50573918Y7250500D01*
X50426082Y7250500D01*
X50426081Y7250500D01*
X50281085Y7221658D01*
X50144506Y7165085D01*
X50021585Y7082952D01*
X49917048Y6978415D01*
X49834915Y6855494D01*
X49778342Y6718915D01*
X49749500Y6573919D01*
X46407448Y6573919D01*
X46360398Y6601744D01*
X46202569Y6647598D01*
X46202568Y6647599D01*
X46202565Y6647599D01*
X46179140Y6649442D01*
X46165694Y6650500D01*
X44834306Y6650500D01*
X44821773Y6649514D01*
X44797434Y6647599D01*
X44797427Y6647597D01*
X44639602Y6601744D01*
X44498136Y6518082D01*
X44381918Y6401864D01*
X44298256Y6260398D01*
X44252403Y6102573D01*
X44252400Y6102559D01*
X44252203Y6100051D01*
X44251737Y6098927D01*
X44251493Y6097590D01*
X44251205Y6097643D01*
X44228783Y6043525D01*
X44176611Y6011561D01*
X44115615Y6016368D01*
X44072775Y6052960D01*
X44071810Y6052258D01*
X44062052Y6065689D01*
X43953828Y6214646D01*
X43814646Y6353828D01*
X43655405Y6469524D01*
X43655404Y6469525D01*
X43655402Y6469526D01*
X43480025Y6558884D01*
X43292821Y6619711D01*
X43098420Y6650500D01*
X43098417Y6650500D01*
X42901583Y6650500D01*
X42901580Y6650500D01*
X42707178Y6619711D01*
X42519974Y6558884D01*
X42344597Y6469526D01*
X42185355Y6353829D01*
X42046171Y6214645D01*
X41930474Y6055403D01*
X41841116Y5880026D01*
X41780289Y5692822D01*
X41749500Y5498421D01*
X35461385Y5498421D01*
X35469500Y5528707D01*
X35469500Y5681293D01*
X35430008Y5828678D01*
X35430006Y5828681D01*
X35430006Y5828683D01*
X35353718Y5960817D01*
X35353716Y5960819D01*
X35353715Y5960821D01*
X35245821Y6068715D01*
X35245818Y6068717D01*
X35245816Y6068719D01*
X35113681Y6145007D01*
X35113682Y6145007D01*
X35038750Y6165085D01*
X34966293Y6184500D01*
X34813707Y6184500D01*
X34748720Y6167087D01*
X34666317Y6145007D01*
X34534183Y6068719D01*
X34426281Y5960817D01*
X34349993Y5828683D01*
X34336504Y5778342D01*
X34310500Y5681293D01*
X29689500Y5681293D01*
X29650008Y5828678D01*
X29650006Y5828681D01*
X29650006Y5828683D01*
X29573718Y5960817D01*
X29573716Y5960819D01*
X29573715Y5960821D01*
X29465821Y6068715D01*
X29465818Y6068717D01*
X29465816Y6068719D01*
X29333681Y6145007D01*
X29333682Y6145007D01*
X29258750Y6165085D01*
X29186293Y6184500D01*
X29033707Y6184500D01*
X28968720Y6167087D01*
X28886317Y6145007D01*
X28754183Y6068719D01*
X28646281Y5960817D01*
X28569993Y5828683D01*
X28556504Y5778342D01*
X28530500Y5681293D01*
X500500Y5681293D01*
X500500Y10073919D01*
X14999500Y10073919D01*
X14999500Y9926082D01*
X15028342Y9781086D01*
X15050159Y9728416D01*
X15084916Y9644505D01*
X15167049Y9521584D01*
X15271584Y9417049D01*
X15394505Y9334916D01*
X15531087Y9278342D01*
X15676082Y9249500D01*
X15676083Y9249500D01*
X15823917Y9249500D01*
X15823918Y9249500D01*
X15968913Y9278342D01*
X16105495Y9334916D01*
X16228416Y9417049D01*
X16231872Y9420506D01*
X16286387Y9448281D01*
X16301874Y9449500D01*
X18072474Y9449500D01*
X18072475Y9449500D01*
X18212485Y9487016D01*
X18338015Y9559490D01*
X21102443Y12323919D01*
X24999500Y12323919D01*
X24999500Y12323918D01*
X24999500Y12176082D01*
X25028342Y12031087D01*
X25084916Y11894505D01*
X25167049Y11771584D01*
X25271584Y11667049D01*
X25394505Y11584916D01*
X25531087Y11528342D01*
X25676082Y11499500D01*
X25676083Y11499500D01*
X25823917Y11499500D01*
X25823918Y11499500D01*
X25968913Y11528342D01*
X26105495Y11584916D01*
X26228416Y11667049D01*
X26332951Y11771584D01*
X26415084Y11894505D01*
X26471658Y12031087D01*
X26500500Y12176082D01*
X26500500Y12323918D01*
X26471658Y12468913D01*
X26415084Y12605495D01*
X26332951Y12728416D01*
X26228416Y12832951D01*
X26105495Y12915084D01*
X26105493Y12915085D01*
X25968914Y12971658D01*
X25823918Y13000500D01*
X25676082Y13000500D01*
X25676081Y13000500D01*
X25531085Y12971658D01*
X25394506Y12915085D01*
X25271585Y12832952D01*
X25167048Y12728415D01*
X25084915Y12605494D01*
X25028342Y12468915D01*
X24999500Y12323919D01*
X21102443Y12323919D01*
X22702028Y13923505D01*
X22756545Y13951281D01*
X22772032Y13952500D01*
X30477967Y13952500D01*
X30536158Y13933593D01*
X30547971Y13923504D01*
X31751971Y12719504D01*
X31779748Y12664987D01*
X31770177Y12604555D01*
X31726912Y12561290D01*
X31681967Y12550500D01*
X31645073Y12550500D01*
X31505063Y12512984D01*
X31379533Y12440510D01*
X28768519Y9829496D01*
X28714002Y9801719D01*
X28698515Y9800500D01*
X23927525Y9800500D01*
X23787515Y9762984D01*
X23661985Y9690510D01*
X22550971Y8579496D01*
X22496454Y8551719D01*
X22480967Y8550500D01*
X21801874Y8550500D01*
X21743683Y8569407D01*
X21731876Y8579491D01*
X21728416Y8582951D01*
X21605495Y8665084D01*
X21592410Y8670504D01*
X21468914Y8721658D01*
X21323918Y8750500D01*
X21176082Y8750500D01*
X21176081Y8750500D01*
X21031085Y8721658D01*
X20894506Y8665085D01*
X20771585Y8582952D01*
X20667048Y8478415D01*
X20584915Y8355494D01*
X20528342Y8218915D01*
X20528342Y8218913D01*
X20499500Y8073918D01*
X20499500Y7926082D01*
X20528342Y7781087D01*
X20584916Y7644505D01*
X20667049Y7521584D01*
X20771584Y7417049D01*
X20894505Y7334916D01*
X21031087Y7278342D01*
X21176082Y7249500D01*
X21176083Y7249500D01*
X21323917Y7249500D01*
X21323918Y7249500D01*
X21468913Y7278342D01*
X21605495Y7334916D01*
X21728416Y7417049D01*
X21731872Y7420506D01*
X21786387Y7448281D01*
X21801874Y7449500D01*
X22822474Y7449500D01*
X22822475Y7449500D01*
X22962485Y7487016D01*
X23088015Y7559490D01*
X24199029Y8670504D01*
X24253546Y8698281D01*
X24269033Y8699500D01*
X29040022Y8699500D01*
X29040023Y8699500D01*
X29180033Y8737016D01*
X29203388Y8750500D01*
X29305563Y8809490D01*
X30072456Y9576383D01*
X37974500Y9576383D01*
X37974500Y9423618D01*
X37975807Y9417049D01*
X38003397Y9278343D01*
X38004302Y9273796D01*
X38004302Y9273794D01*
X38062759Y9132666D01*
X38062759Y9132665D01*
X38105049Y9069374D01*
X38147630Y9005648D01*
X38255648Y8897630D01*
X38382663Y8812761D01*
X38523795Y8754302D01*
X38673620Y8724500D01*
X38673621Y8724500D01*
X44701379Y8724500D01*
X44701380Y8724500D01*
X44851205Y8754302D01*
X44992337Y8812761D01*
X45119352Y8897630D01*
X46167226Y9945504D01*
X46221743Y9973281D01*
X46237230Y9974500D01*
X52826379Y9974500D01*
X52826380Y9974500D01*
X52976205Y10004302D01*
X53117337Y10062761D01*
X53244352Y10147630D01*
X53670641Y10573919D01*
X54249500Y10573919D01*
X54249500Y10426082D01*
X54278342Y10281086D01*
X54334915Y10144507D01*
X54334916Y10144505D01*
X54417049Y10021584D01*
X54521584Y9917049D01*
X54644505Y9834916D01*
X54781087Y9778342D01*
X54926082Y9749500D01*
X54926083Y9749500D01*
X55073917Y9749500D01*
X55073918Y9749500D01*
X55218913Y9778342D01*
X55237483Y9786035D01*
X55298477Y9790835D01*
X55350646Y9758866D01*
X55374062Y9702339D01*
X55359779Y9642844D01*
X55357683Y9639569D01*
X55334914Y9605494D01*
X55278342Y9468915D01*
X55249500Y9323919D01*
X55249500Y9176082D01*
X55278342Y9031086D01*
X55334915Y8894507D01*
X55334916Y8894505D01*
X55417049Y8771584D01*
X55521584Y8667049D01*
X55644505Y8584916D01*
X55781087Y8528342D01*
X55926082Y8499500D01*
X55926083Y8499500D01*
X56073917Y8499500D01*
X56073918Y8499500D01*
X56218913Y8528342D01*
X56355495Y8584916D01*
X56478416Y8667049D01*
X56582951Y8771584D01*
X56665084Y8894505D01*
X56721658Y9031087D01*
X56750500Y9176082D01*
X56750500Y9323918D01*
X56721658Y9468913D01*
X56665084Y9605495D01*
X56582951Y9728416D01*
X56478416Y9832951D01*
X56355495Y9915084D01*
X56350751Y9917049D01*
X56218914Y9971658D01*
X56073918Y10000500D01*
X55926082Y10000500D01*
X55926081Y10000500D01*
X55781085Y9971658D01*
X55781081Y9971657D01*
X55762514Y9963966D01*
X55701517Y9959167D01*
X55649349Y9991138D01*
X55625937Y10047667D01*
X55640223Y10107162D01*
X55642305Y10110415D01*
X55665084Y10144505D01*
X55721658Y10281087D01*
X55750500Y10426082D01*
X55750500Y10573918D01*
X55721658Y10718913D01*
X55665084Y10855495D01*
X55582951Y10978416D01*
X55478416Y11082951D01*
X55355495Y11165084D01*
X55355493Y11165085D01*
X55218914Y11221658D01*
X55073918Y11250500D01*
X54926082Y11250500D01*
X54926081Y11250500D01*
X54781085Y11221658D01*
X54644506Y11165085D01*
X54521585Y11082952D01*
X54417048Y10978415D01*
X54334915Y10855494D01*
X54278342Y10718915D01*
X54249500Y10573919D01*
X53670641Y10573919D01*
X55292226Y12195504D01*
X55346743Y12223281D01*
X55362230Y12224500D01*
X59826379Y12224500D01*
X59826380Y12224500D01*
X59976205Y12254302D01*
X60117337Y12312761D01*
X60244352Y12397630D01*
X60352370Y12505648D01*
X60437239Y12632663D01*
X60495698Y12773795D01*
X60525500Y12923620D01*
X60525500Y13076380D01*
X60495698Y13226205D01*
X60437240Y13367335D01*
X60437240Y13367336D01*
X60416094Y13398982D01*
X60352370Y13494352D01*
X60244352Y13602370D01*
X60117337Y13687239D01*
X60117336Y13687240D01*
X60117334Y13687241D01*
X59976205Y13745698D01*
X59826382Y13775500D01*
X59826380Y13775500D01*
X55076381Y13775500D01*
X54923620Y13775500D01*
X54923617Y13775500D01*
X54773795Y13745698D01*
X54773793Y13745698D01*
X54632665Y13687242D01*
X54505648Y13602371D01*
X52457774Y11554496D01*
X52403257Y11526719D01*
X52387770Y11525500D01*
X45798617Y11525500D01*
X45648795Y11495698D01*
X45648793Y11495698D01*
X45507665Y11437241D01*
X45507664Y11437241D01*
X45380648Y11352370D01*
X45380644Y11352367D01*
X44332774Y10304496D01*
X44278257Y10276719D01*
X44262770Y10275500D01*
X38673617Y10275500D01*
X38523795Y10245698D01*
X38523793Y10245698D01*
X38382665Y10187241D01*
X38382664Y10187241D01*
X38255648Y10102370D01*
X38255644Y10102367D01*
X38147633Y9994356D01*
X38147630Y9994352D01*
X38062759Y9867336D01*
X38062759Y9867335D01*
X38004302Y9726207D01*
X38004302Y9726205D01*
X37974500Y9576383D01*
X30072456Y9576383D01*
X31916577Y11420504D01*
X31971094Y11448281D01*
X31986581Y11449500D01*
X38822474Y11449500D01*
X38822475Y11449500D01*
X38962485Y11487016D01*
X38984108Y11499500D01*
X39088015Y11559490D01*
X41749028Y14220505D01*
X41803545Y14248281D01*
X41819032Y14249500D01*
X41823917Y14249500D01*
X41823918Y14249500D01*
X41968913Y14278342D01*
X42105495Y14334916D01*
X42228416Y14417049D01*
X42332951Y14521584D01*
X42415084Y14644505D01*
X42471658Y14781087D01*
X42500500Y14926082D01*
X42500500Y15073918D01*
X42471658Y15218913D01*
X42415084Y15355495D01*
X42332951Y15478416D01*
X42228416Y15582951D01*
X42105495Y15665084D01*
X42105493Y15665085D01*
X41968914Y15721658D01*
X41823918Y15750500D01*
X41676082Y15750500D01*
X41676081Y15750500D01*
X41531085Y15721658D01*
X41394506Y15665085D01*
X41271585Y15582952D01*
X41167048Y15478415D01*
X41084915Y15355494D01*
X41028342Y15218915D01*
X40999500Y15073919D01*
X40999500Y15069033D01*
X40980593Y15010842D01*
X40970504Y14999029D01*
X40469504Y14498029D01*
X40414987Y14470252D01*
X40354555Y14479823D01*
X40311290Y14523088D01*
X40300500Y14568033D01*
X40300500Y17730967D01*
X40319407Y17789158D01*
X40329496Y17800971D01*
X41249029Y18720504D01*
X41303546Y18748281D01*
X41319033Y18749500D01*
X41323917Y18749500D01*
X41323918Y18749500D01*
X41468913Y18778342D01*
X41605495Y18834916D01*
X41728416Y18917049D01*
X41832951Y19021584D01*
X41915084Y19144505D01*
X41971658Y19281087D01*
X42000500Y19426082D01*
X42000500Y19573918D01*
X41971658Y19718913D01*
X41915084Y19855495D01*
X41832951Y19978416D01*
X41728416Y20082951D01*
X41605495Y20165084D01*
X41605493Y20165085D01*
X41468914Y20221658D01*
X41323918Y20250500D01*
X41176082Y20250500D01*
X41176081Y20250500D01*
X41031085Y20221658D01*
X40894506Y20165085D01*
X40771585Y20082952D01*
X40667048Y19978415D01*
X40584915Y19855494D01*
X40528342Y19718915D01*
X40499500Y19573919D01*
X40499500Y19569033D01*
X40480593Y19510842D01*
X40470504Y19499029D01*
X39309488Y18338013D01*
X39292695Y18308925D01*
X39275900Y18279834D01*
X39258755Y18250139D01*
X39237017Y18212488D01*
X39199500Y18072475D01*
X39199500Y14850874D01*
X39180593Y14792683D01*
X39131093Y14756719D01*
X39069907Y14756719D01*
X39030498Y14780869D01*
X38978416Y14832951D01*
X38855495Y14915084D01*
X38855493Y14915085D01*
X38718914Y14971658D01*
X38580185Y14999254D01*
X38526801Y15029152D01*
X38501186Y15084717D01*
X38500500Y15096352D01*
X38500500Y18898126D01*
X38519407Y18956317D01*
X38529490Y18968124D01*
X38582951Y19021584D01*
X38665084Y19144505D01*
X38721658Y19281087D01*
X38750500Y19426082D01*
X38750500Y19573918D01*
X38721658Y19718913D01*
X38665084Y19855495D01*
X38582951Y19978416D01*
X38478416Y20082951D01*
X38355495Y20165084D01*
X38355493Y20165085D01*
X38218914Y20221658D01*
X38159150Y20233546D01*
X38105766Y20263444D01*
X38080151Y20319009D01*
X38092088Y20379019D01*
X38108457Y20400644D01*
X39400500Y21692686D01*
X39415642Y21718913D01*
X39466390Y21806810D01*
X39466390Y21806812D01*
X39466392Y21806814D01*
X39495474Y21915352D01*
X39521094Y21959728D01*
X39582951Y22021584D01*
X39665084Y22144505D01*
X39721658Y22281087D01*
X39750500Y22426082D01*
X39750500Y22573918D01*
X39721658Y22718913D01*
X39665084Y22855495D01*
X39582951Y22978416D01*
X39478416Y23082951D01*
X39355495Y23165084D01*
X39355493Y23165085D01*
X39218914Y23221658D01*
X39073918Y23250500D01*
X38926082Y23250500D01*
X38926081Y23250500D01*
X38781085Y23221658D01*
X38644506Y23165085D01*
X38521585Y23082952D01*
X38417048Y22978415D01*
X38345044Y22870653D01*
X38296994Y22832774D01*
X38235856Y22830372D01*
X38207727Y22843340D01*
X38101850Y22914085D01*
X37965270Y22970658D01*
X37820274Y22999500D01*
X37672438Y22999500D01*
X37672437Y22999500D01*
X37527441Y22970658D01*
X37390862Y22914085D01*
X37267941Y22831952D01*
X37163404Y22727415D01*
X37081271Y22604494D01*
X37024698Y22467915D01*
X36995856Y22322919D01*
X36995856Y22175082D01*
X37024698Y22030086D01*
X37081270Y21893509D01*
X37083032Y21890212D01*
X37093787Y21829979D01*
X37067085Y21774928D01*
X37065725Y21773541D01*
X35817686Y20525500D01*
X35723737Y20431551D01*
X35669220Y20403774D01*
X35608788Y20413345D01*
X35607061Y20414247D01*
X35605492Y20415086D01*
X35468914Y20471658D01*
X35323918Y20500500D01*
X35176082Y20500500D01*
X35176081Y20500500D01*
X35031085Y20471658D01*
X34894506Y20415085D01*
X34771585Y20332952D01*
X34667048Y20228415D01*
X34584915Y20105494D01*
X34528342Y19968915D01*
X34499500Y19823919D01*
X34499500Y19676082D01*
X34528342Y19531086D01*
X34571836Y19426082D01*
X34584916Y19394505D01*
X34667049Y19271584D01*
X34771584Y19167049D01*
X34894505Y19084916D01*
X35031087Y19028342D01*
X35176082Y18999500D01*
X35176083Y18999500D01*
X35323917Y18999500D01*
X35323918Y18999500D01*
X35468913Y19028342D01*
X35487616Y19036090D01*
X35548610Y19040890D01*
X35600779Y19008921D01*
X35624195Y18952394D01*
X35624500Y18944625D01*
X35624500Y14476875D01*
X35605593Y14418684D01*
X35595504Y14406872D01*
X35542050Y14353418D01*
X35459915Y14230494D01*
X35403342Y14093915D01*
X35374500Y13948919D01*
X35374500Y13801082D01*
X35403342Y13656086D01*
X35459915Y13519507D01*
X35459916Y13519505D01*
X35487712Y13477905D01*
X35503350Y13454502D01*
X35519959Y13395614D01*
X35498782Y13338210D01*
X35447908Y13304217D01*
X35421035Y13300500D01*
X32769033Y13300500D01*
X32710842Y13319407D01*
X32699029Y13329496D01*
X31934610Y14093915D01*
X31085015Y14943510D01*
X30959485Y15015984D01*
X30819475Y15053500D01*
X22430525Y15053500D01*
X22368790Y15036959D01*
X22290510Y15015983D01*
X22164988Y14943512D01*
X17800971Y10579496D01*
X17746454Y10551719D01*
X17730967Y10550500D01*
X16301874Y10550500D01*
X16243683Y10569407D01*
X16231876Y10579491D01*
X16228416Y10582951D01*
X16105495Y10665084D01*
X16105493Y10665085D01*
X15968914Y10721658D01*
X15823918Y10750500D01*
X15676082Y10750500D01*
X15676081Y10750500D01*
X15531085Y10721658D01*
X15394506Y10665085D01*
X15271585Y10582952D01*
X15167048Y10478415D01*
X15084915Y10355494D01*
X15028342Y10218915D01*
X14999500Y10073919D01*
X500500Y10073919D01*
X500500Y17323919D01*
X18749500Y17323919D01*
X18749500Y17176082D01*
X18778342Y17031086D01*
X18821836Y16926082D01*
X18834916Y16894505D01*
X18917049Y16771584D01*
X19021584Y16667049D01*
X19144505Y16584916D01*
X19281087Y16528342D01*
X19426082Y16499500D01*
X19426083Y16499500D01*
X19573917Y16499500D01*
X19573918Y16499500D01*
X19718913Y16528342D01*
X19855495Y16584916D01*
X19978416Y16667049D01*
X20082951Y16771584D01*
X20165084Y16894505D01*
X20221658Y17031087D01*
X20230178Y17073919D01*
X21249500Y17073919D01*
X21249500Y16926082D01*
X21278342Y16781086D01*
X21326392Y16665084D01*
X21334916Y16644505D01*
X21417049Y16521584D01*
X21521584Y16417049D01*
X21644505Y16334916D01*
X21781087Y16278342D01*
X21926082Y16249500D01*
X21926083Y16249500D01*
X22073917Y16249500D01*
X22073918Y16249500D01*
X22218913Y16278342D01*
X22355495Y16334916D01*
X22478416Y16417049D01*
X22582951Y16521584D01*
X22665084Y16644505D01*
X22721658Y16781087D01*
X22750500Y16926082D01*
X22750500Y17073918D01*
X22721658Y17218913D01*
X22665084Y17355495D01*
X22582951Y17478416D01*
X22478416Y17582951D01*
X22355495Y17665084D01*
X22355493Y17665085D01*
X22218914Y17721658D01*
X22073918Y17750500D01*
X21926082Y17750500D01*
X21926081Y17750500D01*
X21781085Y17721658D01*
X21644506Y17665085D01*
X21521585Y17582952D01*
X21417048Y17478415D01*
X21334915Y17355494D01*
X21278342Y17218915D01*
X21249500Y17073919D01*
X20230178Y17073919D01*
X20250500Y17176082D01*
X20250500Y17323918D01*
X20221658Y17468913D01*
X20165084Y17605495D01*
X20082951Y17728416D01*
X19978416Y17832951D01*
X19855495Y17915084D01*
X19855493Y17915085D01*
X19718914Y17971658D01*
X19573918Y18000500D01*
X19426082Y18000500D01*
X19426081Y18000500D01*
X19281085Y17971658D01*
X19144506Y17915085D01*
X19021585Y17832952D01*
X18917048Y17728415D01*
X18834915Y17605494D01*
X18778342Y17468915D01*
X18749500Y17323919D01*
X500500Y17323919D01*
X500500Y21573919D01*
X34499500Y21573919D01*
X34499500Y21573918D01*
X34499500Y21426082D01*
X34528342Y21281087D01*
X34584916Y21144505D01*
X34667049Y21021584D01*
X34771584Y20917049D01*
X34894505Y20834916D01*
X35031087Y20778342D01*
X35176082Y20749500D01*
X35176083Y20749500D01*
X35323917Y20749500D01*
X35323918Y20749500D01*
X35468913Y20778342D01*
X35605495Y20834916D01*
X35728416Y20917049D01*
X35832951Y21021584D01*
X35915084Y21144505D01*
X35971658Y21281087D01*
X36000500Y21426082D01*
X36000500Y21573918D01*
X35971658Y21718913D01*
X35915084Y21855495D01*
X35832951Y21978416D01*
X35728416Y22082951D01*
X35605495Y22165084D01*
X35581358Y22175082D01*
X35468914Y22221658D01*
X35323918Y22250500D01*
X35176082Y22250500D01*
X35176081Y22250500D01*
X35031085Y22221658D01*
X34894506Y22165085D01*
X34771585Y22082952D01*
X34667048Y21978415D01*
X34584915Y21855494D01*
X34528342Y21718915D01*
X34499500Y21573919D01*
X500500Y21573919D01*
X500500Y26573919D01*
X25249500Y26573919D01*
X25249500Y26426082D01*
X25278342Y26281086D01*
X25304094Y26218915D01*
X25334916Y26144505D01*
X25417049Y26021584D01*
X25521584Y25917049D01*
X25644505Y25834916D01*
X25781087Y25778342D01*
X25926082Y25749500D01*
X25926083Y25749500D01*
X26073917Y25749500D01*
X26073918Y25749500D01*
X26218913Y25778342D01*
X26355495Y25834916D01*
X26478416Y25917049D01*
X26582951Y26021584D01*
X26665084Y26144505D01*
X26721658Y26281087D01*
X26750500Y26426082D01*
X26750500Y26573918D01*
X26721658Y26718913D01*
X26665084Y26855495D01*
X26582951Y26978416D01*
X26478416Y27082951D01*
X26355495Y27165084D01*
X26355493Y27165085D01*
X26218914Y27221658D01*
X26073918Y27250500D01*
X25926082Y27250500D01*
X25926081Y27250500D01*
X25781085Y27221658D01*
X25644506Y27165085D01*
X25521585Y27082952D01*
X25417048Y26978415D01*
X25334915Y26855494D01*
X25278342Y26718915D01*
X25249500Y26573919D01*
X500500Y26573919D01*
X500500Y33056522D01*
X5659500Y33056522D01*
X5659500Y29843479D01*
X5659501Y29843477D01*
X5674352Y29749701D01*
X5674354Y29749696D01*
X5731950Y29636658D01*
X5821658Y29546950D01*
X5934696Y29489354D01*
X6028481Y29474500D01*
X7091518Y29474501D01*
X7091521Y29474501D01*
X7091522Y29474502D01*
X7167012Y29486457D01*
X7185299Y29489353D01*
X7185299Y29489354D01*
X7185304Y29489354D01*
X7298342Y29546950D01*
X7388050Y29636658D01*
X7445646Y29749696D01*
X7460500Y29843481D01*
X7460499Y33056518D01*
X7460498Y33056522D01*
X8199500Y33056522D01*
X8199500Y29843479D01*
X8199501Y29843477D01*
X8214352Y29749701D01*
X8214354Y29749696D01*
X8271950Y29636658D01*
X8361658Y29546950D01*
X8474696Y29489354D01*
X8568481Y29474500D01*
X9631518Y29474501D01*
X9631521Y29474501D01*
X9631522Y29474502D01*
X9707012Y29486457D01*
X9725299Y29489353D01*
X9725299Y29489354D01*
X9725304Y29489354D01*
X9838342Y29546950D01*
X9928050Y29636658D01*
X9985646Y29749696D01*
X9998832Y29832951D01*
X10000500Y29843479D01*
X10000500Y31299999D01*
X10840001Y31299999D01*
X10840001Y29830209D01*
X10842909Y29805126D01*
X10888213Y29702523D01*
X10967522Y29623214D01*
X11070127Y29577910D01*
X11095203Y29575001D01*
X11489998Y29575001D01*
X11490000Y29575002D01*
X11490000Y31299999D01*
X11790000Y31299999D01*
X11790000Y29575002D01*
X11790001Y29575001D01*
X12184790Y29575001D01*
X12184791Y29575002D01*
X12209874Y29577910D01*
X12312477Y29623214D01*
X12391786Y29702523D01*
X12437090Y29805128D01*
X12439999Y29830203D01*
X12440000Y29830205D01*
X12440000Y31299999D01*
X12439999Y31300000D01*
X11790001Y31300000D01*
X11790000Y31299999D01*
X11490000Y31299999D01*
X11489999Y31300000D01*
X10840002Y31300000D01*
X10840001Y31299999D01*
X10000500Y31299999D01*
X10000500Y31341007D01*
X10000499Y33056518D01*
X10000396Y33057168D01*
X10000396Y33057171D01*
X9998396Y33069798D01*
X10840000Y33069798D01*
X10840000Y31600001D01*
X10840001Y31600000D01*
X11489999Y31600000D01*
X11490000Y31600001D01*
X11490000Y33324999D01*
X11790000Y33324999D01*
X11790000Y31600001D01*
X11790001Y31600000D01*
X12439998Y31600000D01*
X12439999Y31600001D01*
X12439999Y33056522D01*
X13279500Y33056522D01*
X13279500Y29843479D01*
X13279501Y29843477D01*
X13294352Y29749701D01*
X13294354Y29749696D01*
X13351950Y29636658D01*
X13441658Y29546950D01*
X13554696Y29489354D01*
X13625660Y29478115D01*
X13680175Y29450338D01*
X13705798Y29405959D01*
X13713608Y29376813D01*
X13713609Y29376811D01*
X13779496Y29262691D01*
X13779497Y29262690D01*
X13779498Y29262689D01*
X13779500Y29262686D01*
X14849500Y28192686D01*
X14849499Y28192686D01*
X14942685Y28099501D01*
X14942690Y28099497D01*
X15056810Y28033610D01*
X15056808Y28033610D01*
X15056812Y28033609D01*
X15056814Y28033608D01*
X15184108Y27999500D01*
X26996717Y27999500D01*
X27054908Y27980593D01*
X27090872Y27931093D01*
X27090872Y27869907D01*
X27086667Y27860035D01*
X27086777Y27859989D01*
X27028342Y27718915D01*
X26999500Y27573919D01*
X26999500Y27426082D01*
X27028342Y27281086D01*
X27076392Y27165084D01*
X27084916Y27144505D01*
X27167049Y27021584D01*
X27271584Y26917049D01*
X27394505Y26834916D01*
X27531087Y26778342D01*
X27676082Y26749500D01*
X27676083Y26749500D01*
X27699126Y26749500D01*
X27757317Y26730593D01*
X27793281Y26681093D01*
X27793281Y26619907D01*
X27769131Y26580499D01*
X27667049Y26478416D01*
X27667048Y26478415D01*
X27584915Y26355494D01*
X27528342Y26218915D01*
X27499500Y26073919D01*
X27499500Y25926082D01*
X27528342Y25781086D01*
X27578464Y25660081D01*
X27584916Y25644505D01*
X27667049Y25521584D01*
X27771584Y25417049D01*
X27894505Y25334916D01*
X28031087Y25278342D01*
X28176082Y25249500D01*
X28176083Y25249500D01*
X28323917Y25249500D01*
X28323918Y25249500D01*
X28468913Y25278342D01*
X28605495Y25334916D01*
X28728416Y25417049D01*
X28832951Y25521584D01*
X28915084Y25644505D01*
X28971658Y25781087D01*
X29000500Y25926082D01*
X29000500Y26073918D01*
X28971658Y26218913D01*
X28915084Y26355495D01*
X28832951Y26478416D01*
X28737448Y26573919D01*
X30499500Y26573919D01*
X30499500Y26426082D01*
X30528342Y26281086D01*
X30554094Y26218915D01*
X30584916Y26144505D01*
X30667049Y26021584D01*
X30771584Y25917049D01*
X30894505Y25834916D01*
X31031087Y25778342D01*
X31176082Y25749500D01*
X31176083Y25749500D01*
X31323917Y25749500D01*
X31323918Y25749500D01*
X31468913Y25778342D01*
X31605495Y25834916D01*
X31728416Y25917049D01*
X31832951Y26021584D01*
X31915084Y26144505D01*
X31971658Y26281087D01*
X32000500Y26426082D01*
X32000500Y26573918D01*
X31971658Y26718913D01*
X31915084Y26855495D01*
X31832951Y26978416D01*
X31728416Y27082951D01*
X31605495Y27165084D01*
X31605493Y27165085D01*
X31468914Y27221658D01*
X31323918Y27250500D01*
X31176082Y27250500D01*
X31176081Y27250500D01*
X31031085Y27221658D01*
X30894506Y27165085D01*
X30771585Y27082952D01*
X30667048Y26978415D01*
X30584915Y26855494D01*
X30528342Y26718915D01*
X30499500Y26573919D01*
X28737448Y26573919D01*
X28728416Y26582951D01*
X28605495Y26665084D01*
X28605493Y26665085D01*
X28468914Y26721658D01*
X28323918Y26750500D01*
X28300874Y26750500D01*
X28242683Y26769407D01*
X28206719Y26818907D01*
X28206719Y26880093D01*
X28230868Y26919502D01*
X28332951Y27021584D01*
X28415084Y27144505D01*
X28471658Y27281087D01*
X28500500Y27426082D01*
X28500500Y27573918D01*
X28471658Y27718913D01*
X28415084Y27855495D01*
X28413223Y27859989D01*
X28414762Y27860627D01*
X28405215Y27914053D01*
X28431911Y27969108D01*
X28485868Y27997956D01*
X28503283Y27999500D01*
X31656890Y27999500D01*
X31656892Y27999500D01*
X31784186Y28033608D01*
X31784188Y28033610D01*
X31784190Y28033610D01*
X31898309Y28099497D01*
X31898309Y28099498D01*
X31898314Y28099500D01*
X33495778Y29696967D01*
X33550293Y29724742D01*
X33610725Y29715171D01*
X33653989Y29671908D01*
X33671950Y29636658D01*
X33761658Y29546950D01*
X33874696Y29489354D01*
X33944612Y29478281D01*
X33999128Y29450504D01*
X34026906Y29395988D01*
X34017335Y29335556D01*
X33999129Y29310497D01*
X33917050Y29228418D01*
X33834915Y29105494D01*
X33778342Y28968915D01*
X33749500Y28823919D01*
X33749500Y28676082D01*
X33778342Y28531086D01*
X33822095Y28425457D01*
X33834916Y28394505D01*
X33917049Y28271584D01*
X34021584Y28167049D01*
X34144505Y28084916D01*
X34268369Y28033610D01*
X34276196Y28030368D01*
X34322721Y27990631D01*
X34337005Y27931137D01*
X34313590Y27874609D01*
X34308314Y27868900D01*
X32192686Y25753271D01*
X32192685Y25753272D01*
X32099500Y25660086D01*
X32099496Y25660081D01*
X32033609Y25545962D01*
X31999500Y25418662D01*
X31999500Y23748322D01*
X31980593Y23690131D01*
X31970504Y23678318D01*
X31321682Y23029496D01*
X31267165Y23001719D01*
X31251678Y23000500D01*
X31003283Y23000500D01*
X30945092Y23019407D01*
X30909128Y23068907D01*
X30909128Y23130093D01*
X30913332Y23139966D01*
X30913223Y23140011D01*
X30952903Y23235808D01*
X30971658Y23281087D01*
X31000500Y23426082D01*
X31000500Y23573918D01*
X30971658Y23718913D01*
X30915084Y23855495D01*
X30832951Y23978416D01*
X30728416Y24082951D01*
X30605495Y24165084D01*
X30605493Y24165085D01*
X30468914Y24221658D01*
X30323918Y24250500D01*
X30176082Y24250500D01*
X30176081Y24250500D01*
X30031085Y24221658D01*
X29894506Y24165085D01*
X29771585Y24082952D01*
X29667048Y23978415D01*
X29584915Y23855494D01*
X29528342Y23718915D01*
X29499500Y23573919D01*
X29499500Y23426080D01*
X29514192Y23352220D01*
X29507000Y23291459D01*
X29465468Y23246529D01*
X29405458Y23234592D01*
X29397780Y23235808D01*
X29323920Y23250500D01*
X29323918Y23250500D01*
X29176082Y23250500D01*
X29176081Y23250500D01*
X29031085Y23221658D01*
X28894506Y23165085D01*
X28771585Y23082952D01*
X28667048Y22978415D01*
X28584915Y22855494D01*
X28528342Y22718915D01*
X28499500Y22573919D01*
X28499500Y22426082D01*
X28528342Y22281086D01*
X28584915Y22144507D01*
X28584916Y22144505D01*
X28667049Y22021584D01*
X28771584Y21917049D01*
X28894505Y21834916D01*
X29031087Y21778342D01*
X29176082Y21749500D01*
X29176083Y21749500D01*
X29323917Y21749500D01*
X29323918Y21749500D01*
X29468913Y21778342D01*
X29605495Y21834916D01*
X29728416Y21917049D01*
X29755144Y21943778D01*
X29781872Y21970504D01*
X29836389Y21998281D01*
X29851875Y21999500D01*
X31565890Y21999500D01*
X31565892Y21999500D01*
X31693186Y22033608D01*
X31693188Y22033610D01*
X31693190Y22033610D01*
X31807309Y22099497D01*
X31807309Y22099498D01*
X31807314Y22099500D01*
X32900500Y23192686D01*
X32925397Y23235808D01*
X32966390Y23306810D01*
X32966390Y23306812D01*
X32966392Y23306814D01*
X33000500Y23434108D01*
X33000500Y23565893D01*
X33000500Y23573919D01*
X34999500Y23573919D01*
X34999500Y23426082D01*
X35028342Y23281086D01*
X35076392Y23165084D01*
X35084916Y23144505D01*
X35167049Y23021584D01*
X35271584Y22917049D01*
X35394505Y22834916D01*
X35531087Y22778342D01*
X35676082Y22749500D01*
X35676083Y22749500D01*
X35823917Y22749500D01*
X35823918Y22749500D01*
X35968913Y22778342D01*
X36105495Y22834916D01*
X36228416Y22917049D01*
X36332951Y23021584D01*
X36415084Y23144505D01*
X36471658Y23281087D01*
X36500500Y23426082D01*
X36500500Y23573918D01*
X36471658Y23718913D01*
X36415084Y23855495D01*
X36332951Y23978416D01*
X36237448Y24073919D01*
X42499500Y24073919D01*
X42499500Y23926082D01*
X42528342Y23781086D01*
X42566017Y23690131D01*
X42584916Y23644505D01*
X42667049Y23521584D01*
X42771584Y23417049D01*
X42894505Y23334916D01*
X43031087Y23278342D01*
X43176082Y23249500D01*
X43176083Y23249500D01*
X43323917Y23249500D01*
X43323918Y23249500D01*
X43468913Y23278342D01*
X43605495Y23334916D01*
X43728416Y23417049D01*
X43832951Y23521584D01*
X43867919Y23573919D01*
X57499500Y23573919D01*
X57499500Y23426082D01*
X57528342Y23281086D01*
X57576392Y23165084D01*
X57584916Y23144505D01*
X57667049Y23021584D01*
X57771584Y22917049D01*
X57894505Y22834916D01*
X58031087Y22778342D01*
X58031089Y22778342D01*
X58031091Y22778341D01*
X58035224Y22777519D01*
X58088609Y22747625D01*
X58114226Y22692060D01*
X58102292Y22632050D01*
X58098229Y22625421D01*
X58084916Y22605497D01*
X58084915Y22605496D01*
X58028342Y22468915D01*
X57999500Y22323919D01*
X57999500Y22176082D01*
X58028342Y22031086D01*
X58068512Y21934107D01*
X58084916Y21894505D01*
X58167049Y21771584D01*
X58271584Y21667049D01*
X58394505Y21584916D01*
X58531087Y21528342D01*
X58676082Y21499500D01*
X58676083Y21499500D01*
X58761379Y21499500D01*
X58819570Y21480593D01*
X58855534Y21431093D01*
X58859160Y21385013D01*
X58849500Y21324023D01*
X58849500Y17937261D01*
X58830593Y17879070D01*
X58781093Y17843106D01*
X58719907Y17843106D01*
X58695498Y17854946D01*
X58605494Y17915085D01*
X58468914Y17971658D01*
X58323918Y18000500D01*
X58176082Y18000500D01*
X58176081Y18000500D01*
X58031085Y17971658D01*
X57894506Y17915085D01*
X57771585Y17832952D01*
X57667048Y17728415D01*
X57584915Y17605494D01*
X57528342Y17468915D01*
X57499500Y17323919D01*
X57499500Y17176082D01*
X57528342Y17031086D01*
X57571836Y16926082D01*
X57584916Y16894505D01*
X57667049Y16771584D01*
X57771584Y16667049D01*
X57894505Y16584916D01*
X58031087Y16528342D01*
X58176082Y16499500D01*
X58176083Y16499500D01*
X58323917Y16499500D01*
X58323918Y16499500D01*
X58468913Y16528342D01*
X58487483Y16536035D01*
X58548477Y16540835D01*
X58600646Y16508866D01*
X58624062Y16452339D01*
X58609779Y16392844D01*
X58607683Y16389569D01*
X58584914Y16355494D01*
X58528342Y16218915D01*
X58499500Y16073919D01*
X58499500Y15926082D01*
X58528342Y15781086D01*
X58586777Y15640011D01*
X58585237Y15639374D01*
X58594785Y15585947D01*
X58568089Y15530892D01*
X58514132Y15502044D01*
X58496717Y15500500D01*
X58426081Y15500500D01*
X58281085Y15471658D01*
X58144506Y15415085D01*
X58021585Y15332952D01*
X57917048Y15228415D01*
X57834915Y15105494D01*
X57778342Y14968915D01*
X57749500Y14823919D01*
X57749500Y14676082D01*
X57778342Y14531086D01*
X57817783Y14435867D01*
X57834916Y14394505D01*
X57917049Y14271584D01*
X58021584Y14167049D01*
X58144505Y14084916D01*
X58281087Y14028342D01*
X58426082Y13999500D01*
X58426083Y13999500D01*
X58573917Y13999500D01*
X58573918Y13999500D01*
X58718913Y14028342D01*
X58855495Y14084916D01*
X58978416Y14167049D01*
X59082951Y14271584D01*
X59165084Y14394505D01*
X59221658Y14531087D01*
X59250500Y14676082D01*
X59250500Y14823918D01*
X59221658Y14968913D01*
X59173691Y15084717D01*
X59163223Y15109989D01*
X59164762Y15110627D01*
X59155215Y15164053D01*
X59181911Y15219108D01*
X59235868Y15247956D01*
X59253283Y15249500D01*
X59323917Y15249500D01*
X59323918Y15249500D01*
X59468913Y15278342D01*
X59605495Y15334916D01*
X59728416Y15417049D01*
X59832951Y15521584D01*
X59915084Y15644505D01*
X59971658Y15781087D01*
X60000500Y15926082D01*
X60000500Y16073918D01*
X59971658Y16218913D01*
X59915084Y16355495D01*
X59832951Y16478416D01*
X59728416Y16582951D01*
X59605495Y16665084D01*
X59600751Y16667049D01*
X59468914Y16721658D01*
X59323918Y16750500D01*
X59176082Y16750500D01*
X59176081Y16750500D01*
X59031085Y16721658D01*
X59031081Y16721657D01*
X59012514Y16713966D01*
X58951517Y16709167D01*
X58899349Y16741138D01*
X58875937Y16797667D01*
X58890223Y16857162D01*
X58892305Y16860415D01*
X58915084Y16894505D01*
X58971658Y17031087D01*
X59000500Y17176082D01*
X59000500Y17310947D01*
X59019407Y17369138D01*
X59068907Y17405102D01*
X59116529Y17405102D01*
X59117000Y17408073D01*
X59124695Y17406855D01*
X59124696Y17406854D01*
X59218481Y17392000D01*
X60341981Y17392001D01*
X60400172Y17373094D01*
X60436136Y17323594D01*
X60436136Y17262408D01*
X60418520Y17230209D01*
X60417051Y17228420D01*
X60334915Y17105494D01*
X60278342Y16968915D01*
X60249500Y16823919D01*
X60249500Y16676082D01*
X60278342Y16531086D01*
X60300159Y16478416D01*
X60334916Y16394505D01*
X60417049Y16271584D01*
X60521584Y16167049D01*
X60644505Y16084916D01*
X60781087Y16028342D01*
X60926082Y15999500D01*
X60926083Y15999500D01*
X61073917Y15999500D01*
X61073918Y15999500D01*
X61218913Y16028342D01*
X61355495Y16084916D01*
X61478416Y16167049D01*
X61582951Y16271584D01*
X61665084Y16394505D01*
X61721658Y16531087D01*
X61750500Y16676082D01*
X61750500Y16823918D01*
X61721658Y16968913D01*
X61665084Y17105495D01*
X61582951Y17228416D01*
X61582947Y17228420D01*
X61581486Y17230201D01*
X61581101Y17231183D01*
X61580249Y17232459D01*
X61580529Y17232647D01*
X61559189Y17287179D01*
X61574642Y17346381D01*
X61621941Y17385193D01*
X61658018Y17392001D01*
X62781521Y17392001D01*
X62781522Y17392002D01*
X62828411Y17399428D01*
X62875299Y17406853D01*
X62875299Y17406854D01*
X62875304Y17406854D01*
X62988342Y17464450D01*
X63078050Y17554158D01*
X63135646Y17667196D01*
X63150500Y17760981D01*
X63150499Y18812741D01*
X63169406Y18870931D01*
X63218906Y18906895D01*
X63280092Y18906895D01*
X63304498Y18895057D01*
X63394505Y18834916D01*
X63531087Y18778342D01*
X63676082Y18749500D01*
X63676083Y18749500D01*
X63823917Y18749500D01*
X63823918Y18749500D01*
X63968913Y18778342D01*
X64105495Y18834916D01*
X64228416Y18917049D01*
X64332951Y19021584D01*
X64415084Y19144505D01*
X64471658Y19281087D01*
X64500500Y19426082D01*
X64500500Y19573918D01*
X64471658Y19718913D01*
X64415084Y19855495D01*
X64332951Y19978416D01*
X64228416Y20082951D01*
X64105495Y20165084D01*
X64105493Y20165085D01*
X63968914Y20221658D01*
X63823918Y20250500D01*
X63676082Y20250500D01*
X63676081Y20250500D01*
X63531085Y20221658D01*
X63394507Y20165086D01*
X63304500Y20104945D01*
X63245612Y20088337D01*
X63188208Y20109515D01*
X63154216Y20160389D01*
X63150499Y20187261D01*
X63150499Y21324022D01*
X63150498Y21324024D01*
X63135647Y21417800D01*
X63135646Y21417802D01*
X63135646Y21417804D01*
X63078050Y21530842D01*
X62988342Y21620550D01*
X62875304Y21678146D01*
X62875305Y21678146D01*
X62781522Y21693000D01*
X62781519Y21693000D01*
X61715658Y21693000D01*
X61657467Y21711907D01*
X61621503Y21761407D01*
X61621503Y21822593D01*
X61633341Y21846999D01*
X61665084Y21894505D01*
X61721658Y22031087D01*
X61750500Y22176082D01*
X61750500Y22323918D01*
X61721658Y22468913D01*
X61665084Y22605495D01*
X61582951Y22728416D01*
X61478416Y22832951D01*
X61355495Y22915084D01*
X61284411Y22944528D01*
X61218914Y22971658D01*
X61073918Y23000500D01*
X60926082Y23000500D01*
X60926081Y23000500D01*
X60781085Y22971658D01*
X60644506Y22915085D01*
X60521585Y22832952D01*
X60417048Y22728415D01*
X60334915Y22605494D01*
X60278342Y22468915D01*
X60249500Y22323919D01*
X60249500Y22176082D01*
X60278342Y22031086D01*
X60318512Y21934107D01*
X60334916Y21894505D01*
X60366657Y21847001D01*
X60383266Y21788114D01*
X60362089Y21730710D01*
X60311216Y21696717D01*
X60284342Y21693000D01*
X59465658Y21693000D01*
X59407467Y21711907D01*
X59371503Y21761407D01*
X59371503Y21822593D01*
X59383341Y21846999D01*
X59415084Y21894505D01*
X59471658Y22031087D01*
X59500500Y22176082D01*
X59500500Y22323918D01*
X59471658Y22468913D01*
X59415084Y22605495D01*
X59332951Y22728416D01*
X59228416Y22832951D01*
X59105495Y22915084D01*
X59034411Y22944528D01*
X58968914Y22971658D01*
X58968910Y22971659D01*
X58964767Y22972483D01*
X58911385Y23002383D01*
X58885772Y23057949D01*
X58897711Y23117958D01*
X58901758Y23124562D01*
X58915084Y23144505D01*
X58971658Y23281087D01*
X59000500Y23426082D01*
X59000500Y23573918D01*
X58971658Y23718913D01*
X58915084Y23855495D01*
X58832951Y23978416D01*
X58728416Y24082951D01*
X58605495Y24165084D01*
X58605493Y24165085D01*
X58468914Y24221658D01*
X58323918Y24250500D01*
X58176082Y24250500D01*
X58176081Y24250500D01*
X58031085Y24221658D01*
X57894506Y24165085D01*
X57771585Y24082952D01*
X57667048Y23978415D01*
X57584915Y23855494D01*
X57528342Y23718915D01*
X57499500Y23573919D01*
X43867919Y23573919D01*
X43886719Y23602056D01*
X43907921Y23633784D01*
X43907921Y23633785D01*
X43915083Y23644504D01*
X43915084Y23644505D01*
X43941100Y23707314D01*
X43971658Y23781087D01*
X44000500Y23926082D01*
X44000500Y24073918D01*
X43971658Y24218913D01*
X43915084Y24355495D01*
X43832951Y24478416D01*
X43812340Y24499027D01*
X43784565Y24553541D01*
X43794136Y24613973D01*
X43837401Y24657238D01*
X43863029Y24666126D01*
X43925914Y24678634D01*
X44062496Y24735208D01*
X44185417Y24817341D01*
X44220644Y24852569D01*
X44275158Y24880345D01*
X44335590Y24870774D01*
X44372961Y24837566D01*
X44417049Y24771584D01*
X44521584Y24667049D01*
X44644505Y24584916D01*
X44781087Y24528342D01*
X44926082Y24499500D01*
X44926083Y24499500D01*
X45073917Y24499500D01*
X45073918Y24499500D01*
X45218913Y24528342D01*
X45355495Y24584916D01*
X45478416Y24667049D01*
X45582951Y24771584D01*
X45665084Y24894505D01*
X45665085Y24894507D01*
X45667685Y24898398D01*
X45715734Y24936277D01*
X45776873Y24938679D01*
X45827746Y24904686D01*
X45832315Y24898398D01*
X45834915Y24894507D01*
X45834916Y24894505D01*
X45917049Y24771584D01*
X46021584Y24667049D01*
X46144505Y24584916D01*
X46281087Y24528342D01*
X46426082Y24499500D01*
X46426083Y24499500D01*
X46573917Y24499500D01*
X46573918Y24499500D01*
X46718913Y24528342D01*
X46855495Y24584916D01*
X46978416Y24667049D01*
X47082951Y24771584D01*
X47165084Y24894505D01*
X47165085Y24894507D01*
X47167685Y24898398D01*
X47215734Y24936277D01*
X47276873Y24938679D01*
X47327746Y24904686D01*
X47332315Y24898398D01*
X47334915Y24894507D01*
X47334916Y24894505D01*
X47417049Y24771584D01*
X47521584Y24667049D01*
X47644505Y24584916D01*
X47781087Y24528342D01*
X47926082Y24499500D01*
X47926083Y24499500D01*
X48073917Y24499500D01*
X48073918Y24499500D01*
X48218913Y24528342D01*
X48355495Y24584916D01*
X48478416Y24667049D01*
X48582951Y24771584D01*
X48665084Y24894505D01*
X48665085Y24894507D01*
X48667685Y24898398D01*
X48715734Y24936277D01*
X48776873Y24938679D01*
X48827746Y24904686D01*
X48832315Y24898398D01*
X48834915Y24894507D01*
X48834916Y24894505D01*
X48917049Y24771584D01*
X49021584Y24667049D01*
X49144505Y24584916D01*
X49281087Y24528342D01*
X49426082Y24499500D01*
X49426083Y24499500D01*
X49573917Y24499500D01*
X49573918Y24499500D01*
X49718913Y24528342D01*
X49855495Y24584916D01*
X49978416Y24667049D01*
X50082951Y24771584D01*
X50165084Y24894505D01*
X50221658Y25031087D01*
X50250500Y25176082D01*
X50250500Y25183007D01*
X61849500Y25183007D01*
X61849500Y23301994D01*
X61860111Y23167159D01*
X61916208Y22944530D01*
X61916209Y22944528D01*
X61916210Y22944526D01*
X61968061Y22830372D01*
X62011162Y22735484D01*
X62123095Y22573918D01*
X62141911Y22546759D01*
X62304259Y22384411D01*
X62492986Y22253661D01*
X62702026Y22158710D01*
X62702028Y22158710D01*
X62702029Y22158709D01*
X62758392Y22144507D01*
X62924661Y22102611D01*
X63059487Y22092000D01*
X64940512Y22092001D01*
X65075339Y22102611D01*
X65297974Y22158710D01*
X65507014Y22253661D01*
X65695741Y22384411D01*
X65858089Y22546759D01*
X65988839Y22735486D01*
X66083790Y22944526D01*
X66139889Y23167161D01*
X66150500Y23301987D01*
X66150499Y25183012D01*
X66139889Y25317839D01*
X66088550Y25521584D01*
X66083791Y25540471D01*
X66083790Y25540473D01*
X66073229Y25563724D01*
X65988839Y25749514D01*
X65986235Y25753272D01*
X65858091Y25938238D01*
X65858089Y25938241D01*
X65695741Y26100589D01*
X65623277Y26150792D01*
X65507016Y26231338D01*
X65466879Y26249569D01*
X65297974Y26326290D01*
X65297972Y26326291D01*
X65297970Y26326292D01*
X65075341Y26382389D01*
X65045377Y26384747D01*
X64940513Y26393000D01*
X64940506Y26393000D01*
X63059493Y26393000D01*
X62924658Y26382389D01*
X62702029Y26326292D01*
X62702027Y26326291D01*
X62492983Y26231338D01*
X62304262Y26100592D01*
X62141908Y25938238D01*
X62011162Y25749517D01*
X61916209Y25540473D01*
X61916208Y25540471D01*
X61860111Y25317842D01*
X61849500Y25183007D01*
X50250500Y25183007D01*
X50250500Y25323918D01*
X50221658Y25468913D01*
X50165084Y25605495D01*
X50082951Y25728416D01*
X49978416Y25832951D01*
X49855495Y25915084D01*
X49850751Y25917049D01*
X49718914Y25971658D01*
X49573918Y26000500D01*
X49426082Y26000500D01*
X49426081Y26000500D01*
X49281085Y25971658D01*
X49144506Y25915085D01*
X49021585Y25832952D01*
X48917048Y25728415D01*
X48832315Y25601603D01*
X48784265Y25563724D01*
X48723127Y25561322D01*
X48672253Y25595315D01*
X48667685Y25601603D01*
X48628608Y25660085D01*
X48582951Y25728416D01*
X48478416Y25832951D01*
X48355495Y25915084D01*
X48350751Y25917049D01*
X48218914Y25971658D01*
X48073918Y26000500D01*
X47926082Y26000500D01*
X47926081Y26000500D01*
X47781085Y25971658D01*
X47644506Y25915085D01*
X47521585Y25832952D01*
X47417048Y25728415D01*
X47332315Y25601603D01*
X47284265Y25563724D01*
X47223127Y25561322D01*
X47172253Y25595315D01*
X47167685Y25601603D01*
X47128608Y25660085D01*
X47082951Y25728416D01*
X46978416Y25832951D01*
X46855495Y25915084D01*
X46850751Y25917049D01*
X46718914Y25971658D01*
X46573918Y26000500D01*
X46426082Y26000500D01*
X46426081Y26000500D01*
X46281085Y25971658D01*
X46144506Y25915085D01*
X46021585Y25832952D01*
X45917048Y25728415D01*
X45832315Y25601603D01*
X45784265Y25563724D01*
X45723127Y25561322D01*
X45672253Y25595315D01*
X45667685Y25601603D01*
X45628608Y25660085D01*
X45582951Y25728416D01*
X45478416Y25832951D01*
X45355495Y25915084D01*
X45350751Y25917049D01*
X45218914Y25971658D01*
X45073918Y26000500D01*
X44926082Y26000500D01*
X44926081Y26000500D01*
X44781085Y25971658D01*
X44644506Y25915085D01*
X44521582Y25832950D01*
X44486357Y25797725D01*
X44431840Y25769948D01*
X44371408Y25779520D01*
X44334039Y25812727D01*
X44319213Y25834916D01*
X44289952Y25878708D01*
X44185417Y25983243D01*
X44062496Y26065376D01*
X44062494Y26065377D01*
X43925915Y26121950D01*
X43780919Y26150792D01*
X43633083Y26150792D01*
X43633082Y26150792D01*
X43488086Y26121950D01*
X43351507Y26065377D01*
X43228586Y25983244D01*
X43124049Y25878707D01*
X43041916Y25755786D01*
X42985343Y25619207D01*
X42956501Y25474211D01*
X42956501Y25326374D01*
X42985343Y25181378D01*
X43000222Y25145457D01*
X43041917Y25044797D01*
X43124050Y24921876D01*
X43144659Y24901267D01*
X43172435Y24846752D01*
X43162864Y24786320D01*
X43119599Y24743055D01*
X43093970Y24734168D01*
X43031093Y24721660D01*
X43031085Y24721658D01*
X42894506Y24665085D01*
X42771585Y24582952D01*
X42667048Y24478415D01*
X42584915Y24355494D01*
X42528342Y24218915D01*
X42499500Y24073919D01*
X36237448Y24073919D01*
X36228416Y24082951D01*
X36105495Y24165084D01*
X36105493Y24165085D01*
X35968914Y24221658D01*
X35823918Y24250500D01*
X35676082Y24250500D01*
X35676081Y24250500D01*
X35531085Y24221658D01*
X35394506Y24165085D01*
X35271585Y24082952D01*
X35167048Y23978415D01*
X35084915Y23855494D01*
X35028342Y23718915D01*
X34999500Y23573919D01*
X33000500Y23573919D01*
X33000500Y25104450D01*
X33019407Y25162641D01*
X33029490Y25174448D01*
X34076834Y26221793D01*
X34131351Y26249569D01*
X34191783Y26239998D01*
X34216838Y26221795D01*
X34271584Y26167049D01*
X34394505Y26084916D01*
X34531087Y26028342D01*
X34676082Y25999500D01*
X34676083Y25999500D01*
X34823917Y25999500D01*
X34823918Y25999500D01*
X34968913Y26028342D01*
X35105495Y26084916D01*
X35228416Y26167049D01*
X35332951Y26271584D01*
X35415084Y26394505D01*
X35471658Y26531087D01*
X35500500Y26676082D01*
X35500500Y26823918D01*
X35471658Y26968913D01*
X35415084Y27105495D01*
X35332951Y27228416D01*
X35278206Y27283161D01*
X35250431Y27337675D01*
X35260002Y27398107D01*
X35278208Y27423166D01*
X35729651Y27874609D01*
X36280500Y28425457D01*
X36346392Y28539585D01*
X36380500Y28666879D01*
X36380500Y28798664D01*
X36380500Y29378856D01*
X36399407Y29437047D01*
X36448907Y29473011D01*
X36494988Y29476637D01*
X36508481Y29474500D01*
X37571518Y29474501D01*
X37571521Y29474501D01*
X37571522Y29474502D01*
X37647012Y29486457D01*
X37665299Y29489353D01*
X37665299Y29489354D01*
X37665304Y29489354D01*
X37778342Y29546950D01*
X37868050Y29636658D01*
X37925646Y29749696D01*
X37940500Y29843481D01*
X37940499Y31175730D01*
X37959406Y31233920D01*
X38008906Y31269884D01*
X38058812Y31272827D01*
X38176082Y31249500D01*
X38176083Y31249500D01*
X38323917Y31249500D01*
X38323918Y31249500D01*
X38468913Y31278342D01*
X38542617Y31308872D01*
X38603610Y31313672D01*
X38655780Y31281703D01*
X38679195Y31225175D01*
X38679500Y31217407D01*
X38679500Y29843479D01*
X38679501Y29843477D01*
X38694352Y29749701D01*
X38694354Y29749696D01*
X38751950Y29636658D01*
X38841658Y29546950D01*
X38954696Y29489354D01*
X39048481Y29474500D01*
X40111518Y29474501D01*
X40111521Y29474501D01*
X40111522Y29474502D01*
X40187012Y29486457D01*
X40205299Y29489353D01*
X40205299Y29489354D01*
X40205304Y29489354D01*
X40318342Y29546950D01*
X40408050Y29636658D01*
X40465646Y29749696D01*
X40478832Y29832951D01*
X40480500Y29843479D01*
X40480500Y31299999D01*
X41320001Y31299999D01*
X41320001Y29830209D01*
X41322909Y29805126D01*
X41368213Y29702523D01*
X41447522Y29623214D01*
X41550127Y29577910D01*
X41575203Y29575001D01*
X41969998Y29575001D01*
X41970000Y29575002D01*
X41970000Y31299999D01*
X41969999Y31300000D01*
X41320002Y31300000D01*
X41320001Y31299999D01*
X40480500Y31299999D01*
X40480500Y31341007D01*
X40480499Y33056522D01*
X40468068Y33135014D01*
X40477640Y33195446D01*
X40520905Y33238710D01*
X40565849Y33249500D01*
X41239250Y33249500D01*
X41297441Y33230593D01*
X41333405Y33181093D01*
X41333405Y33119907D01*
X41329815Y33110513D01*
X41322910Y33094875D01*
X41322909Y33094873D01*
X41320000Y33069798D01*
X41320000Y31600001D01*
X41320001Y31600000D01*
X42919998Y31600000D01*
X42919999Y31600001D01*
X42919999Y33069790D01*
X42919998Y33069792D01*
X42917090Y33094875D01*
X42917089Y33094877D01*
X42910186Y33110511D01*
X42903977Y33171380D01*
X42934732Y33224274D01*
X42990704Y33248989D01*
X43000750Y33249500D01*
X43674151Y33249500D01*
X43732342Y33230593D01*
X43768306Y33181093D01*
X43771932Y33135013D01*
X43759500Y33056522D01*
X43759500Y31247398D01*
X43740593Y31189207D01*
X43691093Y31153243D01*
X43629907Y31153243D01*
X43609873Y31162959D01*
X43609784Y31162792D01*
X43605539Y31165061D01*
X43605510Y31165075D01*
X43605495Y31165085D01*
X43468914Y31221658D01*
X43323918Y31250500D01*
X43176082Y31250500D01*
X43176079Y31250500D01*
X43038313Y31223096D01*
X42977552Y31230288D01*
X42932622Y31271820D01*
X42927129Y31292870D01*
X42919999Y31300000D01*
X42270001Y31300000D01*
X42270000Y31299999D01*
X42270000Y29575002D01*
X42270001Y29575001D01*
X42664790Y29575001D01*
X42664791Y29575002D01*
X42689874Y29577910D01*
X42792477Y29623214D01*
X42871787Y29702524D01*
X42885643Y29733904D01*
X42926443Y29779500D01*
X42986252Y29792406D01*
X43014093Y29785381D01*
X43031087Y29778342D01*
X43176082Y29749500D01*
X43176083Y29749500D01*
X43323917Y29749500D01*
X43323918Y29749500D01*
X43468913Y29778342D01*
X43594122Y29830205D01*
X43605493Y29834915D01*
X43605493Y29834916D01*
X43605495Y29834916D01*
X43617396Y29842869D01*
X43676283Y29859479D01*
X43733687Y29838304D01*
X43767682Y29787431D01*
X43770181Y29776040D01*
X43774352Y29749701D01*
X43774354Y29749696D01*
X43831950Y29636658D01*
X43921658Y29546950D01*
X44034696Y29489354D01*
X44128481Y29474500D01*
X45191518Y29474501D01*
X45191521Y29474501D01*
X45191522Y29474502D01*
X45267012Y29486457D01*
X45285299Y29489353D01*
X45285299Y29489354D01*
X45285304Y29489354D01*
X45398342Y29546950D01*
X45488050Y29636658D01*
X45545646Y29749696D01*
X45558832Y29832951D01*
X45560500Y29843479D01*
X45560500Y31299999D01*
X46400001Y31299999D01*
X46400001Y29830209D01*
X46402909Y29805126D01*
X46448213Y29702523D01*
X46527522Y29623214D01*
X46630127Y29577910D01*
X46655203Y29575001D01*
X47049998Y29575001D01*
X47050000Y29575002D01*
X47050000Y31299999D01*
X47350000Y31299999D01*
X47350000Y29575002D01*
X47350001Y29575001D01*
X47744790Y29575001D01*
X47744791Y29575002D01*
X47769874Y29577910D01*
X47872477Y29623214D01*
X47951786Y29702523D01*
X47997090Y29805128D01*
X47999999Y29830203D01*
X48000000Y29830205D01*
X48000000Y31299999D01*
X47999999Y31300000D01*
X47350001Y31300000D01*
X47350000Y31299999D01*
X47050000Y31299999D01*
X47049999Y31300000D01*
X46400002Y31300000D01*
X46400001Y31299999D01*
X45560500Y31299999D01*
X45560500Y31341007D01*
X45560499Y33056522D01*
X45560498Y33056524D01*
X45545647Y33150300D01*
X45545646Y33150302D01*
X45545646Y33150304D01*
X45488050Y33263342D01*
X45398342Y33353050D01*
X45285304Y33410646D01*
X45285305Y33410646D01*
X45191522Y33425500D01*
X45191519Y33425500D01*
X44372321Y33425500D01*
X44314130Y33444407D01*
X44278166Y33493907D01*
X44278166Y33555093D01*
X44302317Y33594504D01*
X44531731Y33823918D01*
X45060499Y34352685D01*
X45062122Y34355495D01*
X45118791Y34453649D01*
X45129637Y34472434D01*
X45130835Y34471743D01*
X45165901Y34512809D01*
X45202153Y34526185D01*
X45285299Y34539353D01*
X45285299Y34539354D01*
X45285304Y34539354D01*
X45398342Y34596950D01*
X45488050Y34686658D01*
X45545646Y34799696D01*
X45560500Y34893481D01*
X45560499Y38106518D01*
X45560498Y38106522D01*
X46299500Y38106522D01*
X46299500Y34893479D01*
X46299501Y34893477D01*
X46314352Y34799701D01*
X46314354Y34799696D01*
X46371950Y34686658D01*
X46461658Y34596950D01*
X46510523Y34572052D01*
X46574703Y34539350D01*
X46617967Y34496085D01*
X46627538Y34435653D01*
X46612074Y34396141D01*
X46584914Y34355492D01*
X46528342Y34218915D01*
X46499500Y34073919D01*
X46499500Y33926082D01*
X46528342Y33781086D01*
X46543542Y33744391D01*
X46584916Y33644505D01*
X46667049Y33521584D01*
X46697215Y33491418D01*
X46724991Y33436903D01*
X46715420Y33376471D01*
X46672155Y33333206D01*
X46638617Y33323075D01*
X46630125Y33322090D01*
X46527522Y33276787D01*
X46448213Y33197478D01*
X46402909Y33094873D01*
X46400000Y33069798D01*
X46400000Y31600001D01*
X46400001Y31600000D01*
X47999998Y31600000D01*
X47999999Y31600001D01*
X47999999Y33056522D01*
X48839500Y33056522D01*
X48839500Y29843479D01*
X48839501Y29843477D01*
X48854352Y29749701D01*
X48854354Y29749696D01*
X48911950Y29636658D01*
X49001658Y29546950D01*
X49114696Y29489354D01*
X49208481Y29474500D01*
X50271518Y29474501D01*
X50271521Y29474501D01*
X50271522Y29474502D01*
X50347012Y29486457D01*
X50365299Y29489353D01*
X50365299Y29489354D01*
X50365304Y29489354D01*
X50478342Y29546950D01*
X50568050Y29636658D01*
X50625646Y29749696D01*
X50640500Y29843481D01*
X50640499Y33056518D01*
X50640498Y33056522D01*
X51379500Y33056522D01*
X51379500Y29843479D01*
X51379501Y29843477D01*
X51394352Y29749701D01*
X51394354Y29749696D01*
X51451950Y29636658D01*
X51541658Y29546950D01*
X51654696Y29489354D01*
X51748481Y29474500D01*
X52811518Y29474501D01*
X52811521Y29474501D01*
X52811522Y29474502D01*
X52887012Y29486457D01*
X52905299Y29489353D01*
X52905299Y29489354D01*
X52905304Y29489354D01*
X53018342Y29546950D01*
X53108050Y29636658D01*
X53165646Y29749696D01*
X53180500Y29843481D01*
X53180499Y33056518D01*
X53180498Y33056522D01*
X53919500Y33056522D01*
X53919500Y29843479D01*
X53919501Y29843477D01*
X53934352Y29749701D01*
X53934354Y29749696D01*
X53991950Y29636658D01*
X54081658Y29546950D01*
X54194696Y29489354D01*
X54288481Y29474500D01*
X55351518Y29474501D01*
X55351521Y29474501D01*
X55351522Y29474502D01*
X55427012Y29486457D01*
X55445299Y29489353D01*
X55445299Y29489354D01*
X55445304Y29489354D01*
X55558342Y29546950D01*
X55648050Y29636658D01*
X55705646Y29749696D01*
X55720500Y29843481D01*
X55720499Y33056518D01*
X55720499Y33056521D01*
X55720499Y33056522D01*
X55720498Y33056524D01*
X55705647Y33150300D01*
X55705646Y33150302D01*
X55705646Y33150304D01*
X55648050Y33263342D01*
X55558342Y33353050D01*
X55445304Y33410646D01*
X55445305Y33410646D01*
X55351521Y33425500D01*
X54288478Y33425500D01*
X54288476Y33425499D01*
X54194700Y33410648D01*
X54194695Y33410646D01*
X54081659Y33353051D01*
X53991949Y33263341D01*
X53934354Y33150305D01*
X53919500Y33056522D01*
X53180498Y33056522D01*
X53180498Y33056525D01*
X53165647Y33150300D01*
X53165646Y33150302D01*
X53165646Y33150304D01*
X53108050Y33263342D01*
X53018342Y33353050D01*
X52905304Y33410646D01*
X52905305Y33410646D01*
X52811521Y33425500D01*
X51748478Y33425500D01*
X51748476Y33425499D01*
X51654700Y33410648D01*
X51654695Y33410646D01*
X51541659Y33353051D01*
X51451949Y33263341D01*
X51394354Y33150305D01*
X51379500Y33056522D01*
X50640498Y33056522D01*
X50640498Y33056525D01*
X50625647Y33150300D01*
X50625646Y33150302D01*
X50625646Y33150304D01*
X50568050Y33263342D01*
X50478342Y33353050D01*
X50365304Y33410646D01*
X50365305Y33410646D01*
X50271521Y33425500D01*
X49208478Y33425500D01*
X49208476Y33425499D01*
X49114700Y33410648D01*
X49114695Y33410646D01*
X49001659Y33353051D01*
X48911949Y33263341D01*
X48854354Y33150305D01*
X48839500Y33056522D01*
X47999999Y33056522D01*
X47999999Y33069790D01*
X47999998Y33069792D01*
X47997090Y33094875D01*
X47951786Y33197478D01*
X47872477Y33276787D01*
X47807449Y33305499D01*
X47761854Y33346300D01*
X47748948Y33406108D01*
X47773662Y33462081D01*
X47777416Y33466050D01*
X47832951Y33521584D01*
X47915084Y33644505D01*
X47971658Y33781087D01*
X48000500Y33926082D01*
X48000500Y34073918D01*
X48000500Y34073919D01*
X57499500Y34073919D01*
X57499500Y33926082D01*
X57528342Y33781086D01*
X57543542Y33744391D01*
X57584916Y33644505D01*
X57667049Y33521584D01*
X57771584Y33417049D01*
X57894505Y33334916D01*
X58031087Y33278342D01*
X58176082Y33249500D01*
X58176083Y33249500D01*
X58323917Y33249500D01*
X58323918Y33249500D01*
X58468913Y33278342D01*
X58605495Y33334916D01*
X58695500Y33395056D01*
X58754386Y33411664D01*
X58811790Y33390487D01*
X58845783Y33339613D01*
X58849500Y33312740D01*
X58849500Y32218479D01*
X58849501Y32218477D01*
X58864352Y32124701D01*
X58864354Y32124696D01*
X58921950Y32011658D01*
X59011658Y31921950D01*
X59124696Y31864354D01*
X59218481Y31849500D01*
X60312739Y31849501D01*
X60370930Y31830594D01*
X60406894Y31781094D01*
X60406894Y31719908D01*
X60395055Y31695500D01*
X60334914Y31605493D01*
X60278342Y31468915D01*
X60249500Y31323919D01*
X60249500Y31176082D01*
X60274208Y31051867D01*
X60278342Y31031087D01*
X60334916Y30894505D01*
X60417049Y30771584D01*
X60521584Y30667049D01*
X60644505Y30584916D01*
X60781087Y30528342D01*
X60926082Y30499500D01*
X60926083Y30499500D01*
X61073917Y30499500D01*
X61073918Y30499500D01*
X61218913Y30528342D01*
X61355495Y30584916D01*
X61478416Y30667049D01*
X61582951Y30771584D01*
X61665084Y30894505D01*
X61721658Y31031087D01*
X61750500Y31176082D01*
X61750500Y31323918D01*
X61721658Y31468913D01*
X61665084Y31605495D01*
X61604944Y31695501D01*
X61588336Y31754387D01*
X61609513Y31811791D01*
X61660387Y31845784D01*
X61687260Y31849501D01*
X62781521Y31849501D01*
X62781522Y31849502D01*
X62828411Y31856928D01*
X62875299Y31864353D01*
X62875299Y31864354D01*
X62875304Y31864354D01*
X62988342Y31921950D01*
X63078050Y32011658D01*
X63135646Y32124696D01*
X63150500Y32218481D01*
X63150499Y33312741D01*
X63169406Y33370931D01*
X63218906Y33406895D01*
X63280092Y33406895D01*
X63304498Y33395057D01*
X63394505Y33334916D01*
X63531087Y33278342D01*
X63676082Y33249500D01*
X63676083Y33249500D01*
X63823917Y33249500D01*
X63823918Y33249500D01*
X63968913Y33278342D01*
X64105495Y33334916D01*
X64228416Y33417049D01*
X64332951Y33521584D01*
X64415084Y33644505D01*
X64471658Y33781087D01*
X64500500Y33926082D01*
X64500500Y34073918D01*
X64471658Y34218913D01*
X64416248Y34352685D01*
X64415084Y34355496D01*
X64415083Y34355497D01*
X64375267Y34415085D01*
X64332951Y34478416D01*
X64228416Y34582951D01*
X64105495Y34665084D01*
X64105493Y34665085D01*
X63968914Y34721658D01*
X63823918Y34750500D01*
X63676082Y34750500D01*
X63676081Y34750500D01*
X63531085Y34721658D01*
X63394507Y34665086D01*
X63304500Y34604945D01*
X63245612Y34588337D01*
X63188208Y34609515D01*
X63154216Y34660389D01*
X63150499Y34687261D01*
X63150499Y35781522D01*
X63150498Y35781524D01*
X63135647Y35875300D01*
X63135646Y35875302D01*
X63135646Y35875304D01*
X63078050Y35988342D01*
X62988342Y36078050D01*
X62875304Y36135646D01*
X62875305Y36135646D01*
X62781522Y36150500D01*
X62781519Y36150500D01*
X61687261Y36150500D01*
X61629070Y36169407D01*
X61593106Y36218907D01*
X61593106Y36280093D01*
X61604946Y36304502D01*
X61635346Y36349999D01*
X61665084Y36394505D01*
X61721658Y36531087D01*
X61750500Y36676082D01*
X61750500Y36823918D01*
X61721658Y36968913D01*
X61665084Y37105495D01*
X61582951Y37228416D01*
X61478416Y37332951D01*
X61355495Y37415084D01*
X61355493Y37415085D01*
X61218914Y37471658D01*
X61073918Y37500500D01*
X60926082Y37500500D01*
X60926081Y37500500D01*
X60781085Y37471658D01*
X60644506Y37415085D01*
X60521585Y37332952D01*
X60417048Y37228415D01*
X60334915Y37105494D01*
X60278342Y36968915D01*
X60249500Y36823919D01*
X60249500Y36676082D01*
X60278342Y36531086D01*
X60334915Y36394506D01*
X60395054Y36304502D01*
X60411663Y36245613D01*
X60390485Y36188210D01*
X60339612Y36154217D01*
X60312739Y36150500D01*
X59218478Y36150500D01*
X59218476Y36150499D01*
X59124700Y36135648D01*
X59124695Y36135646D01*
X59011659Y36078051D01*
X58921949Y35988341D01*
X58864354Y35875305D01*
X58849500Y35781522D01*
X58849500Y34687261D01*
X58830593Y34629070D01*
X58781093Y34593106D01*
X58719907Y34593106D01*
X58695498Y34604946D01*
X58605494Y34665085D01*
X58468914Y34721658D01*
X58323918Y34750500D01*
X58176082Y34750500D01*
X58176081Y34750500D01*
X58031085Y34721658D01*
X57894506Y34665085D01*
X57771585Y34582952D01*
X57667048Y34478415D01*
X57584917Y34355497D01*
X57584915Y34355496D01*
X57528342Y34218915D01*
X57499500Y34073919D01*
X48000500Y34073919D01*
X47971658Y34218913D01*
X47916248Y34352685D01*
X47915084Y34355496D01*
X47915083Y34355497D01*
X47898648Y34380093D01*
X47862526Y34434154D01*
X47845918Y34493039D01*
X47867095Y34550443D01*
X47899893Y34577360D01*
X47938342Y34596950D01*
X48028050Y34686658D01*
X48085646Y34799696D01*
X48100500Y34893481D01*
X48100499Y38106518D01*
X48100498Y38106522D01*
X48839500Y38106522D01*
X48839500Y34893479D01*
X48839501Y34893477D01*
X48854352Y34799701D01*
X48854354Y34799696D01*
X48911950Y34686658D01*
X49001658Y34596950D01*
X49114696Y34539354D01*
X49208481Y34524500D01*
X50271518Y34524501D01*
X50271521Y34524501D01*
X50271522Y34524502D01*
X50319304Y34532069D01*
X50365299Y34539353D01*
X50365299Y34539354D01*
X50365304Y34539354D01*
X50478342Y34596950D01*
X50568050Y34686658D01*
X50625646Y34799696D01*
X50640500Y34893481D01*
X50640499Y38106518D01*
X50640498Y38106522D01*
X51379500Y38106522D01*
X51379500Y34893479D01*
X51379501Y34893477D01*
X51394352Y34799701D01*
X51394354Y34799696D01*
X51451950Y34686658D01*
X51541658Y34596950D01*
X51654696Y34539354D01*
X51748481Y34524500D01*
X52811518Y34524501D01*
X52811521Y34524501D01*
X52811522Y34524502D01*
X52859304Y34532069D01*
X52905299Y34539353D01*
X52905299Y34539354D01*
X52905304Y34539354D01*
X53018342Y34596950D01*
X53108050Y34686658D01*
X53165646Y34799696D01*
X53180302Y34892231D01*
X53180500Y34893479D01*
X53180500Y36349999D01*
X54020001Y36349999D01*
X54020001Y34880209D01*
X54022909Y34855126D01*
X54068213Y34752523D01*
X54147522Y34673214D01*
X54250127Y34627910D01*
X54275203Y34625001D01*
X54669998Y34625001D01*
X54670000Y34625002D01*
X54670000Y36349999D01*
X54970000Y36349999D01*
X54970000Y34625002D01*
X54970001Y34625001D01*
X55364790Y34625001D01*
X55364791Y34625002D01*
X55389874Y34627910D01*
X55492477Y34673214D01*
X55571786Y34752523D01*
X55617090Y34855128D01*
X55619999Y34880203D01*
X55620000Y34880205D01*
X55620000Y36349999D01*
X55619999Y36350000D01*
X54970001Y36350000D01*
X54970000Y36349999D01*
X54670000Y36349999D01*
X54669999Y36350000D01*
X54020002Y36350000D01*
X54020001Y36349999D01*
X53180500Y36349999D01*
X53180500Y36391007D01*
X53180499Y38106518D01*
X53180396Y38107168D01*
X53180396Y38107171D01*
X53178396Y38119798D01*
X54020000Y38119798D01*
X54020000Y36650001D01*
X54020001Y36650000D01*
X54669999Y36650000D01*
X54670000Y36650001D01*
X54670000Y38374999D01*
X54970000Y38374999D01*
X54970000Y36650001D01*
X54970001Y36650000D01*
X55619998Y36650000D01*
X55619999Y36650001D01*
X55619999Y38119790D01*
X55619998Y38119792D01*
X55617090Y38144875D01*
X55571786Y38247478D01*
X55492477Y38326787D01*
X55389872Y38372091D01*
X55364797Y38375000D01*
X54970001Y38375000D01*
X54970000Y38374999D01*
X54670000Y38374999D01*
X54669999Y38375000D01*
X54275210Y38375000D01*
X54275207Y38374999D01*
X54250125Y38372091D01*
X54147522Y38326787D01*
X54068213Y38247478D01*
X54022909Y38144873D01*
X54020000Y38119798D01*
X53178396Y38119798D01*
X53165647Y38200301D01*
X53165646Y38200303D01*
X53165646Y38200304D01*
X53108050Y38313342D01*
X53018342Y38403050D01*
X52905304Y38460646D01*
X52905305Y38460646D01*
X52811521Y38475500D01*
X51748478Y38475500D01*
X51748476Y38475499D01*
X51654700Y38460648D01*
X51654695Y38460646D01*
X51541659Y38403051D01*
X51451949Y38313341D01*
X51394354Y38200305D01*
X51379500Y38106522D01*
X50640498Y38106522D01*
X50640498Y38106525D01*
X50625647Y38200300D01*
X50625646Y38200302D01*
X50625646Y38200304D01*
X50568050Y38313342D01*
X50478342Y38403050D01*
X50365304Y38460646D01*
X50365305Y38460646D01*
X50271521Y38475500D01*
X49208478Y38475500D01*
X49208476Y38475499D01*
X49114700Y38460648D01*
X49114695Y38460646D01*
X49001659Y38403051D01*
X48911949Y38313341D01*
X48854354Y38200305D01*
X48839500Y38106522D01*
X48100498Y38106522D01*
X48100498Y38106525D01*
X48085647Y38200300D01*
X48085646Y38200302D01*
X48085646Y38200304D01*
X48028050Y38313342D01*
X47938342Y38403050D01*
X47825304Y38460646D01*
X47825305Y38460646D01*
X47731521Y38475500D01*
X46668478Y38475500D01*
X46668476Y38475499D01*
X46574700Y38460648D01*
X46574695Y38460646D01*
X46461659Y38403051D01*
X46371949Y38313341D01*
X46314354Y38200305D01*
X46299500Y38106522D01*
X45560498Y38106522D01*
X45560498Y38106525D01*
X45545647Y38200300D01*
X45545646Y38200302D01*
X45545646Y38200304D01*
X45488050Y38313342D01*
X45398342Y38403050D01*
X45285304Y38460646D01*
X45285305Y38460646D01*
X45191521Y38475500D01*
X44128478Y38475500D01*
X44128476Y38475499D01*
X44034700Y38460648D01*
X44034695Y38460646D01*
X43921659Y38403051D01*
X43831949Y38313341D01*
X43774354Y38200305D01*
X43759500Y38106522D01*
X43759500Y34893479D01*
X43759501Y34893477D01*
X43774352Y34799701D01*
X43774354Y34799696D01*
X43831950Y34686658D01*
X43835394Y34683214D01*
X43863170Y34628699D01*
X43853599Y34568267D01*
X43835393Y34543209D01*
X43571682Y34279497D01*
X43517165Y34251719D01*
X43501678Y34250500D01*
X41197321Y34250500D01*
X41139130Y34269407D01*
X41103166Y34318907D01*
X41103166Y34380093D01*
X41127315Y34419502D01*
X41150500Y34442686D01*
X41216392Y34556814D01*
X41216393Y34556820D01*
X41218874Y34562806D01*
X41221081Y34561892D01*
X41248720Y34604477D01*
X41305835Y34626420D01*
X41364940Y34610600D01*
X41381042Y34597566D01*
X41381658Y34596950D01*
X41494696Y34539354D01*
X41588481Y34524500D01*
X42651518Y34524501D01*
X42651521Y34524501D01*
X42651522Y34524502D01*
X42699304Y34532069D01*
X42745299Y34539353D01*
X42745299Y34539354D01*
X42745304Y34539354D01*
X42858342Y34596950D01*
X42948050Y34686658D01*
X43005646Y34799696D01*
X43020500Y34893481D01*
X43020499Y38106518D01*
X43020499Y38106521D01*
X43020499Y38106522D01*
X43020498Y38106524D01*
X43005647Y38200300D01*
X43005646Y38200302D01*
X43005646Y38200304D01*
X42948050Y38313342D01*
X42858342Y38403050D01*
X42745304Y38460646D01*
X42745305Y38460646D01*
X42651521Y38475500D01*
X41588478Y38475500D01*
X41588476Y38475499D01*
X41494700Y38460648D01*
X41494695Y38460646D01*
X41381659Y38403051D01*
X41291949Y38313341D01*
X41234354Y38200305D01*
X41219500Y38106522D01*
X41219500Y37099500D01*
X41200593Y37041309D01*
X41151093Y37005345D01*
X41120500Y37000500D01*
X41065892Y37000500D01*
X40934107Y37000500D01*
X40816223Y36968913D01*
X40816221Y36968913D01*
X40806819Y36966395D01*
X40806817Y36966394D01*
X40692685Y36900500D01*
X40692684Y36900500D01*
X40692685Y36900499D01*
X40649503Y36857317D01*
X40594986Y36829540D01*
X40534554Y36839111D01*
X40491289Y36882376D01*
X40480499Y36927321D01*
X40480499Y38106522D01*
X40480498Y38106524D01*
X40465647Y38200300D01*
X40465646Y38200302D01*
X40465646Y38200304D01*
X40408050Y38313342D01*
X40318342Y38403050D01*
X40205304Y38460646D01*
X40205305Y38460646D01*
X40111521Y38475500D01*
X39048478Y38475500D01*
X39048476Y38475499D01*
X38954700Y38460648D01*
X38954695Y38460646D01*
X38841659Y38403051D01*
X38751949Y38313341D01*
X38694354Y38200305D01*
X38679500Y38106522D01*
X38679500Y34893484D01*
X38684014Y34864985D01*
X38674441Y34804553D01*
X38631175Y34761289D01*
X38586232Y34750500D01*
X37936101Y34750500D01*
X37877910Y34769407D01*
X37841946Y34818907D01*
X37837761Y34860912D01*
X37840000Y34880207D01*
X37840000Y36349999D01*
X37839999Y36350000D01*
X36240002Y36350000D01*
X36240001Y36349999D01*
X36240001Y34880209D01*
X36242909Y34855126D01*
X36288213Y34752523D01*
X36367521Y34673215D01*
X36368782Y34672658D01*
X36370250Y34671345D01*
X36375090Y34668029D01*
X36374658Y34667400D01*
X36414381Y34631860D01*
X36427291Y34572052D01*
X36402581Y34516079D01*
X36349690Y34485319D01*
X36348117Y34484993D01*
X36281093Y34471660D01*
X36281085Y34471658D01*
X36144506Y34415085D01*
X36021585Y34332952D01*
X35917049Y34228416D01*
X35896899Y34198260D01*
X35848848Y34160382D01*
X35787710Y34157982D01*
X35736837Y34191976D01*
X35723121Y34215379D01*
X35721658Y34218910D01*
X35721658Y34218913D01*
X35666247Y34352687D01*
X35665084Y34355496D01*
X35665083Y34355497D01*
X35625267Y34415085D01*
X35582951Y34478416D01*
X35478416Y34582951D01*
X35409394Y34629070D01*
X35399967Y34635369D01*
X35362088Y34683419D01*
X35359686Y34744557D01*
X35366760Y34762630D01*
X35371323Y34771588D01*
X35385646Y34799696D01*
X35400500Y34893481D01*
X35400499Y38106518D01*
X35400396Y38107171D01*
X35398396Y38119798D01*
X36240000Y38119798D01*
X36240000Y36650001D01*
X36240001Y36650000D01*
X36889999Y36650000D01*
X36890000Y36650001D01*
X36890000Y38374999D01*
X37190000Y38374999D01*
X37190000Y36650001D01*
X37190001Y36650000D01*
X37839998Y36650000D01*
X37839999Y36650001D01*
X37839999Y38119790D01*
X37839998Y38119792D01*
X37837090Y38144875D01*
X37791786Y38247478D01*
X37712477Y38326787D01*
X37609872Y38372091D01*
X37584797Y38375000D01*
X37190001Y38375000D01*
X37190000Y38374999D01*
X36890000Y38374999D01*
X36889999Y38375000D01*
X36495210Y38375000D01*
X36495207Y38374999D01*
X36470125Y38372091D01*
X36367522Y38326787D01*
X36288213Y38247478D01*
X36242909Y38144873D01*
X36240000Y38119798D01*
X35398396Y38119798D01*
X35385647Y38200301D01*
X35385646Y38200303D01*
X35385646Y38200304D01*
X35328050Y38313342D01*
X35238342Y38403050D01*
X35125304Y38460646D01*
X35125305Y38460646D01*
X35031521Y38475500D01*
X33968478Y38475500D01*
X33968476Y38475499D01*
X33874700Y38460648D01*
X33874695Y38460646D01*
X33761659Y38403051D01*
X33671949Y38313341D01*
X33614354Y38200305D01*
X33599500Y38106522D01*
X33599500Y35065531D01*
X33580593Y35007340D01*
X33531093Y34971376D01*
X33473702Y34970814D01*
X33473682Y34970709D01*
X33473184Y34970808D01*
X33471762Y34970794D01*
X33468918Y34971657D01*
X33323918Y35000500D01*
X33176082Y35000500D01*
X33176081Y35000500D01*
X33031085Y34971658D01*
X32997382Y34957698D01*
X32936385Y34952899D01*
X32884217Y34984870D01*
X32860804Y35041398D01*
X32860499Y35049139D01*
X32860499Y38106518D01*
X32860499Y38106521D01*
X32860499Y38106522D01*
X32860498Y38106524D01*
X32845647Y38200300D01*
X32845646Y38200302D01*
X32845646Y38200304D01*
X32788050Y38313342D01*
X32698342Y38403050D01*
X32585304Y38460646D01*
X32585305Y38460646D01*
X32491521Y38475500D01*
X31428478Y38475500D01*
X31428476Y38475499D01*
X31334700Y38460648D01*
X31334695Y38460646D01*
X31221659Y38403051D01*
X31131949Y38313341D01*
X31074354Y38200305D01*
X31059500Y38106522D01*
X31059500Y34893484D01*
X31064014Y34864985D01*
X31054441Y34804553D01*
X31011175Y34761289D01*
X30966232Y34750500D01*
X30413768Y34750500D01*
X30355577Y34769407D01*
X30319613Y34818907D01*
X30315987Y34864988D01*
X30316323Y34867111D01*
X30320500Y34893481D01*
X30320499Y38106518D01*
X30320499Y38106521D01*
X30320499Y38106522D01*
X30320498Y38106524D01*
X30305647Y38200300D01*
X30305646Y38200302D01*
X30305646Y38200304D01*
X30248050Y38313342D01*
X30158342Y38403050D01*
X30045304Y38460646D01*
X30045305Y38460646D01*
X29951521Y38475500D01*
X28888478Y38475500D01*
X28888476Y38475499D01*
X28794700Y38460648D01*
X28794695Y38460646D01*
X28681659Y38403051D01*
X28591949Y38313341D01*
X28534354Y38200305D01*
X28519500Y38106522D01*
X28519500Y34893479D01*
X28519501Y34893477D01*
X28534352Y34799701D01*
X28534354Y34799696D01*
X28591950Y34686658D01*
X28681658Y34596950D01*
X28771805Y34551018D01*
X28815069Y34507754D01*
X28824640Y34447322D01*
X28796863Y34392806D01*
X28211556Y33807497D01*
X28157039Y33779719D01*
X28141552Y33778500D01*
X20741122Y33778500D01*
X20609337Y33778500D01*
X20531429Y33757625D01*
X20482038Y33744391D01*
X20367919Y33678504D01*
X20367914Y33678500D01*
X20078431Y33389017D01*
X20023915Y33361240D01*
X19963484Y33370811D01*
X19885304Y33410646D01*
X19885305Y33410646D01*
X19791521Y33425500D01*
X18728478Y33425500D01*
X18728476Y33425499D01*
X18634700Y33410648D01*
X18634695Y33410646D01*
X18521659Y33353051D01*
X18431949Y33263341D01*
X18374354Y33150305D01*
X18371947Y33142896D01*
X18369674Y33143635D01*
X18347140Y33099433D01*
X18292617Y33071667D01*
X18232187Y33081252D01*
X18222159Y33087132D01*
X18105495Y33165084D01*
X18100751Y33167049D01*
X17968914Y33221658D01*
X17823918Y33250500D01*
X17676082Y33250500D01*
X17676074Y33250500D01*
X17631900Y33241713D01*
X17571139Y33248905D01*
X17542587Y33268805D01*
X17458342Y33353050D01*
X17345304Y33410646D01*
X17345305Y33410646D01*
X17251521Y33425500D01*
X16188478Y33425500D01*
X16188476Y33425499D01*
X16094700Y33410648D01*
X16094695Y33410646D01*
X15981659Y33353051D01*
X15891949Y33263341D01*
X15834354Y33150305D01*
X15819500Y33056522D01*
X15819500Y29843479D01*
X15819501Y29843477D01*
X15834352Y29749701D01*
X15834354Y29749696D01*
X15891950Y29636658D01*
X15981658Y29546950D01*
X16094696Y29489354D01*
X16188481Y29474500D01*
X16276677Y29474501D01*
X16334868Y29455594D01*
X16346682Y29445504D01*
X16622682Y29169503D01*
X16650459Y29114987D01*
X16640888Y29054555D01*
X16597623Y29011290D01*
X16552678Y29000500D01*
X15498322Y29000500D01*
X15440131Y29019407D01*
X15428318Y29029496D01*
X14984606Y29473208D01*
X14956829Y29527725D01*
X14966400Y29588157D01*
X14984605Y29613214D01*
X15008050Y29636658D01*
X15065646Y29749696D01*
X15080500Y29843481D01*
X15080499Y33056518D01*
X15080499Y33056521D01*
X15080499Y33056522D01*
X15080498Y33056524D01*
X15065647Y33150300D01*
X15065646Y33150302D01*
X15065646Y33150304D01*
X15008050Y33263342D01*
X14918342Y33353050D01*
X14805304Y33410646D01*
X14805305Y33410646D01*
X14711521Y33425500D01*
X13648478Y33425500D01*
X13648476Y33425499D01*
X13554700Y33410648D01*
X13554695Y33410646D01*
X13441659Y33353051D01*
X13351949Y33263341D01*
X13294354Y33150305D01*
X13279500Y33056522D01*
X12439999Y33056522D01*
X12439999Y33069790D01*
X12439998Y33069792D01*
X12437090Y33094875D01*
X12391786Y33197478D01*
X12312477Y33276787D01*
X12209872Y33322091D01*
X12184797Y33325000D01*
X11790001Y33325000D01*
X11790000Y33324999D01*
X11490000Y33324999D01*
X11489999Y33325000D01*
X11095210Y33325000D01*
X11095207Y33324999D01*
X11070125Y33322091D01*
X10967522Y33276787D01*
X10888213Y33197478D01*
X10842909Y33094873D01*
X10840000Y33069798D01*
X9998396Y33069798D01*
X9985647Y33150301D01*
X9985646Y33150303D01*
X9985646Y33150304D01*
X9928050Y33263342D01*
X9838342Y33353050D01*
X9725304Y33410646D01*
X9725305Y33410646D01*
X9631521Y33425500D01*
X8568478Y33425500D01*
X8568476Y33425499D01*
X8474700Y33410648D01*
X8474695Y33410646D01*
X8361659Y33353051D01*
X8271949Y33263341D01*
X8214354Y33150305D01*
X8199500Y33056522D01*
X7460498Y33056522D01*
X7460498Y33056525D01*
X7445647Y33150300D01*
X7445646Y33150302D01*
X7445646Y33150304D01*
X7388050Y33263342D01*
X7298342Y33353050D01*
X7185304Y33410646D01*
X7185305Y33410646D01*
X7091521Y33425500D01*
X6028478Y33425500D01*
X6028476Y33425499D01*
X5934700Y33410648D01*
X5934695Y33410646D01*
X5821659Y33353051D01*
X5731949Y33263341D01*
X5674354Y33150305D01*
X5659500Y33056522D01*
X500500Y33056522D01*
X500500Y38106522D01*
X5659500Y38106522D01*
X5659500Y34893479D01*
X5659501Y34893477D01*
X5674352Y34799701D01*
X5674354Y34799696D01*
X5731950Y34686658D01*
X5821658Y34596950D01*
X5934696Y34539354D01*
X6028481Y34524500D01*
X7091518Y34524501D01*
X7091521Y34524501D01*
X7091522Y34524502D01*
X7139304Y34532069D01*
X7185299Y34539353D01*
X7185299Y34539354D01*
X7185304Y34539354D01*
X7298342Y34596950D01*
X7388050Y34686658D01*
X7445646Y34799696D01*
X7460500Y34893481D01*
X7460499Y38106518D01*
X7460499Y38106521D01*
X7460499Y38106522D01*
X7460498Y38106524D01*
X7445647Y38200300D01*
X7445646Y38200302D01*
X7445646Y38200304D01*
X7388050Y38313342D01*
X7298342Y38403050D01*
X7185304Y38460646D01*
X7185305Y38460646D01*
X7091521Y38475500D01*
X6028478Y38475500D01*
X6028476Y38475499D01*
X5934700Y38460648D01*
X5934695Y38460646D01*
X5821659Y38403051D01*
X5731949Y38313341D01*
X5674354Y38200305D01*
X5659500Y38106522D01*
X500500Y38106522D01*
X500500Y45569183D01*
X5724499Y45569183D01*
X5724499Y45563227D01*
X5724499Y45422843D01*
X5724500Y45422830D01*
X5724500Y44325263D01*
X5724499Y44325245D01*
X5724499Y44180815D01*
X5746846Y44097418D01*
X5746846Y44097417D01*
X5760310Y44047168D01*
X5760311Y44047165D01*
X5760312Y44047164D01*
X5829495Y43927335D01*
X5927335Y43829495D01*
X5927337Y43829494D01*
X6566993Y43189838D01*
X6566995Y43189835D01*
X6664835Y43091995D01*
X6715056Y43063000D01*
X6784665Y43022811D01*
X6918317Y42986999D01*
X6918319Y42986999D01*
X7062747Y42986999D01*
X7062763Y42987000D01*
X8256920Y42987000D01*
X8271737Y42982186D01*
X8287316Y42982218D01*
X8300101Y42972970D01*
X8315111Y42968093D01*
X8324269Y42955489D01*
X8336891Y42946358D01*
X8341798Y42931362D01*
X8351075Y42918593D01*
X8351075Y42903013D01*
X8355920Y42888206D01*
X8351075Y42873431D01*
X8351075Y42857407D01*
X8337134Y42829976D01*
X8336887Y42829635D01*
X8273531Y42743789D01*
X8272351Y42740419D01*
X8266047Y42731703D01*
X8252518Y42721831D01*
X8235333Y42703991D01*
X8177339Y42670509D01*
X8177334Y42670505D01*
X8079494Y42572666D01*
X8079495Y42572665D01*
X8079493Y42572663D01*
X7427337Y41920507D01*
X7427335Y41920505D01*
X7427334Y41920506D01*
X7329494Y41822665D01*
X7260315Y41702844D01*
X7260313Y41702839D01*
X7260312Y41702837D01*
X7260312Y41702836D01*
X7252743Y41674592D01*
X7230152Y41590280D01*
X7224499Y41569182D01*
X7224499Y41422843D01*
X7224500Y41422830D01*
X7224500Y39540731D01*
X7224499Y39540713D01*
X7224499Y39396286D01*
X7250294Y39300016D01*
X7260312Y39262632D01*
X7260313Y39262629D01*
X7329493Y39142806D01*
X7329495Y39142803D01*
X7427335Y39044963D01*
X7427337Y39044962D01*
X8186567Y38285732D01*
X8214344Y38231215D01*
X8214344Y38200241D01*
X8199500Y38106522D01*
X8199500Y34893479D01*
X8199501Y34893477D01*
X8214352Y34799701D01*
X8214354Y34799696D01*
X8271950Y34686658D01*
X8361658Y34596950D01*
X8474696Y34539354D01*
X8568481Y34524500D01*
X9631518Y34524501D01*
X9631521Y34524501D01*
X9631522Y34524502D01*
X9679304Y34532069D01*
X9725299Y34539353D01*
X9725299Y34539354D01*
X9725304Y34539354D01*
X9838342Y34596950D01*
X9928050Y34686658D01*
X9985646Y34799696D01*
X10000500Y34893481D01*
X10000499Y38106518D01*
X10000499Y38106521D01*
X10000499Y38106522D01*
X10000498Y38106524D01*
X9985647Y38200300D01*
X9985646Y38200302D01*
X9985646Y38200304D01*
X9928050Y38313342D01*
X9838342Y38403050D01*
X9725304Y38460646D01*
X9725305Y38460646D01*
X9631522Y38475500D01*
X9631519Y38475500D01*
X9524146Y38475500D01*
X9516548Y38477969D01*
X9508660Y38476719D01*
X9488004Y38487243D01*
X9465955Y38494407D01*
X9454143Y38504495D01*
X9422665Y38535973D01*
X9422662Y38535975D01*
X8304496Y39654141D01*
X8276719Y39708658D01*
X8275500Y39724145D01*
X8275500Y41241325D01*
X8294407Y41299516D01*
X8304490Y41311322D01*
X8488054Y41494887D01*
X8542569Y41522663D01*
X8590754Y41518327D01*
X8600451Y41514933D01*
X8629293Y41512229D01*
X8631717Y41512001D01*
X8631721Y41512000D01*
X8631728Y41512000D01*
X8868279Y41512000D01*
X8868281Y41512001D01*
X8899549Y41514933D01*
X9031289Y41561031D01*
X9074602Y41592998D01*
X9077526Y41593972D01*
X9079467Y41596368D01*
X9106291Y41603557D01*
X9132647Y41612338D01*
X9135587Y41611407D01*
X9138567Y41612205D01*
X9164498Y41602252D01*
X9190977Y41593867D01*
X9192808Y41591386D01*
X9195689Y41590280D01*
X9210817Y41566986D01*
X9227311Y41544638D01*
X9229014Y41538966D01*
X9239589Y41499503D01*
X9239589Y41499500D01*
X9239590Y41499500D01*
X9260312Y41422164D01*
X9329495Y41302335D01*
X9427335Y41204495D01*
X9427337Y41204494D01*
X9645504Y40986327D01*
X9673281Y40931810D01*
X9674500Y40916323D01*
X9674500Y40460571D01*
X9676759Y40431853D01*
X9677346Y40424402D01*
X9722319Y40269606D01*
X9804374Y40130857D01*
X9918357Y40016874D01*
X9918359Y40016873D01*
X9918361Y40016871D01*
X9923279Y40013056D01*
X9921419Y40010659D01*
X9953787Y39974077D01*
X9962000Y39934596D01*
X9962000Y39573431D01*
X9977002Y39498014D01*
X9977001Y39498014D01*
X9985097Y39457316D01*
X9986466Y39443413D01*
X9986524Y39443418D01*
X9987000Y39438582D01*
X10015842Y39293587D01*
X10072416Y39157005D01*
X10154549Y39034084D01*
X10259084Y38929549D01*
X10382005Y38847416D01*
X10518587Y38790842D01*
X10663582Y38762000D01*
X10663583Y38762000D01*
X10811417Y38762000D01*
X10811418Y38762000D01*
X10956413Y38790842D01*
X10977615Y38799625D01*
X10981638Y38799941D01*
X10984907Y38802316D01*
X11011807Y38802316D01*
X11038609Y38804426D01*
X11042052Y38802316D01*
X11046093Y38802316D01*
X11067853Y38786506D01*
X11090779Y38772458D01*
X11092324Y38768727D01*
X11095593Y38766352D01*
X11103902Y38740778D01*
X11114195Y38715931D01*
X11114500Y38708161D01*
X11114500Y38561008D01*
X11095593Y38502817D01*
X11046093Y38466853D01*
X11030987Y38463227D01*
X11014699Y38460648D01*
X11014695Y38460646D01*
X10901659Y38403051D01*
X10811949Y38313341D01*
X10754354Y38200305D01*
X10739500Y38106522D01*
X10739500Y34893479D01*
X10739501Y34893477D01*
X10754352Y34799701D01*
X10754354Y34799696D01*
X10811950Y34686658D01*
X10901658Y34596950D01*
X11014696Y34539354D01*
X11108481Y34524500D01*
X12171518Y34524501D01*
X12171521Y34524501D01*
X12171522Y34524502D01*
X12219304Y34532069D01*
X12265299Y34539353D01*
X12265299Y34539354D01*
X12265304Y34539354D01*
X12378342Y34596950D01*
X12468050Y34686658D01*
X12525646Y34799696D01*
X12540500Y34893481D01*
X12540499Y38106518D01*
X12540498Y38106522D01*
X13279500Y38106522D01*
X13279500Y34893479D01*
X13279501Y34893477D01*
X13294352Y34799701D01*
X13294354Y34799696D01*
X13351950Y34686658D01*
X13441658Y34596950D01*
X13554696Y34539354D01*
X13648481Y34524500D01*
X14711518Y34524501D01*
X14711521Y34524501D01*
X14711522Y34524502D01*
X14759304Y34532069D01*
X14805299Y34539353D01*
X14805299Y34539354D01*
X14805304Y34539354D01*
X14918342Y34596950D01*
X15008050Y34686658D01*
X15065646Y34799696D01*
X15080302Y34892231D01*
X15080500Y34893479D01*
X15080500Y36349999D01*
X15920001Y36349999D01*
X15920001Y34880209D01*
X15922909Y34855126D01*
X15968213Y34752523D01*
X16047522Y34673214D01*
X16150127Y34627910D01*
X16175203Y34625001D01*
X16569998Y34625001D01*
X16570000Y34625002D01*
X16570000Y36349999D01*
X16870000Y36349999D01*
X16870000Y34625002D01*
X16870001Y34625001D01*
X17264790Y34625001D01*
X17264791Y34625002D01*
X17289874Y34627910D01*
X17392477Y34673214D01*
X17471786Y34752523D01*
X17517090Y34855128D01*
X17519999Y34880203D01*
X17520000Y34880205D01*
X17520000Y36349999D01*
X17519999Y36350000D01*
X16870001Y36350000D01*
X16870000Y36349999D01*
X16570000Y36349999D01*
X16569999Y36350000D01*
X15920002Y36350000D01*
X15920001Y36349999D01*
X15080500Y36349999D01*
X15080500Y36391007D01*
X15080499Y38106518D01*
X15080396Y38107168D01*
X15080396Y38107171D01*
X15078396Y38119798D01*
X15920000Y38119798D01*
X15920000Y36650001D01*
X15920001Y36650000D01*
X16569999Y36650000D01*
X16570000Y36650001D01*
X16570000Y38374999D01*
X16870000Y38374999D01*
X16870000Y36650001D01*
X16870001Y36650000D01*
X17519998Y36650000D01*
X17519999Y36650001D01*
X17519999Y38106522D01*
X18359500Y38106522D01*
X18359500Y34893479D01*
X18359501Y34893477D01*
X18374352Y34799701D01*
X18374354Y34799696D01*
X18431950Y34686658D01*
X18521658Y34596950D01*
X18634696Y34539354D01*
X18728481Y34524500D01*
X19791518Y34524501D01*
X19791521Y34524501D01*
X19791522Y34524502D01*
X19839304Y34532069D01*
X19885299Y34539353D01*
X19885299Y34539354D01*
X19885304Y34539354D01*
X19998342Y34596950D01*
X20088050Y34686658D01*
X20118720Y34746852D01*
X20161981Y34790113D01*
X20222413Y34799685D01*
X20244814Y34793367D01*
X20281078Y34778345D01*
X20281081Y34778345D01*
X20281087Y34778342D01*
X20426082Y34749500D01*
X20426083Y34749500D01*
X20573917Y34749500D01*
X20573918Y34749500D01*
X20718913Y34778342D01*
X20804731Y34813890D01*
X20865726Y34818690D01*
X20917895Y34786721D01*
X20930824Y34767371D01*
X20956800Y34716392D01*
X20971950Y34686658D01*
X21061658Y34596950D01*
X21174696Y34539354D01*
X21268481Y34524500D01*
X22331518Y34524501D01*
X22331521Y34524501D01*
X22331522Y34524502D01*
X22379304Y34532069D01*
X22425299Y34539353D01*
X22425299Y34539354D01*
X22425304Y34539354D01*
X22538342Y34596950D01*
X22628050Y34686658D01*
X22685646Y34799696D01*
X22700500Y34893481D01*
X22700499Y38106518D01*
X22700498Y38106522D01*
X23439500Y38106522D01*
X23439500Y34893479D01*
X23439501Y34893477D01*
X23454352Y34799701D01*
X23454354Y34799696D01*
X23511950Y34686658D01*
X23601658Y34596950D01*
X23714696Y34539354D01*
X23808481Y34524500D01*
X24871518Y34524501D01*
X24871521Y34524501D01*
X24871522Y34524502D01*
X24919304Y34532069D01*
X24965299Y34539353D01*
X24965299Y34539354D01*
X24965304Y34539354D01*
X25078342Y34596950D01*
X25168050Y34686658D01*
X25225646Y34799696D01*
X25240500Y34893481D01*
X25240499Y38106518D01*
X25240498Y38106522D01*
X25979500Y38106522D01*
X25979500Y34893479D01*
X25979501Y34893477D01*
X25994352Y34799701D01*
X25994354Y34799696D01*
X26051950Y34686658D01*
X26141658Y34596950D01*
X26254696Y34539354D01*
X26348481Y34524500D01*
X27411518Y34524501D01*
X27411521Y34524501D01*
X27411522Y34524502D01*
X27459304Y34532069D01*
X27505299Y34539353D01*
X27505299Y34539354D01*
X27505304Y34539354D01*
X27618342Y34596950D01*
X27708050Y34686658D01*
X27765646Y34799696D01*
X27780500Y34893481D01*
X27780499Y38106518D01*
X27780499Y38106521D01*
X27780499Y38106522D01*
X27780498Y38106524D01*
X27765647Y38200300D01*
X27765646Y38200302D01*
X27765646Y38200304D01*
X27708050Y38313342D01*
X27618342Y38403050D01*
X27505304Y38460646D01*
X27505305Y38460646D01*
X27411521Y38475500D01*
X26348478Y38475500D01*
X26348476Y38475499D01*
X26254700Y38460648D01*
X26254695Y38460646D01*
X26141659Y38403051D01*
X26051949Y38313341D01*
X25994354Y38200305D01*
X25979500Y38106522D01*
X25240498Y38106522D01*
X25240498Y38106525D01*
X25225647Y38200300D01*
X25225646Y38200302D01*
X25225646Y38200304D01*
X25168050Y38313342D01*
X25078342Y38403050D01*
X24965304Y38460646D01*
X24965305Y38460646D01*
X24871521Y38475500D01*
X23808478Y38475500D01*
X23808476Y38475499D01*
X23714700Y38460648D01*
X23714695Y38460646D01*
X23601659Y38403051D01*
X23511949Y38313341D01*
X23454354Y38200305D01*
X23439500Y38106522D01*
X22700498Y38106522D01*
X22700498Y38106525D01*
X22685647Y38200300D01*
X22685646Y38200302D01*
X22685646Y38200304D01*
X22628050Y38313342D01*
X22538342Y38403050D01*
X22425304Y38460646D01*
X22425305Y38460646D01*
X22331521Y38475500D01*
X21268478Y38475500D01*
X21268476Y38475499D01*
X21174700Y38460648D01*
X21174695Y38460646D01*
X21061659Y38403051D01*
X20971949Y38313341D01*
X20914354Y38200305D01*
X20899500Y38106522D01*
X20899500Y36295021D01*
X20880593Y36236830D01*
X20831093Y36200866D01*
X20769907Y36200866D01*
X20762616Y36203556D01*
X20742979Y36211690D01*
X20718913Y36221658D01*
X20573918Y36250500D01*
X20426082Y36250500D01*
X20426079Y36250500D01*
X20278813Y36221206D01*
X20218052Y36228398D01*
X20173122Y36269930D01*
X20160499Y36318304D01*
X20160499Y38106522D01*
X20160498Y38106524D01*
X20145647Y38200300D01*
X20145646Y38200302D01*
X20145646Y38200304D01*
X20088050Y38313342D01*
X19998342Y38403050D01*
X19885304Y38460646D01*
X19885305Y38460646D01*
X19791521Y38475500D01*
X18728478Y38475500D01*
X18728476Y38475499D01*
X18634700Y38460648D01*
X18634695Y38460646D01*
X18521659Y38403051D01*
X18431949Y38313341D01*
X18374354Y38200305D01*
X18359500Y38106522D01*
X17519999Y38106522D01*
X17519999Y38119790D01*
X17519998Y38119792D01*
X17517090Y38144875D01*
X17471786Y38247478D01*
X17392477Y38326787D01*
X17289872Y38372091D01*
X17264797Y38375000D01*
X16870001Y38375000D01*
X16870000Y38374999D01*
X16570000Y38374999D01*
X16569999Y38375000D01*
X16175210Y38375000D01*
X16175207Y38374999D01*
X16150125Y38372091D01*
X16047522Y38326787D01*
X15968213Y38247478D01*
X15922909Y38144873D01*
X15920000Y38119798D01*
X15078396Y38119798D01*
X15065647Y38200301D01*
X15065646Y38200303D01*
X15065646Y38200304D01*
X15008050Y38313342D01*
X14918342Y38403050D01*
X14805304Y38460646D01*
X14805305Y38460646D01*
X14711521Y38475500D01*
X13648478Y38475500D01*
X13648476Y38475499D01*
X13554700Y38460648D01*
X13554695Y38460646D01*
X13441659Y38403051D01*
X13351949Y38313341D01*
X13294354Y38200305D01*
X13279500Y38106522D01*
X12540498Y38106522D01*
X12540498Y38106525D01*
X12525647Y38200300D01*
X12525646Y38200302D01*
X12525646Y38200304D01*
X12468050Y38313342D01*
X12378342Y38403050D01*
X12265304Y38460646D01*
X12265306Y38460646D01*
X12249010Y38463227D01*
X12241894Y38466853D01*
X12233907Y38466853D01*
X12215148Y38480483D01*
X12194494Y38491007D01*
X12190868Y38498123D01*
X12184407Y38502817D01*
X12177242Y38524867D01*
X12166718Y38545524D01*
X12165500Y38561008D01*
X12165500Y38631323D01*
X12184407Y38689514D01*
X12194496Y38701327D01*
X13104563Y39611394D01*
X13817089Y40323919D01*
X30249500Y40323919D01*
X30249500Y40176082D01*
X30278342Y40031086D01*
X30292058Y39997973D01*
X30334916Y39894505D01*
X30417049Y39771584D01*
X30521584Y39667049D01*
X30644505Y39584916D01*
X30781087Y39528342D01*
X30926082Y39499500D01*
X30926083Y39499500D01*
X31073917Y39499500D01*
X31073918Y39499500D01*
X31218913Y39528342D01*
X31355495Y39584916D01*
X31478416Y39667049D01*
X31582951Y39771584D01*
X31665084Y39894505D01*
X31721658Y40031087D01*
X31750500Y40176082D01*
X31750500Y40323918D01*
X31750500Y40323919D01*
X37249500Y40323919D01*
X37249500Y40176082D01*
X37278342Y40031086D01*
X37292058Y39997973D01*
X37334916Y39894505D01*
X37417049Y39771584D01*
X37521584Y39667049D01*
X37644505Y39584916D01*
X37781087Y39528342D01*
X37926082Y39499500D01*
X37926083Y39499500D01*
X38073917Y39499500D01*
X38073918Y39499500D01*
X38218913Y39528342D01*
X38355495Y39584916D01*
X38478416Y39667049D01*
X38582951Y39771584D01*
X38665084Y39894505D01*
X38721658Y40031087D01*
X38750500Y40176082D01*
X38750500Y40323918D01*
X38750500Y40323919D01*
X43999500Y40323919D01*
X43999500Y40176082D01*
X44028342Y40031086D01*
X44042058Y39997973D01*
X44084916Y39894505D01*
X44167049Y39771584D01*
X44271584Y39667049D01*
X44394505Y39584916D01*
X44531087Y39528342D01*
X44676082Y39499500D01*
X44676083Y39499500D01*
X44823917Y39499500D01*
X44823918Y39499500D01*
X44968913Y39528342D01*
X45105495Y39584916D01*
X45188693Y39640507D01*
X61849500Y39640507D01*
X61849500Y37759494D01*
X61860111Y37624659D01*
X61916208Y37402030D01*
X61916209Y37402028D01*
X62011162Y37192984D01*
X62141908Y37004263D01*
X62141911Y37004259D01*
X62304259Y36841911D01*
X62492986Y36711161D01*
X62702026Y36616210D01*
X62702028Y36616210D01*
X62702029Y36616209D01*
X62813343Y36588161D01*
X62924661Y36560111D01*
X63059487Y36549500D01*
X64940512Y36549501D01*
X65075339Y36560111D01*
X65297974Y36616210D01*
X65507014Y36711161D01*
X65695741Y36841911D01*
X65858089Y37004259D01*
X65988839Y37192986D01*
X66083790Y37402026D01*
X66139889Y37624661D01*
X66150500Y37759487D01*
X66150499Y39640512D01*
X66139889Y39775339D01*
X66089812Y39974077D01*
X66083791Y39997971D01*
X66083790Y39997973D01*
X66083790Y39997974D01*
X65988839Y40207014D01*
X65858089Y40395741D01*
X65695741Y40558089D01*
X65627316Y40605494D01*
X65507016Y40688838D01*
X65297972Y40783791D01*
X65297970Y40783792D01*
X65075341Y40839889D01*
X65045377Y40842247D01*
X64940513Y40850500D01*
X64940506Y40850500D01*
X63059493Y40850500D01*
X62924658Y40839889D01*
X62702029Y40783792D01*
X62702027Y40783791D01*
X62492983Y40688838D01*
X62304262Y40558092D01*
X62141908Y40395738D01*
X62011162Y40207017D01*
X61916209Y39997973D01*
X61916208Y39997971D01*
X61860111Y39775342D01*
X61859815Y39771584D01*
X61850614Y39654659D01*
X61849500Y39640507D01*
X45188693Y39640507D01*
X45228416Y39667049D01*
X45332951Y39771584D01*
X45415084Y39894505D01*
X45471658Y40031087D01*
X45500500Y40176082D01*
X45500500Y40323918D01*
X45471658Y40468913D01*
X45415084Y40605495D01*
X45332951Y40728416D01*
X45228416Y40832951D01*
X45105495Y40915084D01*
X45027999Y40947184D01*
X44968914Y40971658D01*
X44823918Y41000500D01*
X44676082Y41000500D01*
X44676081Y41000500D01*
X44531085Y40971658D01*
X44394506Y40915085D01*
X44271585Y40832952D01*
X44167048Y40728415D01*
X44084915Y40605494D01*
X44028342Y40468915D01*
X43999500Y40323919D01*
X38750500Y40323919D01*
X38721658Y40468913D01*
X38665084Y40605495D01*
X38582951Y40728416D01*
X38478416Y40832951D01*
X38355495Y40915084D01*
X38277999Y40947184D01*
X38218914Y40971658D01*
X38073918Y41000500D01*
X37926082Y41000500D01*
X37926081Y41000500D01*
X37781085Y40971658D01*
X37644506Y40915085D01*
X37521585Y40832952D01*
X37417048Y40728415D01*
X37334915Y40605494D01*
X37278342Y40468915D01*
X37249500Y40323919D01*
X31750500Y40323919D01*
X31721658Y40468913D01*
X31665084Y40605495D01*
X31582951Y40728416D01*
X31478416Y40832951D01*
X31355495Y40915084D01*
X31277999Y40947184D01*
X31218914Y40971658D01*
X31073918Y41000500D01*
X30926082Y41000500D01*
X30926081Y41000500D01*
X30781085Y40971658D01*
X30644506Y40915085D01*
X30521585Y40832952D01*
X30417048Y40728415D01*
X30334915Y40605494D01*
X30278342Y40468915D01*
X30249500Y40323919D01*
X13817089Y40323919D01*
X14048505Y40555335D01*
X14050097Y40558092D01*
X14117687Y40675161D01*
X14117687Y40675163D01*
X14117689Y40675165D01*
X14153501Y40808817D01*
X14153501Y40947184D01*
X14153501Y40953246D01*
X14153500Y40953264D01*
X14153500Y42323919D01*
X20249500Y42323919D01*
X20249500Y42176082D01*
X20278342Y42031086D01*
X20324146Y41920506D01*
X20334916Y41894505D01*
X20417049Y41771584D01*
X20521584Y41667049D01*
X20644505Y41584916D01*
X20781087Y41528342D01*
X20926082Y41499500D01*
X20926083Y41499500D01*
X21073917Y41499500D01*
X21073918Y41499500D01*
X21218913Y41528342D01*
X21355495Y41584916D01*
X21478416Y41667049D01*
X21582951Y41771584D01*
X21665084Y41894505D01*
X21721658Y42031087D01*
X21750500Y42176082D01*
X21750500Y42323918D01*
X21750500Y42323919D01*
X26749500Y42323919D01*
X26749500Y42176082D01*
X26778342Y42031086D01*
X26824146Y41920506D01*
X26834916Y41894505D01*
X26917049Y41771584D01*
X27021584Y41667049D01*
X27144505Y41584916D01*
X27281087Y41528342D01*
X27426082Y41499500D01*
X27426083Y41499500D01*
X27573917Y41499500D01*
X27573918Y41499500D01*
X27718913Y41528342D01*
X27855495Y41584916D01*
X27978416Y41667049D01*
X28082951Y41771584D01*
X28165084Y41894505D01*
X28221658Y42031087D01*
X28250500Y42176082D01*
X28250500Y42323918D01*
X28221658Y42468913D01*
X28165084Y42605495D01*
X28082951Y42728416D01*
X27978416Y42832951D01*
X27855495Y42915084D01*
X27847024Y42918593D01*
X27718914Y42971658D01*
X27573918Y43000500D01*
X27426082Y43000500D01*
X27426081Y43000500D01*
X27281085Y42971658D01*
X27144506Y42915085D01*
X27021585Y42832952D01*
X26917048Y42728415D01*
X26834915Y42605494D01*
X26778342Y42468915D01*
X26749500Y42323919D01*
X21750500Y42323919D01*
X21721658Y42468913D01*
X21665084Y42605495D01*
X21582951Y42728416D01*
X21478416Y42832951D01*
X21355495Y42915084D01*
X21347024Y42918593D01*
X21218914Y42971658D01*
X21073918Y43000500D01*
X20926082Y43000500D01*
X20926081Y43000500D01*
X20781085Y42971658D01*
X20644506Y42915085D01*
X20521585Y42832952D01*
X20417048Y42728415D01*
X20334915Y42605494D01*
X20278342Y42468915D01*
X20249500Y42323919D01*
X14153500Y42323919D01*
X14153500Y45441182D01*
X14147395Y45463966D01*
X14117688Y45574836D01*
X14048505Y45694665D01*
X13950665Y45792505D01*
X13950662Y45792507D01*
X12519748Y47223421D01*
X19249500Y47223421D01*
X19249500Y46776580D01*
X19280289Y46582179D01*
X19341116Y46394975D01*
X19415238Y46249500D01*
X19430476Y46219595D01*
X19546172Y46060354D01*
X19685354Y45921172D01*
X19844595Y45805476D01*
X19844597Y45805475D01*
X19987846Y45732486D01*
X20031111Y45689221D01*
X20040682Y45628789D01*
X20012905Y45574273D01*
X19917050Y45478418D01*
X19834915Y45355494D01*
X19778342Y45218915D01*
X19749500Y45073919D01*
X19749500Y44926082D01*
X19761090Y44867814D01*
X19778342Y44781087D01*
X19834916Y44644505D01*
X19917049Y44521584D01*
X20021584Y44417049D01*
X20144505Y44334916D01*
X20281087Y44278342D01*
X20426082Y44249500D01*
X20426083Y44249500D01*
X20573917Y44249500D01*
X20573918Y44249500D01*
X20718913Y44278342D01*
X20855495Y44334916D01*
X20978416Y44417049D01*
X21082951Y44521584D01*
X21165084Y44644505D01*
X21221658Y44781087D01*
X21250500Y44926082D01*
X21250500Y45073918D01*
X21221658Y45218913D01*
X21165084Y45355495D01*
X21082951Y45478416D01*
X20987092Y45574275D01*
X20959317Y45628789D01*
X20968888Y45689221D01*
X21012153Y45732486D01*
X21058141Y45755918D01*
X21155405Y45805476D01*
X21314646Y45921172D01*
X21453828Y46060354D01*
X21569524Y46219595D01*
X21658884Y46394975D01*
X21658884Y46394976D01*
X21660650Y46398441D01*
X21661742Y46397885D01*
X21698264Y46440655D01*
X21757757Y46454945D01*
X21814288Y46431536D01*
X21838607Y46398063D01*
X21839350Y46398441D01*
X21915238Y46249500D01*
X21930476Y46219595D01*
X22046172Y46060354D01*
X22185354Y45921172D01*
X22344595Y45805476D01*
X22519975Y45716116D01*
X22707174Y45655291D01*
X22707175Y45655291D01*
X22707178Y45655290D01*
X22901580Y45624500D01*
X22901583Y45624500D01*
X23098420Y45624500D01*
X23292821Y45655290D01*
X23292822Y45655291D01*
X23292826Y45655291D01*
X23480025Y45716116D01*
X23655405Y45805476D01*
X23814646Y45921172D01*
X23953828Y46060354D01*
X24069524Y46219595D01*
X24158884Y46394975D01*
X24158884Y46394976D01*
X24160650Y46398441D01*
X24161742Y46397885D01*
X24198264Y46440655D01*
X24257757Y46454945D01*
X24314288Y46431536D01*
X24338607Y46398063D01*
X24339350Y46398441D01*
X24415238Y46249500D01*
X24430476Y46219595D01*
X24546172Y46060354D01*
X24685354Y45921172D01*
X24844595Y45805476D01*
X25019975Y45716116D01*
X25207174Y45655291D01*
X25207175Y45655291D01*
X25207178Y45655290D01*
X25401580Y45624500D01*
X25401583Y45624500D01*
X25598420Y45624500D01*
X25792821Y45655290D01*
X25792822Y45655291D01*
X25792826Y45655291D01*
X25980025Y45716116D01*
X26155405Y45805476D01*
X26314646Y45921172D01*
X26453828Y46060354D01*
X26569524Y46219595D01*
X26658884Y46394975D01*
X26719709Y46582174D01*
X26722627Y46600598D01*
X26750500Y46776580D01*
X26750500Y47223421D01*
X56999500Y47223421D01*
X56999500Y46776580D01*
X57030289Y46582179D01*
X57091116Y46394975D01*
X57165238Y46249500D01*
X57180476Y46219595D01*
X57296172Y46060354D01*
X57435354Y45921172D01*
X57594595Y45805476D01*
X57769975Y45716116D01*
X57957174Y45655291D01*
X57957175Y45655291D01*
X57957178Y45655290D01*
X58151580Y45624500D01*
X58151583Y45624500D01*
X58348420Y45624500D01*
X58542821Y45655290D01*
X58542822Y45655291D01*
X58542826Y45655291D01*
X58730025Y45716116D01*
X58905405Y45805476D01*
X59064646Y45921172D01*
X59203828Y46060354D01*
X59319524Y46219595D01*
X59408884Y46394975D01*
X59408884Y46394976D01*
X59410650Y46398441D01*
X59411742Y46397885D01*
X59448264Y46440655D01*
X59507757Y46454945D01*
X59564288Y46431536D01*
X59588607Y46398063D01*
X59589350Y46398441D01*
X59665238Y46249500D01*
X59680476Y46219595D01*
X59796172Y46060354D01*
X59935354Y45921172D01*
X60094595Y45805476D01*
X60094597Y45805475D01*
X60237846Y45732486D01*
X60281111Y45689221D01*
X60290682Y45628789D01*
X60262905Y45574273D01*
X60167050Y45478418D01*
X60084915Y45355494D01*
X60028342Y45218915D01*
X59999500Y45073919D01*
X59999500Y44926082D01*
X60011090Y44867814D01*
X60028342Y44781087D01*
X60084916Y44644505D01*
X60167049Y44521584D01*
X60271584Y44417049D01*
X60394505Y44334916D01*
X60531087Y44278342D01*
X60676082Y44249500D01*
X60676083Y44249500D01*
X60823917Y44249500D01*
X60823918Y44249500D01*
X60968913Y44278342D01*
X61105495Y44334916D01*
X61228416Y44417049D01*
X61332951Y44521584D01*
X61415084Y44644505D01*
X61471658Y44781087D01*
X61500500Y44926082D01*
X61500500Y45073918D01*
X61471658Y45218913D01*
X61415084Y45355495D01*
X61332951Y45478416D01*
X61237092Y45574275D01*
X61209317Y45628789D01*
X61218888Y45689221D01*
X61262153Y45732486D01*
X61308141Y45755918D01*
X61405405Y45805476D01*
X61564646Y45921172D01*
X61703828Y46060354D01*
X61819524Y46219595D01*
X61908884Y46394975D01*
X61957956Y46546003D01*
X61993919Y46595501D01*
X62052110Y46614408D01*
X62110301Y46595501D01*
X62134423Y46570412D01*
X62167049Y46521584D01*
X62271584Y46417049D01*
X62394505Y46334916D01*
X62531087Y46278342D01*
X62676082Y46249500D01*
X62676083Y46249500D01*
X62823917Y46249500D01*
X62823918Y46249500D01*
X62968913Y46278342D01*
X63105495Y46334916D01*
X63228416Y46417049D01*
X63332951Y46521584D01*
X63415084Y46644505D01*
X63471658Y46781087D01*
X63500500Y46926082D01*
X63500500Y47073918D01*
X63471658Y47218913D01*
X63415084Y47355495D01*
X63332951Y47478416D01*
X63228416Y47582951D01*
X63105495Y47665084D01*
X63092398Y47670509D01*
X62968914Y47721658D01*
X62823918Y47750500D01*
X62676082Y47750500D01*
X62676081Y47750500D01*
X62531085Y47721658D01*
X62394506Y47665085D01*
X62271585Y47582952D01*
X62167048Y47478415D01*
X62134425Y47429591D01*
X62086375Y47391712D01*
X62025236Y47389310D01*
X61974363Y47423303D01*
X61957955Y47454000D01*
X61950022Y47478416D01*
X61908884Y47605025D01*
X61819524Y47780405D01*
X61703828Y47939646D01*
X61564646Y48078828D01*
X61405405Y48194524D01*
X61405404Y48194525D01*
X61405402Y48194526D01*
X61262153Y48267515D01*
X61218888Y48310780D01*
X61209317Y48371212D01*
X61237093Y48425727D01*
X61332951Y48521584D01*
X61415084Y48644505D01*
X61471658Y48781087D01*
X61500500Y48926082D01*
X61500500Y49073918D01*
X61490147Y49125966D01*
X66649500Y49125966D01*
X66649500Y48874035D01*
X66688908Y48625220D01*
X66766759Y48385621D01*
X66864127Y48194524D01*
X66881130Y48161155D01*
X67029207Y47957344D01*
X67207344Y47779207D01*
X67411155Y47631130D01*
X67635621Y47516759D01*
X67875215Y47438910D01*
X67875216Y47438910D01*
X67875219Y47438909D01*
X68124035Y47399500D01*
X68124038Y47399500D01*
X68375965Y47399500D01*
X68624780Y47438909D01*
X68624781Y47438910D01*
X68624785Y47438910D01*
X68864379Y47516759D01*
X69088845Y47631130D01*
X69292656Y47779207D01*
X69470793Y47957344D01*
X69618870Y48161155D01*
X69733241Y48385621D01*
X69811090Y48625215D01*
X69850500Y48874038D01*
X69850500Y49125962D01*
X69850500Y49125966D01*
X69811091Y49374781D01*
X69777418Y49478416D01*
X69733241Y49614379D01*
X69618870Y49838845D01*
X69470793Y50042656D01*
X69292656Y50220793D01*
X69088845Y50368870D01*
X69088844Y50368871D01*
X69088842Y50368872D01*
X68864379Y50483241D01*
X68624780Y50561092D01*
X68375965Y50600500D01*
X68375962Y50600500D01*
X68124038Y50600500D01*
X68124035Y50600500D01*
X67875219Y50561092D01*
X67635620Y50483241D01*
X67411157Y50368872D01*
X67207345Y50220794D01*
X67029206Y50042655D01*
X66881128Y49838843D01*
X66766759Y49614380D01*
X66688908Y49374781D01*
X66649500Y49125966D01*
X61490147Y49125966D01*
X61471658Y49218913D01*
X61415084Y49355495D01*
X61332951Y49478416D01*
X61228416Y49582951D01*
X61105495Y49665084D01*
X61074545Y49677904D01*
X60968914Y49721658D01*
X60823918Y49750500D01*
X60676082Y49750500D01*
X60676081Y49750500D01*
X60531085Y49721658D01*
X60394506Y49665085D01*
X60271585Y49582952D01*
X60167048Y49478415D01*
X60084915Y49355494D01*
X60028342Y49218915D01*
X59999500Y49073919D01*
X59999500Y49073918D01*
X59999500Y48926082D01*
X60028342Y48781087D01*
X60084916Y48644505D01*
X60167049Y48521584D01*
X60262906Y48425727D01*
X60290682Y48371212D01*
X60281111Y48310780D01*
X60237847Y48267516D01*
X60094600Y48194528D01*
X60094598Y48194527D01*
X59935355Y48078829D01*
X59796171Y47939645D01*
X59680474Y47780403D01*
X59589350Y47601559D01*
X59588260Y47602115D01*
X59551725Y47559339D01*
X59492230Y47545057D01*
X59435703Y47568473D01*
X59411390Y47601937D01*
X59410650Y47601559D01*
X59319525Y47780403D01*
X59319524Y47780405D01*
X59203828Y47939646D01*
X59064646Y48078828D01*
X58905405Y48194524D01*
X58905404Y48194525D01*
X58905402Y48194526D01*
X58730025Y48283884D01*
X58542821Y48344711D01*
X58348420Y48375500D01*
X58348417Y48375500D01*
X58151583Y48375500D01*
X58151580Y48375500D01*
X57957178Y48344711D01*
X57769974Y48283884D01*
X57594597Y48194526D01*
X57435355Y48078829D01*
X57296171Y47939645D01*
X57180474Y47780403D01*
X57091116Y47605026D01*
X57030289Y47417822D01*
X56999500Y47223421D01*
X26750500Y47223421D01*
X26719710Y47417822D01*
X26715886Y47429591D01*
X26658884Y47605025D01*
X26569524Y47780405D01*
X26453828Y47939646D01*
X26314646Y48078828D01*
X26155405Y48194524D01*
X26155404Y48194525D01*
X26155402Y48194526D01*
X25980025Y48283884D01*
X25792821Y48344711D01*
X25598420Y48375500D01*
X25598417Y48375500D01*
X25401583Y48375500D01*
X25401580Y48375500D01*
X25207178Y48344711D01*
X25019974Y48283884D01*
X24844597Y48194526D01*
X24685355Y48078829D01*
X24546171Y47939645D01*
X24430474Y47780403D01*
X24339350Y47601559D01*
X24338260Y47602115D01*
X24301725Y47559339D01*
X24242230Y47545057D01*
X24185703Y47568473D01*
X24161390Y47601937D01*
X24160650Y47601559D01*
X24069525Y47780403D01*
X24069524Y47780405D01*
X23953828Y47939646D01*
X23814646Y48078828D01*
X23655405Y48194524D01*
X23655404Y48194525D01*
X23655402Y48194526D01*
X23480025Y48283884D01*
X23292821Y48344711D01*
X23098420Y48375500D01*
X23098417Y48375500D01*
X22901583Y48375500D01*
X22901580Y48375500D01*
X22707178Y48344711D01*
X22519974Y48283884D01*
X22344597Y48194526D01*
X22185355Y48078829D01*
X22046171Y47939645D01*
X21930474Y47780403D01*
X21839350Y47601559D01*
X21838260Y47602115D01*
X21801725Y47559339D01*
X21742230Y47545057D01*
X21685703Y47568473D01*
X21661390Y47601937D01*
X21660650Y47601559D01*
X21569525Y47780403D01*
X21569524Y47780405D01*
X21453828Y47939646D01*
X21314646Y48078828D01*
X21155405Y48194524D01*
X21155404Y48194525D01*
X21155402Y48194526D01*
X21012153Y48267515D01*
X20968888Y48310780D01*
X20959317Y48371212D01*
X20987093Y48425727D01*
X21082951Y48521584D01*
X21165084Y48644505D01*
X21221658Y48781087D01*
X21250500Y48926082D01*
X21250500Y49073918D01*
X21221658Y49218913D01*
X21165084Y49355495D01*
X21082951Y49478416D01*
X20978416Y49582951D01*
X20855495Y49665084D01*
X20824545Y49677904D01*
X20718914Y49721658D01*
X20573918Y49750500D01*
X20426082Y49750500D01*
X20426081Y49750500D01*
X20281085Y49721658D01*
X20144506Y49665085D01*
X20021585Y49582952D01*
X19917048Y49478415D01*
X19834915Y49355494D01*
X19778342Y49218915D01*
X19749500Y49073919D01*
X19749500Y49073918D01*
X19749500Y48926082D01*
X19778342Y48781087D01*
X19834916Y48644505D01*
X19917049Y48521584D01*
X20012906Y48425727D01*
X20040682Y48371212D01*
X20031111Y48310780D01*
X19987847Y48267516D01*
X19844600Y48194528D01*
X19844598Y48194527D01*
X19685355Y48078829D01*
X19546171Y47939645D01*
X19430474Y47780403D01*
X19341116Y47605026D01*
X19280289Y47417822D01*
X19249500Y47223421D01*
X12519748Y47223421D01*
X12170506Y47572663D01*
X12170505Y47572665D01*
X12072665Y47670505D01*
X11952836Y47739688D01*
X11952835Y47739689D01*
X11952832Y47739690D01*
X11912484Y47750501D01*
X11912483Y47750501D01*
X11819185Y47775501D01*
X11819183Y47775501D01*
X11680817Y47775501D01*
X11674754Y47775501D01*
X11674738Y47775500D01*
X8075263Y47775500D01*
X8075247Y47775501D01*
X8069184Y47775501D01*
X7930817Y47775501D01*
X7849019Y47753584D01*
X7797160Y47739688D01*
X7677339Y47670509D01*
X7677335Y47670505D01*
X5927337Y45920507D01*
X5927335Y45920505D01*
X5927334Y45920506D01*
X5829497Y45822668D01*
X5829495Y45822666D01*
X5829495Y45822665D01*
X5760312Y45702836D01*
X5760312Y45702835D01*
X5760311Y45702833D01*
X5757106Y45690876D01*
X5757075Y45690757D01*
X5724499Y45569183D01*
X500500Y45569183D01*
X500500Y48997565D01*
X500619Y49002422D01*
X511254Y49218913D01*
X517113Y49338176D01*
X518063Y49347814D01*
X567029Y49677920D01*
X568918Y49687418D01*
X650009Y50011151D01*
X652818Y50020410D01*
X765249Y50334633D01*
X768958Y50343588D01*
X911644Y50645272D01*
X916211Y50653815D01*
X1087780Y50940062D01*
X1093163Y50948117D01*
X1291957Y51216159D01*
X1298107Y51223654D01*
X1522228Y51470933D01*
X1529067Y51477772D01*
X1776346Y51701893D01*
X1783841Y51708043D01*
X2051883Y51906837D01*
X2059938Y51912220D01*
X2346185Y52083789D01*
X2354728Y52088356D01*
X2656412Y52231042D01*
X2665367Y52234751D01*
X2979590Y52347182D01*
X2988849Y52349991D01*
X3312582Y52431082D01*
X3322080Y52432971D01*
X3652186Y52481937D01*
X3661824Y52482887D01*
X3970606Y52498056D01*
X3997579Y52499381D01*
X4002436Y52499500D01*
X4065892Y52499500D01*
X73934108Y52499500D01*
X73997564Y52499500D01*
X74002421Y52499381D01*
G37*
%TD.AperFunction*%
%TD*%
M02*
