M48
; DRILL file {KiCad 9.0.7-9.0.7~ubuntu24.04.1} date 2026-01-11T23:08:28-0600
; FORMAT={-:-/ absolute / metric / decimal}
; #@! TF.CreationDate,2026-01-11T23:08:28-06:00
; #@! TF.GenerationSoftware,Kicad,Pcbnew,9.0.7-9.0.7~ubuntu24.04.1
; #@! TF.FileFunction,Plated,1,4,PTH
FMAT,2
METRIC
; #@! TA.AperFunction,Plated,PTH,ViaDrill
T1C0.300
; #@! TA.AperFunction,Plated,PTH,ComponentDrill
T2C0.500
; #@! TA.AperFunction,Plated,PTH,ComponentDrill
T3C0.600
; #@! TA.AperFunction,Plated,PTH,ComponentDrill
T4C0.950
; #@! TA.AperFunction,Plated,PTH,ComponentDrill
T5C1.000
; #@! TA.AperFunction,Plated,PTH,ComponentDrill
T6C3.200
%
G90
G05
T1
X2.0Y22.5
X2.0Y20.75
X2.0Y19.25
X2.25Y24.25
X2.5Y18.25
X3.0Y43.25
X3.25Y39.75
X3.25Y34.25
X3.25Y29.0
X3.25Y25.25
X4.25Y23.5
X4.25Y21.75
X4.25Y16.0
X5.25Y25.25
X5.25Y18.25
X5.75Y27.25
X5.75Y22.0
X6.0Y9.5
X6.25Y16.5
X7.25Y44.762
X7.25Y26.0
X7.25Y18.75
X7.5Y45.75
X8.25Y7.75
X8.75Y27.25
X8.75Y23.0
X8.75Y22.0
X8.75Y20.75
X8.75Y19.75
X9.25Y39.25
X10.0Y25.0
X10.5Y31.25
X10.5Y14.5
X10.5Y10.25
X10.737Y39.512
X10.75Y22.5
X10.75Y20.0
X11.25Y27.5
X11.5Y46.5
X11.75Y33.5
X11.75Y29.5
X12.0Y45.75
X12.0Y7.0
X12.0Y2.25
X12.5Y42.512
X12.75Y31.25
X12.75Y24.0
X12.75Y17.0
X13.0Y50.0
X13.0Y26.0
X13.0Y21.75
X13.25Y10.0
X13.5Y27.25
X13.5Y13.0
X13.75Y19.75
X14.0Y3.0
X15.5Y36.5
X15.75Y21.25
X15.75Y10.0
X15.75Y2.25
X16.0Y27.0
X16.0Y24.0
X16.25Y47.0
X16.75Y38.75
X16.75Y16.25
X16.75Y14.75
X16.75Y13.25
X17.25Y41.75
X17.75Y36.5
X17.75Y33.75
X17.75Y32.5
X17.75Y31.25
X17.75Y19.75
X17.75Y12.25
X17.75Y7.25
X18.0Y49.0
X18.0Y45.0
X18.0Y34.75
X18.0Y25.75
X18.0Y17.25
X18.0Y3.0
X19.25Y18.75
X19.5Y17.25
X20.5Y49.0
X20.5Y45.0
X20.5Y35.5
X20.5Y17.75
X20.75Y32.5
X20.75Y30.75
X20.75Y22.0
X20.75Y19.75
X21.0Y42.25
X21.25Y11.5
X21.25Y8.0
X21.5Y24.5
X21.75Y2.25
X22.0Y17.0
X22.25Y10.25
X22.75Y27.5
X22.75Y5.75
X23.25Y35.75
X23.25Y20.5
X23.25Y17.0
X23.25Y15.5
X23.25Y11.5
X23.338Y30.75
X23.75Y23.0
X24.5Y39.25
X24.5Y34.0
X24.5Y26.0
X24.75Y49.75
X24.75Y27.5
X24.75Y16.5
X24.75Y7.0
X25.0Y22.0
X25.25Y2.25
X25.5Y25.0
X25.75Y12.25
X26.0Y26.5
X26.0Y22.5
X26.25Y27.5
X27.0Y21.5
X27.0Y19.5
X27.25Y12.75
X27.25Y10.75
X27.5Y42.25
X27.75Y27.5
X28.25Y26.0
X28.5Y13.5
X28.75Y29.25
X28.75Y7.75
X29.0Y40.0
X29.25Y22.5
X29.25Y17.5
X30.25Y48.25
X30.25Y45.0
X30.25Y42.25
X30.25Y25.75
X30.25Y23.5
X30.25Y1.5
X30.5Y31.5
X30.5Y29.25
X31.0Y40.25
X31.25Y26.5
X31.5Y27.75
X31.75Y9.75
X32.0Y3.75
X32.5Y49.0
X32.5Y17.75
X32.75Y28.75
X32.75Y26.75
X32.75Y16.0
X33.25Y34.25
X33.25Y1.5
X34.0Y50.25
X34.0Y24.25
X34.0Y16.75
X34.0Y15.5
X34.0Y14.25
X34.25Y10.75
X34.5Y28.75
X34.75Y26.75
X35.0Y34.0
X35.25Y21.5
X35.25Y19.75
X35.25Y7.75
X35.5Y49.0
X35.75Y23.5
X35.88Y30.87
X36.0Y38.0
X36.0Y36.25
X36.125Y13.875
X36.25Y40.25
X36.5Y33.75
X36.75Y11.0
X37.0Y28.75
X37.0Y27.75
X37.0Y26.75
X37.0Y25.75
X37.25Y48.25
X37.25Y45.0
X37.25Y42.25
X37.25Y14.25
X37.746Y22.249
X37.75Y24.75
X38.0Y40.25
X38.0Y19.5
X38.25Y32.0
X38.25Y29.75
X38.5Y14.25
X38.75Y9.5
X38.75Y2.5
X39.0Y22.5
X39.25Y49.0
X39.25Y24.75
X39.25Y7.0
X39.5Y11.0
X40.25Y5.0
X40.75Y50.25
X40.75Y29.75
X40.75Y24.75
X40.75Y17.0
X41.0Y32.75
X41.0Y13.0
X41.25Y19.5
X41.25Y7.75
X41.5Y11.25
X41.75Y28.75
X41.75Y27.75
X41.75Y26.75
X41.75Y25.75
X41.75Y15.0
X42.25Y49.0
X42.75Y23.0
X42.75Y13.5
X43.0Y40.25
X43.25Y30.5
X43.25Y24.0
X43.25Y22.25
X43.707Y25.4
X44.0Y48.25
X44.0Y45.0
X44.0Y42.5
X44.25Y21.5
X44.25Y2.25
X44.5Y11.5
X44.75Y40.25
X44.75Y16.75
X44.75Y14.0
X45.0Y27.25
X45.0Y25.25
X45.75Y21.5
X46.0Y49.0
X46.5Y25.25
X47.25Y34.0
X47.25Y29.0
X47.25Y21.5
X47.5Y50.25
X47.5Y8.0
X48.0Y25.25
X48.0Y13.75
X48.25Y32.75
X48.25Y31.5
X48.71Y21.598
X48.75Y17.5
X49.0Y49.0
X49.5Y25.25
X49.75Y40.25
X49.75Y22.5
X49.75Y4.5
X50.5Y26.5
X50.5Y8.25
X50.5Y6.5
X51.0Y42.25
X51.25Y48.25
X51.25Y45.0
X51.25Y15.0
X51.25Y13.5
X51.5Y9.25
X51.5Y5.5
X51.75Y19.5
X51.75Y2.25
X52.25Y27.5
X52.25Y16.0
X52.25Y12.5
X53.0Y41.25
X53.75Y4.5
X54.0Y47.0
X54.75Y22.25
X54.75Y20.5
X55.0Y38.75
X55.0Y34.25
X55.0Y10.5
X55.75Y49.0
X55.75Y45.0
X55.75Y23.5
X56.0Y36.5
X56.0Y27.5
X56.0Y9.25
X56.0Y3.0
X58.25Y34.0
X58.25Y23.5
X58.25Y17.25
X58.25Y9.25
X58.25Y4.5
X58.5Y14.75
X58.75Y22.25
X59.25Y27.25
X59.25Y16.0
X59.5Y10.5
X59.75Y13.0
X60.0Y41.25
X60.5Y9.25
X60.5Y5.5
X60.75Y49.0
X60.75Y45.0
X61.0Y36.75
X61.0Y31.25
X61.0Y22.25
X61.0Y16.75
X61.0Y2.75
X61.5Y8.25
X61.5Y6.5
X62.75Y47.0
X63.75Y34.0
X63.75Y27.75
X63.75Y19.5
X64.25Y3.75
X64.5Y10.0
X65.25Y49.0
X65.25Y42.5
X65.5Y45.75
X67.0Y36.75
X67.0Y31.5
X67.0Y22.25
X67.0Y16.75
X67.5Y7.5
X67.75Y27.25
X68.25Y43.5
X69.5Y34.0
X69.5Y19.5
X70.5Y10.25
X71.75Y27.25
X72.75Y40.75
X72.75Y34.25
X73.0Y19.25
T2
X1.6Y49.0
X1.6Y4.0
X2.303Y50.697
X2.303Y47.303
X2.303Y5.697
X2.303Y2.303
X4.0Y51.4
X4.0Y46.6
X4.0Y6.4
X4.0Y1.6
X5.697Y50.697
X5.697Y47.303
X5.697Y5.697
X5.697Y2.303
X6.4Y49.0
X6.4Y4.0
X71.6Y49.0
X71.6Y4.0
X72.303Y50.697
X72.303Y47.303
X72.303Y5.697
X72.303Y2.303
X74.0Y51.4
X74.0Y46.6
X74.0Y6.4
X74.0Y1.6
X75.697Y50.697
X75.697Y47.303
X75.697Y5.697
X75.697Y2.303
X76.4Y49.0
X76.4Y4.0
T4
X18.0Y47.0
X20.5Y47.0
X23.0Y47.0
X25.5Y47.0
X55.75Y47.0
X58.25Y47.0
X60.75Y47.0
T5
X43.0Y5.25
X45.5Y5.25
T6
X4.0Y49.0
X4.0Y4.0
X74.0Y49.0
X74.0Y4.0
T3
G00X27.68Y6.655
M15
G01X27.68Y5.555
M16
G05
G00X27.68Y2.325
M15
G01X27.68Y1.525
M16
G05
G00X36.32Y6.655
M15
G01X36.32Y5.555
M16
G05
G00X36.32Y2.325
M15
G01X36.32Y1.525
M16
G05
T5
G00X61.0Y33.0
M15
G01X61.0Y35.0
M16
G05
G00X61.0Y18.543
M15
G01X61.0Y20.543
M16
G05
G00X65.0Y38.7
M15
G01X63.0Y38.7
M16
G05
G00X65.0Y24.242
M15
G01X63.0Y24.242
M16
G05
G00X67.0Y33.0
M15
G01X67.0Y35.0
M16
G05
G00X67.0Y18.543
M15
G01X67.0Y20.543
M16
G05
M30
