%TF.GenerationSoftware,KiCad,Pcbnew,9.0.7-9.0.7~ubuntu24.04.1*%
%TF.CreationDate,2026-01-18T07:10:00-06:00*%
%TF.ProjectId,MCU,4d43552e-6b69-4636-9164-5f7063625858,rev?*%
%TF.SameCoordinates,PX6ea0500PY7cee6c0*%
%TF.FileFunction,Soldermask,Bot*%
%TF.FilePolarity,Negative*%
%FSLAX46Y46*%
G04 Gerber Fmt 4.6, Leading zero omitted, Abs format (unit mm)*
G04 Created by KiCad (PCBNEW 9.0.7-9.0.7~ubuntu24.04.1) date 2026-01-18 07:10:00*
%MOMM*%
%LPD*%
G01*
G04 APERTURE LIST*
G04 APERTURE END LIST*
G36*
X4484211Y7264282D02*
G01*
X4801835Y7201103D01*
X5111737Y7107095D01*
X5410932Y6983165D01*
X5696539Y6830504D01*
X5965808Y6650585D01*
X6216145Y6445139D01*
X6445139Y6216145D01*
X6650585Y5965808D01*
X6830504Y5696539D01*
X6983165Y5410932D01*
X7107095Y5111737D01*
X7201103Y4801835D01*
X7264282Y4484211D01*
X7296025Y4161923D01*
X7296025Y3838077D01*
X7264282Y3515789D01*
X7201103Y3198165D01*
X7107095Y2888263D01*
X6983165Y2589068D01*
X6830504Y2303461D01*
X6650585Y2034192D01*
X6445139Y1783855D01*
X6216145Y1554861D01*
X5965808Y1349415D01*
X5696539Y1169496D01*
X5410932Y1016835D01*
X5111737Y892905D01*
X4801835Y798897D01*
X4484211Y735718D01*
X4161923Y703975D01*
X3838077Y703975D01*
X3515789Y735718D01*
X3198165Y798897D01*
X2888263Y892905D01*
X2589068Y1016835D01*
X2303461Y1169496D01*
X2034192Y1349415D01*
X1783855Y1554861D01*
X1554861Y1783855D01*
X1349415Y2034192D01*
X1169496Y2303461D01*
X1016835Y2589068D01*
X892905Y2888263D01*
X798897Y3198165D01*
X735718Y3515789D01*
X703975Y3838077D01*
X703975Y4161923D01*
X735718Y4484211D01*
X798897Y4801835D01*
X892905Y5111737D01*
X1016835Y5410932D01*
X1169496Y5696539D01*
X1349415Y5965808D01*
X1554861Y6216145D01*
X1783855Y6445139D01*
X2034192Y6650585D01*
X2303461Y6830504D01*
X2589068Y6983165D01*
X2888263Y7107095D01*
X3198165Y7201103D01*
X3515789Y7264282D01*
X3838077Y7296025D01*
X4161923Y7296025D01*
X4484211Y7264282D01*
G37*
G36*
X74484211Y7264282D02*
G01*
X74801835Y7201103D01*
X75111737Y7107095D01*
X75410932Y6983165D01*
X75696539Y6830504D01*
X75965808Y6650585D01*
X76216145Y6445139D01*
X76445139Y6216145D01*
X76650585Y5965808D01*
X76830504Y5696539D01*
X76983165Y5410932D01*
X77107095Y5111737D01*
X77201103Y4801835D01*
X77264282Y4484211D01*
X77296025Y4161923D01*
X77296025Y3838077D01*
X77264282Y3515789D01*
X77201103Y3198165D01*
X77107095Y2888263D01*
X76983165Y2589068D01*
X76830504Y2303461D01*
X76650585Y2034192D01*
X76445139Y1783855D01*
X76216145Y1554861D01*
X75965808Y1349415D01*
X75696539Y1169496D01*
X75410932Y1016835D01*
X75111737Y892905D01*
X74801835Y798897D01*
X74484211Y735718D01*
X74161923Y703975D01*
X73838077Y703975D01*
X73515789Y735718D01*
X73198165Y798897D01*
X72888263Y892905D01*
X72589068Y1016835D01*
X72303461Y1169496D01*
X72034192Y1349415D01*
X71783855Y1554861D01*
X71554861Y1783855D01*
X71349415Y2034192D01*
X71169496Y2303461D01*
X71016835Y2589068D01*
X70892905Y2888263D01*
X70798897Y3198165D01*
X70735718Y3515789D01*
X70703975Y3838077D01*
X70703975Y4161923D01*
X70735718Y4484211D01*
X70798897Y4801835D01*
X70892905Y5111737D01*
X71016835Y5410932D01*
X71169496Y5696539D01*
X71349415Y5965808D01*
X71554861Y6216145D01*
X71783855Y6445139D01*
X72034192Y6650585D01*
X72303461Y6830504D01*
X72589068Y6983165D01*
X72888263Y7107095D01*
X73198165Y7201103D01*
X73515789Y7264282D01*
X73838077Y7296025D01*
X74161923Y7296025D01*
X74484211Y7264282D01*
G37*
G36*
X27748858Y2919867D02*
G01*
X27758316Y2919867D01*
X27785563Y2912567D01*
X27854099Y2898934D01*
X27886448Y2885535D01*
X27909610Y2879328D01*
X27930377Y2867338D01*
X27962722Y2853940D01*
X28020816Y2815123D01*
X28045257Y2801012D01*
X28051946Y2794323D01*
X28060481Y2788620D01*
X28143619Y2705482D01*
X28149321Y2696948D01*
X28156012Y2690257D01*
X28170124Y2665814D01*
X28208939Y2607723D01*
X28222335Y2575382D01*
X28234328Y2554610D01*
X28240535Y2531445D01*
X28253933Y2499100D01*
X28267563Y2430574D01*
X28274867Y2403316D01*
X28275791Y2389205D01*
X28277110Y2382578D01*
X28279758Y2328689D01*
X28280000Y2325000D01*
X28280000Y1525000D01*
X28279758Y1521309D01*
X28277110Y1467423D01*
X28275791Y1460797D01*
X28274867Y1446684D01*
X28267562Y1419424D01*
X28253933Y1350901D01*
X28240535Y1318559D01*
X28234328Y1295390D01*
X28222334Y1274617D01*
X28208939Y1242278D01*
X28170128Y1184195D01*
X28156012Y1159743D01*
X28149319Y1153051D01*
X28143619Y1144519D01*
X28060481Y1061381D01*
X28051949Y1055681D01*
X28045257Y1048988D01*
X28020805Y1034872D01*
X27962722Y996061D01*
X27930383Y982666D01*
X27909610Y970672D01*
X27886441Y964465D01*
X27854099Y951067D01*
X27785569Y937436D01*
X27758316Y930133D01*
X27748858Y930133D01*
X27738788Y928130D01*
X27621212Y928130D01*
X27611142Y930133D01*
X27601684Y930133D01*
X27574432Y937436D01*
X27505900Y951067D01*
X27473555Y964465D01*
X27450390Y970672D01*
X27429618Y982665D01*
X27397277Y996061D01*
X27339186Y1034876D01*
X27314743Y1048988D01*
X27308052Y1055679D01*
X27299518Y1061381D01*
X27216380Y1144519D01*
X27210677Y1153054D01*
X27203988Y1159743D01*
X27189877Y1184184D01*
X27151060Y1242278D01*
X27137662Y1274623D01*
X27125672Y1295390D01*
X27119465Y1318552D01*
X27106066Y1350901D01*
X27092433Y1419438D01*
X27085133Y1446684D01*
X27084208Y1460790D01*
X27082889Y1467423D01*
X27080241Y1521314D01*
X27080000Y1525000D01*
X27080000Y2325000D01*
X27080241Y2328684D01*
X27082889Y2382578D01*
X27084208Y2389213D01*
X27085133Y2403316D01*
X27092432Y2430560D01*
X27106066Y2499100D01*
X27119466Y2531452D01*
X27125672Y2554610D01*
X27137660Y2575376D01*
X27151060Y2607723D01*
X27189881Y2665825D01*
X27203988Y2690257D01*
X27210675Y2696945D01*
X27216380Y2705482D01*
X27299518Y2788620D01*
X27308055Y2794325D01*
X27314743Y2801012D01*
X27339175Y2815119D01*
X27397277Y2853940D01*
X27429624Y2867340D01*
X27450390Y2879328D01*
X27473548Y2885534D01*
X27505900Y2898934D01*
X27574437Y2912567D01*
X27601684Y2919867D01*
X27611142Y2919867D01*
X27621212Y2921870D01*
X27738788Y2921870D01*
X27748858Y2919867D01*
G37*
G36*
X36388858Y2919867D02*
G01*
X36398316Y2919867D01*
X36425563Y2912567D01*
X36494099Y2898934D01*
X36526448Y2885535D01*
X36549610Y2879328D01*
X36570377Y2867338D01*
X36602722Y2853940D01*
X36660816Y2815123D01*
X36685257Y2801012D01*
X36691946Y2794323D01*
X36700481Y2788620D01*
X36783619Y2705482D01*
X36789321Y2696948D01*
X36796012Y2690257D01*
X36810124Y2665814D01*
X36848939Y2607723D01*
X36862335Y2575382D01*
X36874328Y2554610D01*
X36880535Y2531445D01*
X36893933Y2499100D01*
X36907563Y2430574D01*
X36914867Y2403316D01*
X36915791Y2389205D01*
X36917110Y2382578D01*
X36919758Y2328689D01*
X36920000Y2325000D01*
X36920000Y1525000D01*
X36919758Y1521309D01*
X36917110Y1467423D01*
X36915791Y1460797D01*
X36914867Y1446684D01*
X36907562Y1419424D01*
X36893933Y1350901D01*
X36880535Y1318559D01*
X36874328Y1295390D01*
X36862334Y1274617D01*
X36848939Y1242278D01*
X36810128Y1184195D01*
X36796012Y1159743D01*
X36789319Y1153051D01*
X36783619Y1144519D01*
X36700481Y1061381D01*
X36691949Y1055681D01*
X36685257Y1048988D01*
X36660805Y1034872D01*
X36602722Y996061D01*
X36570383Y982666D01*
X36549610Y970672D01*
X36526441Y964465D01*
X36494099Y951067D01*
X36425569Y937436D01*
X36398316Y930133D01*
X36388858Y930133D01*
X36378788Y928130D01*
X36261212Y928130D01*
X36251142Y930133D01*
X36241684Y930133D01*
X36214432Y937436D01*
X36145900Y951067D01*
X36113555Y964465D01*
X36090390Y970672D01*
X36069618Y982665D01*
X36037277Y996061D01*
X35979186Y1034876D01*
X35954743Y1048988D01*
X35948052Y1055679D01*
X35939518Y1061381D01*
X35856380Y1144519D01*
X35850677Y1153054D01*
X35843988Y1159743D01*
X35829877Y1184184D01*
X35791060Y1242278D01*
X35777662Y1274623D01*
X35765672Y1295390D01*
X35759465Y1318552D01*
X35746066Y1350901D01*
X35732433Y1419438D01*
X35725133Y1446684D01*
X35724208Y1460790D01*
X35722889Y1467423D01*
X35720241Y1521314D01*
X35720000Y1525000D01*
X35720000Y2325000D01*
X35720241Y2328684D01*
X35722889Y2382578D01*
X35724208Y2389213D01*
X35725133Y2403316D01*
X35732432Y2430560D01*
X35746066Y2499100D01*
X35759466Y2531452D01*
X35765672Y2554610D01*
X35777660Y2575376D01*
X35791060Y2607723D01*
X35829881Y2665825D01*
X35843988Y2690257D01*
X35850675Y2696945D01*
X35856380Y2705482D01*
X35939518Y2788620D01*
X35948055Y2794325D01*
X35954743Y2801012D01*
X35979175Y2815119D01*
X36037277Y2853940D01*
X36069624Y2867340D01*
X36090390Y2879328D01*
X36113548Y2885534D01*
X36145900Y2898934D01*
X36214437Y2912567D01*
X36241684Y2919867D01*
X36251142Y2919867D01*
X36261212Y2921870D01*
X36378788Y2921870D01*
X36388858Y2919867D01*
G37*
G36*
X10100168Y5458555D02*
G01*
X10324025Y5385819D01*
X10533748Y5278960D01*
X10724172Y5140609D01*
X10890609Y4974172D01*
X11028960Y4783748D01*
X11135819Y4574025D01*
X11208555Y4350168D01*
X11245376Y4117689D01*
X11245376Y3882311D01*
X11208555Y3649832D01*
X11135819Y3425975D01*
X11028960Y3216252D01*
X10890609Y3025828D01*
X10724172Y2859391D01*
X10533748Y2721040D01*
X10324025Y2614181D01*
X10100168Y2541445D01*
X9867689Y2504624D01*
X9632311Y2504624D01*
X9399832Y2541445D01*
X9175975Y2614181D01*
X8966252Y2721040D01*
X8775828Y2859391D01*
X8609391Y3025828D01*
X8471040Y3216252D01*
X8364181Y3425975D01*
X8291445Y3649832D01*
X8254624Y3882311D01*
X8254624Y4117689D01*
X8291445Y4350168D01*
X8364181Y4574025D01*
X8471040Y4783748D01*
X8609391Y4974172D01*
X8775828Y5140609D01*
X8966252Y5278960D01*
X9175975Y5385819D01*
X9399832Y5458555D01*
X9632311Y5495376D01*
X9867689Y5495376D01*
X10100168Y5458555D01*
G37*
G36*
X68600168Y5458555D02*
G01*
X68824025Y5385819D01*
X69033748Y5278960D01*
X69224172Y5140609D01*
X69390609Y4974172D01*
X69528960Y4783748D01*
X69635819Y4574025D01*
X69708555Y4350168D01*
X69745376Y4117689D01*
X69745376Y3882311D01*
X69708555Y3649832D01*
X69635819Y3425975D01*
X69528960Y3216252D01*
X69390609Y3025828D01*
X69224172Y2859391D01*
X69033748Y2721040D01*
X68824025Y2614181D01*
X68600168Y2541445D01*
X68367689Y2504624D01*
X68132311Y2504624D01*
X67899832Y2541445D01*
X67675975Y2614181D01*
X67466252Y2721040D01*
X67275828Y2859391D01*
X67109391Y3025828D01*
X66971040Y3216252D01*
X66864181Y3425975D01*
X66791445Y3649832D01*
X66754624Y3882311D01*
X66754624Y4117689D01*
X66791445Y4350168D01*
X66864181Y4574025D01*
X66971040Y4783748D01*
X67109391Y4974172D01*
X67275828Y5140609D01*
X67466252Y5278960D01*
X67675975Y5385819D01*
X67899832Y5458555D01*
X68132311Y5495376D01*
X68367689Y5495376D01*
X68600168Y5458555D01*
G37*
G36*
X46199868Y6335450D02*
G01*
X46205586Y6332655D01*
X46207962Y6332278D01*
X46245987Y6312904D01*
X46303377Y6284847D01*
X46384847Y6203377D01*
X46412907Y6145980D01*
X46432276Y6107966D01*
X46432652Y6105592D01*
X46435450Y6099868D01*
X46450000Y6000000D01*
X46450000Y4500000D01*
X46435450Y4400132D01*
X46432652Y4394411D01*
X46432277Y4392038D01*
X46412926Y4354061D01*
X46384847Y4296623D01*
X46303377Y4215153D01*
X46245955Y4187081D01*
X46207965Y4167724D01*
X46205591Y4167349D01*
X46199868Y4164550D01*
X46100000Y4150000D01*
X44900000Y4150000D01*
X44800132Y4164550D01*
X44794410Y4167348D01*
X44792037Y4167723D01*
X44754035Y4187086D01*
X44696623Y4215153D01*
X44615153Y4296623D01*
X44587104Y4353997D01*
X44567723Y4392035D01*
X44567346Y4394412D01*
X44564550Y4400132D01*
X44550000Y4500000D01*
X44550000Y6000000D01*
X44564550Y6099868D01*
X44567345Y6105587D01*
X44567722Y6107963D01*
X44587108Y6146013D01*
X44615153Y6203377D01*
X44696623Y6284847D01*
X44753971Y6312884D01*
X44792034Y6332277D01*
X44794411Y6332654D01*
X44800132Y6335450D01*
X44900000Y6350000D01*
X46100000Y6350000D01*
X46199868Y6335450D01*
G37*
G36*
X43275770Y6309093D02*
G01*
X43447827Y6237825D01*
X43602674Y6134360D01*
X43734360Y6002674D01*
X43837825Y5847827D01*
X43909093Y5675770D01*
X43945425Y5493116D01*
X43950000Y5400000D01*
X43950000Y5100000D01*
X43945425Y5006884D01*
X43909093Y4824230D01*
X43837825Y4652173D01*
X43734360Y4497326D01*
X43602674Y4365640D01*
X43447827Y4262175D01*
X43275770Y4190907D01*
X43093116Y4154575D01*
X42906884Y4154575D01*
X42724230Y4190907D01*
X42552173Y4262175D01*
X42397326Y4365640D01*
X42265640Y4497326D01*
X42162175Y4652173D01*
X42090907Y4824230D01*
X42054575Y5006884D01*
X42050000Y5100000D01*
X42050000Y5400000D01*
X42054575Y5493116D01*
X42090907Y5675770D01*
X42162175Y5847827D01*
X42265640Y6002674D01*
X42397326Y6134360D01*
X42552173Y6237825D01*
X42724230Y6309093D01*
X42906884Y6345425D01*
X43093116Y6345425D01*
X43275770Y6309093D01*
G37*
G36*
X27748858Y7249867D02*
G01*
X27758316Y7249867D01*
X27785563Y7242567D01*
X27854099Y7228934D01*
X27886448Y7215535D01*
X27909610Y7209328D01*
X27930377Y7197338D01*
X27962722Y7183940D01*
X28020816Y7145123D01*
X28045257Y7131012D01*
X28051946Y7124323D01*
X28060481Y7118620D01*
X28143619Y7035482D01*
X28149321Y7026948D01*
X28156012Y7020257D01*
X28170124Y6995814D01*
X28208939Y6937723D01*
X28222335Y6905382D01*
X28234328Y6884610D01*
X28240535Y6861445D01*
X28253933Y6829100D01*
X28267563Y6760574D01*
X28274867Y6733316D01*
X28275791Y6719205D01*
X28277110Y6712578D01*
X28279758Y6658689D01*
X28280000Y6655000D01*
X28280000Y5555000D01*
X28279758Y5551309D01*
X28277110Y5497423D01*
X28275791Y5490797D01*
X28274867Y5476684D01*
X28267562Y5449424D01*
X28253933Y5380901D01*
X28240535Y5348559D01*
X28234328Y5325390D01*
X28222334Y5304617D01*
X28208939Y5272278D01*
X28170128Y5214195D01*
X28156012Y5189743D01*
X28149319Y5183051D01*
X28143619Y5174519D01*
X28060481Y5091381D01*
X28051949Y5085681D01*
X28045257Y5078988D01*
X28020805Y5064872D01*
X27962722Y5026061D01*
X27930383Y5012666D01*
X27909610Y5000672D01*
X27886441Y4994465D01*
X27854099Y4981067D01*
X27785569Y4967436D01*
X27758316Y4960133D01*
X27748858Y4960133D01*
X27738788Y4958130D01*
X27621212Y4958130D01*
X27611142Y4960133D01*
X27601684Y4960133D01*
X27574432Y4967436D01*
X27505900Y4981067D01*
X27473555Y4994465D01*
X27450390Y5000672D01*
X27429618Y5012665D01*
X27397277Y5026061D01*
X27339186Y5064876D01*
X27314743Y5078988D01*
X27308052Y5085679D01*
X27299518Y5091381D01*
X27216380Y5174519D01*
X27210677Y5183054D01*
X27203988Y5189743D01*
X27189877Y5214184D01*
X27151060Y5272278D01*
X27137662Y5304623D01*
X27125672Y5325390D01*
X27119465Y5348552D01*
X27106066Y5380901D01*
X27092433Y5449438D01*
X27085133Y5476684D01*
X27084208Y5490790D01*
X27082889Y5497423D01*
X27080241Y5551314D01*
X27080000Y5555000D01*
X27080000Y6655000D01*
X27080241Y6658684D01*
X27082889Y6712578D01*
X27084208Y6719213D01*
X27085133Y6733316D01*
X27092432Y6760560D01*
X27106066Y6829100D01*
X27119466Y6861452D01*
X27125672Y6884610D01*
X27137660Y6905376D01*
X27151060Y6937723D01*
X27189881Y6995825D01*
X27203988Y7020257D01*
X27210675Y7026945D01*
X27216380Y7035482D01*
X27299518Y7118620D01*
X27308055Y7124325D01*
X27314743Y7131012D01*
X27339175Y7145119D01*
X27397277Y7183940D01*
X27429624Y7197340D01*
X27450390Y7209328D01*
X27473548Y7215534D01*
X27505900Y7228934D01*
X27574437Y7242567D01*
X27601684Y7249867D01*
X27611142Y7249867D01*
X27621212Y7251870D01*
X27738788Y7251870D01*
X27748858Y7249867D01*
G37*
G36*
X36388858Y7249867D02*
G01*
X36398316Y7249867D01*
X36425563Y7242567D01*
X36494099Y7228934D01*
X36526448Y7215535D01*
X36549610Y7209328D01*
X36570377Y7197338D01*
X36602722Y7183940D01*
X36660816Y7145123D01*
X36685257Y7131012D01*
X36691946Y7124323D01*
X36700481Y7118620D01*
X36783619Y7035482D01*
X36789321Y7026948D01*
X36796012Y7020257D01*
X36810124Y6995814D01*
X36848939Y6937723D01*
X36862335Y6905382D01*
X36874328Y6884610D01*
X36880535Y6861445D01*
X36893933Y6829100D01*
X36907563Y6760574D01*
X36914867Y6733316D01*
X36915791Y6719205D01*
X36917110Y6712578D01*
X36919758Y6658689D01*
X36920000Y6655000D01*
X36920000Y5555000D01*
X36919758Y5551309D01*
X36917110Y5497423D01*
X36915791Y5490797D01*
X36914867Y5476684D01*
X36907562Y5449424D01*
X36893933Y5380901D01*
X36880535Y5348559D01*
X36874328Y5325390D01*
X36862334Y5304617D01*
X36848939Y5272278D01*
X36810128Y5214195D01*
X36796012Y5189743D01*
X36789319Y5183051D01*
X36783619Y5174519D01*
X36700481Y5091381D01*
X36691949Y5085681D01*
X36685257Y5078988D01*
X36660805Y5064872D01*
X36602722Y5026061D01*
X36570383Y5012666D01*
X36549610Y5000672D01*
X36526441Y4994465D01*
X36494099Y4981067D01*
X36425569Y4967436D01*
X36398316Y4960133D01*
X36388858Y4960133D01*
X36378788Y4958130D01*
X36261212Y4958130D01*
X36251142Y4960133D01*
X36241684Y4960133D01*
X36214432Y4967436D01*
X36145900Y4981067D01*
X36113555Y4994465D01*
X36090390Y5000672D01*
X36069618Y5012665D01*
X36037277Y5026061D01*
X35979186Y5064876D01*
X35954743Y5078988D01*
X35948052Y5085679D01*
X35939518Y5091381D01*
X35856380Y5174519D01*
X35850677Y5183054D01*
X35843988Y5189743D01*
X35829877Y5214184D01*
X35791060Y5272278D01*
X35777662Y5304623D01*
X35765672Y5325390D01*
X35759465Y5348552D01*
X35746066Y5380901D01*
X35732433Y5449438D01*
X35725133Y5476684D01*
X35724208Y5490790D01*
X35722889Y5497423D01*
X35720241Y5551314D01*
X35720000Y5555000D01*
X35720000Y6655000D01*
X35720241Y6658684D01*
X35722889Y6712578D01*
X35724208Y6719213D01*
X35725133Y6733316D01*
X35732432Y6760560D01*
X35746066Y6829100D01*
X35759466Y6861452D01*
X35765672Y6884610D01*
X35777660Y6905376D01*
X35791060Y6937723D01*
X35829881Y6995825D01*
X35843988Y7020257D01*
X35850675Y7026945D01*
X35856380Y7035482D01*
X35939518Y7118620D01*
X35948055Y7124325D01*
X35954743Y7131012D01*
X35979175Y7145119D01*
X36037277Y7183940D01*
X36069624Y7197340D01*
X36090390Y7209328D01*
X36113548Y7215534D01*
X36145900Y7228934D01*
X36214437Y7242567D01*
X36241684Y7249867D01*
X36251142Y7249867D01*
X36261212Y7251870D01*
X36378788Y7251870D01*
X36388858Y7249867D01*
G37*
G36*
X29272640Y5997649D02*
G01*
X29368724Y5942175D01*
X29447175Y5863724D01*
X29502649Y5767640D01*
X29531364Y5660474D01*
X29531364Y5549526D01*
X29502649Y5442360D01*
X29447175Y5346276D01*
X29368724Y5267825D01*
X29272640Y5212351D01*
X29165474Y5183636D01*
X29054526Y5183636D01*
X28947360Y5212351D01*
X28851276Y5267825D01*
X28772825Y5346276D01*
X28717351Y5442360D01*
X28688636Y5549526D01*
X28688636Y5660474D01*
X28717351Y5767640D01*
X28772825Y5863724D01*
X28851276Y5942175D01*
X28947360Y5997649D01*
X29054526Y6026364D01*
X29165474Y6026364D01*
X29272640Y5997649D01*
G37*
G36*
X35052640Y5997649D02*
G01*
X35148724Y5942175D01*
X35227175Y5863724D01*
X35282649Y5767640D01*
X35311364Y5660474D01*
X35311364Y5549526D01*
X35282649Y5442360D01*
X35227175Y5346276D01*
X35148724Y5267825D01*
X35052640Y5212351D01*
X34945474Y5183636D01*
X34834526Y5183636D01*
X34727360Y5212351D01*
X34631276Y5267825D01*
X34552825Y5346276D01*
X34497351Y5442360D01*
X34468636Y5549526D01*
X34468636Y5660474D01*
X34497351Y5767640D01*
X34552825Y5863724D01*
X34631276Y5942175D01*
X34727360Y5997649D01*
X34834526Y6026364D01*
X34945474Y6026364D01*
X35052640Y5997649D01*
G37*
G36*
X62788268Y21384888D02*
G01*
X62820711Y21363211D01*
X62842388Y21330768D01*
X62850000Y21292500D01*
X62850000Y17792500D01*
X62842388Y17754232D01*
X62820711Y17721789D01*
X62788268Y17700112D01*
X62750000Y17692500D01*
X59250000Y17692500D01*
X59211732Y17700112D01*
X59179289Y17721789D01*
X59157612Y17754232D01*
X59150000Y17792500D01*
X59150000Y21292500D01*
X59157612Y21330768D01*
X59179289Y21363211D01*
X59211732Y21384888D01*
X59250000Y21392500D01*
X62750000Y21392500D01*
X62788268Y21384888D01*
G37*
G36*
X67864750Y21384719D02*
G01*
X67873007Y21382666D01*
X67882290Y21381935D01*
X67964200Y21359987D01*
X68043119Y21340360D01*
X68049787Y21337053D01*
X68054511Y21335787D01*
X68133857Y21295359D01*
X68207783Y21258695D01*
X68211192Y21255955D01*
X68212795Y21255138D01*
X68291802Y21191159D01*
X68351041Y21143541D01*
X68398684Y21084271D01*
X68462637Y21005296D01*
X68463453Y21003694D01*
X68466195Y21000283D01*
X68502876Y20926322D01*
X68543286Y20847012D01*
X68544551Y20842292D01*
X68547860Y20835619D01*
X68567497Y20756656D01*
X68589434Y20674790D01*
X68590164Y20665514D01*
X68592219Y20657250D01*
X68600000Y20542500D01*
X68600000Y18542500D01*
X68592219Y18427750D01*
X68590164Y18419487D01*
X68589434Y18410210D01*
X68567499Y18328352D01*
X68547860Y18249381D01*
X68544550Y18242708D01*
X68543286Y18237989D01*
X68502894Y18158717D01*
X68466195Y18084717D01*
X68463452Y18081305D01*
X68462637Y18079705D01*
X68398793Y18000866D01*
X68351041Y17941459D01*
X68291634Y17893707D01*
X68212795Y17829863D01*
X68211195Y17829048D01*
X68207783Y17826305D01*
X68133783Y17789606D01*
X68054511Y17749214D01*
X68049792Y17747950D01*
X68043119Y17744640D01*
X67964141Y17724999D01*
X67882289Y17703066D01*
X67873013Y17702337D01*
X67864750Y17700281D01*
X67750000Y17692500D01*
X66250000Y17692500D01*
X66135250Y17700281D01*
X66126987Y17702336D01*
X66117709Y17703066D01*
X66035837Y17725005D01*
X65956881Y17744640D01*
X65950209Y17747949D01*
X65945488Y17749214D01*
X65866178Y17789624D01*
X65792217Y17826305D01*
X65788806Y17829047D01*
X65787204Y17829863D01*
X65708229Y17893816D01*
X65648959Y17941459D01*
X65601341Y18000698D01*
X65537362Y18079705D01*
X65536545Y18081308D01*
X65533805Y18084717D01*
X65497141Y18158643D01*
X65456713Y18237989D01*
X65455447Y18242713D01*
X65452140Y18249381D01*
X65432511Y18328307D01*
X65410565Y18410211D01*
X65409834Y18419493D01*
X65407781Y18427750D01*
X65400000Y18542500D01*
X65400000Y20542500D01*
X65407781Y20657250D01*
X65409834Y20665507D01*
X65410565Y20674791D01*
X65432517Y20756715D01*
X65452140Y20835619D01*
X65455446Y20842287D01*
X65456713Y20847012D01*
X65497160Y20926396D01*
X65533805Y21000283D01*
X65536543Y21003691D01*
X65537362Y21005296D01*
X65601450Y21084438D01*
X65648959Y21143541D01*
X65708062Y21191050D01*
X65787204Y21255138D01*
X65788809Y21255957D01*
X65792217Y21258695D01*
X65866104Y21295340D01*
X65945488Y21335787D01*
X65950213Y21337054D01*
X65956881Y21340360D01*
X66035792Y21359985D01*
X66117710Y21381935D01*
X66126992Y21382666D01*
X66135250Y21384719D01*
X66250000Y21392500D01*
X67750000Y21392500D01*
X67864750Y21384719D01*
G37*
G36*
X65047009Y26077207D02*
G01*
X65057080Y26074326D01*
X65065164Y26073529D01*
X65153312Y26046790D01*
X65236676Y26022937D01*
X65243225Y26019516D01*
X65248025Y26018060D01*
X65334494Y25971841D01*
X65411535Y25931598D01*
X65414869Y25928880D01*
X65416544Y25927984D01*
X65505639Y25854866D01*
X65564429Y25806929D01*
X65612393Y25748106D01*
X65685483Y25659045D01*
X65686377Y25657372D01*
X65689098Y25654035D01*
X65729360Y25576957D01*
X65775559Y25490526D01*
X65777014Y25485729D01*
X65780437Y25479176D01*
X65804301Y25395773D01*
X65831028Y25307665D01*
X65831823Y25299586D01*
X65834707Y25289509D01*
X65850000Y25117500D01*
X65850000Y23367500D01*
X65834707Y23195491D01*
X65831823Y23185414D01*
X65831028Y23177336D01*
X65804306Y23089246D01*
X65780437Y23005824D01*
X65777013Y22999271D01*
X65775559Y22994475D01*
X65729383Y22908088D01*
X65689098Y22830965D01*
X65686376Y22827627D01*
X65685483Y22825956D01*
X65612520Y22737050D01*
X65564429Y22678071D01*
X65505450Y22629980D01*
X65416544Y22557017D01*
X65414873Y22556124D01*
X65411535Y22553402D01*
X65334412Y22513117D01*
X65248025Y22466941D01*
X65243229Y22465487D01*
X65236676Y22462063D01*
X65153254Y22438194D01*
X65065164Y22411472D01*
X65057086Y22410677D01*
X65047009Y22407793D01*
X64875000Y22392500D01*
X63125000Y22392500D01*
X62952991Y22407793D01*
X62942914Y22410677D01*
X62934835Y22411472D01*
X62846727Y22438199D01*
X62763324Y22462063D01*
X62756771Y22465486D01*
X62751974Y22466941D01*
X62665543Y22513140D01*
X62588465Y22553402D01*
X62585128Y22556123D01*
X62583455Y22557017D01*
X62494394Y22630107D01*
X62435571Y22678071D01*
X62387634Y22736861D01*
X62314516Y22825956D01*
X62313620Y22827631D01*
X62310902Y22830965D01*
X62270659Y22908006D01*
X62224440Y22994475D01*
X62222984Y22999275D01*
X62219563Y23005824D01*
X62195710Y23089188D01*
X62168971Y23177336D01*
X62168174Y23185420D01*
X62165293Y23195491D01*
X62150000Y23367500D01*
X62150000Y25117500D01*
X62165293Y25289509D01*
X62168174Y25299581D01*
X62168971Y25307665D01*
X62195715Y25395831D01*
X62219563Y25479176D01*
X62222983Y25485724D01*
X62224440Y25490526D01*
X62270682Y25577039D01*
X62310902Y25654035D01*
X62313619Y25657368D01*
X62314516Y25659045D01*
X62387761Y25748295D01*
X62435571Y25806929D01*
X62494205Y25854739D01*
X62583455Y25927984D01*
X62585132Y25928881D01*
X62588465Y25931598D01*
X62665461Y25971818D01*
X62751974Y26018060D01*
X62756776Y26019517D01*
X62763324Y26022937D01*
X62846669Y26046785D01*
X62934835Y26073529D01*
X62942919Y26074326D01*
X62952991Y26077207D01*
X63125000Y26092500D01*
X64875000Y26092500D01*
X65047009Y26077207D01*
G37*
G36*
X7098268Y33117388D02*
G01*
X7130711Y33095711D01*
X7152388Y33063268D01*
X7160000Y33025000D01*
X7160000Y29875000D01*
X7152388Y29836732D01*
X7130711Y29804289D01*
X7098268Y29782612D01*
X7060000Y29775000D01*
X6060000Y29775000D01*
X6021732Y29782612D01*
X5989289Y29804289D01*
X5967612Y29836732D01*
X5960000Y29875000D01*
X5960000Y33025000D01*
X5967612Y33063268D01*
X5989289Y33095711D01*
X6021732Y33117388D01*
X6060000Y33125000D01*
X7060000Y33125000D01*
X7098268Y33117388D01*
G37*
G36*
X9638268Y33117388D02*
G01*
X9670711Y33095711D01*
X9692388Y33063268D01*
X9700000Y33025000D01*
X9700000Y29875000D01*
X9692388Y29836732D01*
X9670711Y29804289D01*
X9638268Y29782612D01*
X9600000Y29775000D01*
X8600000Y29775000D01*
X8561732Y29782612D01*
X8529289Y29804289D01*
X8507612Y29836732D01*
X8500000Y29875000D01*
X8500000Y33025000D01*
X8507612Y33063268D01*
X8529289Y33095711D01*
X8561732Y33117388D01*
X8600000Y33125000D01*
X9600000Y33125000D01*
X9638268Y33117388D01*
G37*
G36*
X12178268Y33117388D02*
G01*
X12210711Y33095711D01*
X12232388Y33063268D01*
X12240000Y33025000D01*
X12240000Y29875000D01*
X12232388Y29836732D01*
X12210711Y29804289D01*
X12178268Y29782612D01*
X12140000Y29775000D01*
X11140000Y29775000D01*
X11101732Y29782612D01*
X11069289Y29804289D01*
X11047612Y29836732D01*
X11040000Y29875000D01*
X11040000Y33025000D01*
X11047612Y33063268D01*
X11069289Y33095711D01*
X11101732Y33117388D01*
X11140000Y33125000D01*
X12140000Y33125000D01*
X12178268Y33117388D01*
G37*
G36*
X14718268Y33117388D02*
G01*
X14750711Y33095711D01*
X14772388Y33063268D01*
X14780000Y33025000D01*
X14780000Y29875000D01*
X14772388Y29836732D01*
X14750711Y29804289D01*
X14718268Y29782612D01*
X14680000Y29775000D01*
X13680000Y29775000D01*
X13641732Y29782612D01*
X13609289Y29804289D01*
X13587612Y29836732D01*
X13580000Y29875000D01*
X13580000Y33025000D01*
X13587612Y33063268D01*
X13609289Y33095711D01*
X13641732Y33117388D01*
X13680000Y33125000D01*
X14680000Y33125000D01*
X14718268Y33117388D01*
G37*
G36*
X17258268Y33117388D02*
G01*
X17290711Y33095711D01*
X17312388Y33063268D01*
X17320000Y33025000D01*
X17320000Y29875000D01*
X17312388Y29836732D01*
X17290711Y29804289D01*
X17258268Y29782612D01*
X17220000Y29775000D01*
X16220000Y29775000D01*
X16181732Y29782612D01*
X16149289Y29804289D01*
X16127612Y29836732D01*
X16120000Y29875000D01*
X16120000Y33025000D01*
X16127612Y33063268D01*
X16149289Y33095711D01*
X16181732Y33117388D01*
X16220000Y33125000D01*
X17220000Y33125000D01*
X17258268Y33117388D01*
G37*
G36*
X19798268Y33117388D02*
G01*
X19830711Y33095711D01*
X19852388Y33063268D01*
X19860000Y33025000D01*
X19860000Y29875000D01*
X19852388Y29836732D01*
X19830711Y29804289D01*
X19798268Y29782612D01*
X19760000Y29775000D01*
X18760000Y29775000D01*
X18721732Y29782612D01*
X18689289Y29804289D01*
X18667612Y29836732D01*
X18660000Y29875000D01*
X18660000Y33025000D01*
X18667612Y33063268D01*
X18689289Y33095711D01*
X18721732Y33117388D01*
X18760000Y33125000D01*
X19760000Y33125000D01*
X19798268Y33117388D01*
G37*
G36*
X22338268Y33117388D02*
G01*
X22370711Y33095711D01*
X22392388Y33063268D01*
X22400000Y33025000D01*
X22400000Y29875000D01*
X22392388Y29836732D01*
X22370711Y29804289D01*
X22338268Y29782612D01*
X22300000Y29775000D01*
X21300000Y29775000D01*
X21261732Y29782612D01*
X21229289Y29804289D01*
X21207612Y29836732D01*
X21200000Y29875000D01*
X21200000Y33025000D01*
X21207612Y33063268D01*
X21229289Y33095711D01*
X21261732Y33117388D01*
X21300000Y33125000D01*
X22300000Y33125000D01*
X22338268Y33117388D01*
G37*
G36*
X24878268Y33117388D02*
G01*
X24910711Y33095711D01*
X24932388Y33063268D01*
X24940000Y33025000D01*
X24940000Y29875000D01*
X24932388Y29836732D01*
X24910711Y29804289D01*
X24878268Y29782612D01*
X24840000Y29775000D01*
X23840000Y29775000D01*
X23801732Y29782612D01*
X23769289Y29804289D01*
X23747612Y29836732D01*
X23740000Y29875000D01*
X23740000Y33025000D01*
X23747612Y33063268D01*
X23769289Y33095711D01*
X23801732Y33117388D01*
X23840000Y33125000D01*
X24840000Y33125000D01*
X24878268Y33117388D01*
G37*
G36*
X27418268Y33117388D02*
G01*
X27450711Y33095711D01*
X27472388Y33063268D01*
X27480000Y33025000D01*
X27480000Y29875000D01*
X27472388Y29836732D01*
X27450711Y29804289D01*
X27418268Y29782612D01*
X27380000Y29775000D01*
X26380000Y29775000D01*
X26341732Y29782612D01*
X26309289Y29804289D01*
X26287612Y29836732D01*
X26280000Y29875000D01*
X26280000Y33025000D01*
X26287612Y33063268D01*
X26309289Y33095711D01*
X26341732Y33117388D01*
X26380000Y33125000D01*
X27380000Y33125000D01*
X27418268Y33117388D01*
G37*
G36*
X29958268Y33117388D02*
G01*
X29990711Y33095711D01*
X30012388Y33063268D01*
X30020000Y33025000D01*
X30020000Y29875000D01*
X30012388Y29836732D01*
X29990711Y29804289D01*
X29958268Y29782612D01*
X29920000Y29775000D01*
X28920000Y29775000D01*
X28881732Y29782612D01*
X28849289Y29804289D01*
X28827612Y29836732D01*
X28820000Y29875000D01*
X28820000Y33025000D01*
X28827612Y33063268D01*
X28849289Y33095711D01*
X28881732Y33117388D01*
X28920000Y33125000D01*
X29920000Y33125000D01*
X29958268Y33117388D01*
G37*
G36*
X32498268Y33117388D02*
G01*
X32530711Y33095711D01*
X32552388Y33063268D01*
X32560000Y33025000D01*
X32560000Y29875000D01*
X32552388Y29836732D01*
X32530711Y29804289D01*
X32498268Y29782612D01*
X32460000Y29775000D01*
X31460000Y29775000D01*
X31421732Y29782612D01*
X31389289Y29804289D01*
X31367612Y29836732D01*
X31360000Y29875000D01*
X31360000Y33025000D01*
X31367612Y33063268D01*
X31389289Y33095711D01*
X31421732Y33117388D01*
X31460000Y33125000D01*
X32460000Y33125000D01*
X32498268Y33117388D01*
G37*
G36*
X35038268Y33117388D02*
G01*
X35070711Y33095711D01*
X35092388Y33063268D01*
X35100000Y33025000D01*
X35100000Y29875000D01*
X35092388Y29836732D01*
X35070711Y29804289D01*
X35038268Y29782612D01*
X35000000Y29775000D01*
X34000000Y29775000D01*
X33961732Y29782612D01*
X33929289Y29804289D01*
X33907612Y29836732D01*
X33900000Y29875000D01*
X33900000Y33025000D01*
X33907612Y33063268D01*
X33929289Y33095711D01*
X33961732Y33117388D01*
X34000000Y33125000D01*
X35000000Y33125000D01*
X35038268Y33117388D01*
G37*
G36*
X37578268Y33117388D02*
G01*
X37610711Y33095711D01*
X37632388Y33063268D01*
X37640000Y33025000D01*
X37640000Y29875000D01*
X37632388Y29836732D01*
X37610711Y29804289D01*
X37578268Y29782612D01*
X37540000Y29775000D01*
X36540000Y29775000D01*
X36501732Y29782612D01*
X36469289Y29804289D01*
X36447612Y29836732D01*
X36440000Y29875000D01*
X36440000Y33025000D01*
X36447612Y33063268D01*
X36469289Y33095711D01*
X36501732Y33117388D01*
X36540000Y33125000D01*
X37540000Y33125000D01*
X37578268Y33117388D01*
G37*
G36*
X40118268Y33117388D02*
G01*
X40150711Y33095711D01*
X40172388Y33063268D01*
X40180000Y33025000D01*
X40180000Y29875000D01*
X40172388Y29836732D01*
X40150711Y29804289D01*
X40118268Y29782612D01*
X40080000Y29775000D01*
X39080000Y29775000D01*
X39041732Y29782612D01*
X39009289Y29804289D01*
X38987612Y29836732D01*
X38980000Y29875000D01*
X38980000Y33025000D01*
X38987612Y33063268D01*
X39009289Y33095711D01*
X39041732Y33117388D01*
X39080000Y33125000D01*
X40080000Y33125000D01*
X40118268Y33117388D01*
G37*
G36*
X42658268Y33117388D02*
G01*
X42690711Y33095711D01*
X42712388Y33063268D01*
X42720000Y33025000D01*
X42720000Y29875000D01*
X42712388Y29836732D01*
X42690711Y29804289D01*
X42658268Y29782612D01*
X42620000Y29775000D01*
X41620000Y29775000D01*
X41581732Y29782612D01*
X41549289Y29804289D01*
X41527612Y29836732D01*
X41520000Y29875000D01*
X41520000Y33025000D01*
X41527612Y33063268D01*
X41549289Y33095711D01*
X41581732Y33117388D01*
X41620000Y33125000D01*
X42620000Y33125000D01*
X42658268Y33117388D01*
G37*
G36*
X45198268Y33117388D02*
G01*
X45230711Y33095711D01*
X45252388Y33063268D01*
X45260000Y33025000D01*
X45260000Y29875000D01*
X45252388Y29836732D01*
X45230711Y29804289D01*
X45198268Y29782612D01*
X45160000Y29775000D01*
X44160000Y29775000D01*
X44121732Y29782612D01*
X44089289Y29804289D01*
X44067612Y29836732D01*
X44060000Y29875000D01*
X44060000Y33025000D01*
X44067612Y33063268D01*
X44089289Y33095711D01*
X44121732Y33117388D01*
X44160000Y33125000D01*
X45160000Y33125000D01*
X45198268Y33117388D01*
G37*
G36*
X47738268Y33117388D02*
G01*
X47770711Y33095711D01*
X47792388Y33063268D01*
X47800000Y33025000D01*
X47800000Y29875000D01*
X47792388Y29836732D01*
X47770711Y29804289D01*
X47738268Y29782612D01*
X47700000Y29775000D01*
X46700000Y29775000D01*
X46661732Y29782612D01*
X46629289Y29804289D01*
X46607612Y29836732D01*
X46600000Y29875000D01*
X46600000Y33025000D01*
X46607612Y33063268D01*
X46629289Y33095711D01*
X46661732Y33117388D01*
X46700000Y33125000D01*
X47700000Y33125000D01*
X47738268Y33117388D01*
G37*
G36*
X50278268Y33117388D02*
G01*
X50310711Y33095711D01*
X50332388Y33063268D01*
X50340000Y33025000D01*
X50340000Y29875000D01*
X50332388Y29836732D01*
X50310711Y29804289D01*
X50278268Y29782612D01*
X50240000Y29775000D01*
X49240000Y29775000D01*
X49201732Y29782612D01*
X49169289Y29804289D01*
X49147612Y29836732D01*
X49140000Y29875000D01*
X49140000Y33025000D01*
X49147612Y33063268D01*
X49169289Y33095711D01*
X49201732Y33117388D01*
X49240000Y33125000D01*
X50240000Y33125000D01*
X50278268Y33117388D01*
G37*
G36*
X52818268Y33117388D02*
G01*
X52850711Y33095711D01*
X52872388Y33063268D01*
X52880000Y33025000D01*
X52880000Y29875000D01*
X52872388Y29836732D01*
X52850711Y29804289D01*
X52818268Y29782612D01*
X52780000Y29775000D01*
X51780000Y29775000D01*
X51741732Y29782612D01*
X51709289Y29804289D01*
X51687612Y29836732D01*
X51680000Y29875000D01*
X51680000Y33025000D01*
X51687612Y33063268D01*
X51709289Y33095711D01*
X51741732Y33117388D01*
X51780000Y33125000D01*
X52780000Y33125000D01*
X52818268Y33117388D01*
G37*
G36*
X55358268Y33117388D02*
G01*
X55390711Y33095711D01*
X55412388Y33063268D01*
X55420000Y33025000D01*
X55420000Y29875000D01*
X55412388Y29836732D01*
X55390711Y29804289D01*
X55358268Y29782612D01*
X55320000Y29775000D01*
X54320000Y29775000D01*
X54281732Y29782612D01*
X54249289Y29804289D01*
X54227612Y29836732D01*
X54220000Y29875000D01*
X54220000Y33025000D01*
X54227612Y33063268D01*
X54249289Y33095711D01*
X54281732Y33117388D01*
X54320000Y33125000D01*
X55320000Y33125000D01*
X55358268Y33117388D01*
G37*
G36*
X62788268Y35842388D02*
G01*
X62820711Y35820711D01*
X62842388Y35788268D01*
X62850000Y35750000D01*
X62850000Y32250000D01*
X62842388Y32211732D01*
X62820711Y32179289D01*
X62788268Y32157612D01*
X62750000Y32150000D01*
X59250000Y32150000D01*
X59211732Y32157612D01*
X59179289Y32179289D01*
X59157612Y32211732D01*
X59150000Y32250000D01*
X59150000Y35750000D01*
X59157612Y35788268D01*
X59179289Y35820711D01*
X59211732Y35842388D01*
X59250000Y35850000D01*
X62750000Y35850000D01*
X62788268Y35842388D01*
G37*
G36*
X67864750Y35842219D02*
G01*
X67873007Y35840166D01*
X67882290Y35839435D01*
X67964200Y35817487D01*
X68043119Y35797860D01*
X68049787Y35794553D01*
X68054511Y35793287D01*
X68133857Y35752859D01*
X68207783Y35716195D01*
X68211192Y35713455D01*
X68212795Y35712638D01*
X68291802Y35648659D01*
X68351041Y35601041D01*
X68398684Y35541771D01*
X68462637Y35462796D01*
X68463453Y35461194D01*
X68466195Y35457783D01*
X68502876Y35383822D01*
X68543286Y35304512D01*
X68544551Y35299792D01*
X68547860Y35293119D01*
X68567497Y35214156D01*
X68589434Y35132290D01*
X68590164Y35123014D01*
X68592219Y35114750D01*
X68600000Y35000000D01*
X68600000Y33000000D01*
X68592219Y32885250D01*
X68590164Y32876987D01*
X68589434Y32867710D01*
X68567499Y32785852D01*
X68547860Y32706881D01*
X68544550Y32700208D01*
X68543286Y32695489D01*
X68502894Y32616217D01*
X68466195Y32542217D01*
X68463452Y32538805D01*
X68462637Y32537205D01*
X68398793Y32458366D01*
X68351041Y32398959D01*
X68291634Y32351207D01*
X68212795Y32287363D01*
X68211195Y32286548D01*
X68207783Y32283805D01*
X68133783Y32247106D01*
X68054511Y32206714D01*
X68049792Y32205450D01*
X68043119Y32202140D01*
X67964141Y32182499D01*
X67882289Y32160566D01*
X67873013Y32159837D01*
X67864750Y32157781D01*
X67750000Y32150000D01*
X66250000Y32150000D01*
X66135250Y32157781D01*
X66126987Y32159836D01*
X66117709Y32160566D01*
X66035837Y32182505D01*
X65956881Y32202140D01*
X65950209Y32205449D01*
X65945488Y32206714D01*
X65866178Y32247124D01*
X65792217Y32283805D01*
X65788806Y32286547D01*
X65787204Y32287363D01*
X65708229Y32351316D01*
X65648959Y32398959D01*
X65601341Y32458198D01*
X65537362Y32537205D01*
X65536545Y32538808D01*
X65533805Y32542217D01*
X65497141Y32616143D01*
X65456713Y32695489D01*
X65455447Y32700213D01*
X65452140Y32706881D01*
X65432511Y32785807D01*
X65410565Y32867711D01*
X65409834Y32876993D01*
X65407781Y32885250D01*
X65400000Y33000000D01*
X65400000Y35000000D01*
X65407781Y35114750D01*
X65409834Y35123007D01*
X65410565Y35132291D01*
X65432517Y35214215D01*
X65452140Y35293119D01*
X65455446Y35299787D01*
X65456713Y35304512D01*
X65497160Y35383896D01*
X65533805Y35457783D01*
X65536543Y35461191D01*
X65537362Y35462796D01*
X65601450Y35541938D01*
X65648959Y35601041D01*
X65708062Y35648550D01*
X65787204Y35712638D01*
X65788809Y35713457D01*
X65792217Y35716195D01*
X65866104Y35752840D01*
X65945488Y35793287D01*
X65950213Y35794554D01*
X65956881Y35797860D01*
X66035792Y35817485D01*
X66117710Y35839435D01*
X66126992Y35840166D01*
X66135250Y35842219D01*
X66250000Y35850000D01*
X67750000Y35850000D01*
X67864750Y35842219D01*
G37*
G36*
X7098268Y38167388D02*
G01*
X7130711Y38145711D01*
X7152388Y38113268D01*
X7160000Y38075000D01*
X7160000Y34925000D01*
X7152388Y34886732D01*
X7130711Y34854289D01*
X7098268Y34832612D01*
X7060000Y34825000D01*
X6060000Y34825000D01*
X6021732Y34832612D01*
X5989289Y34854289D01*
X5967612Y34886732D01*
X5960000Y34925000D01*
X5960000Y38075000D01*
X5967612Y38113268D01*
X5989289Y38145711D01*
X6021732Y38167388D01*
X6060000Y38175000D01*
X7060000Y38175000D01*
X7098268Y38167388D01*
G37*
G36*
X9638268Y38167388D02*
G01*
X9670711Y38145711D01*
X9692388Y38113268D01*
X9700000Y38075000D01*
X9700000Y34925000D01*
X9692388Y34886732D01*
X9670711Y34854289D01*
X9638268Y34832612D01*
X9600000Y34825000D01*
X8600000Y34825000D01*
X8561732Y34832612D01*
X8529289Y34854289D01*
X8507612Y34886732D01*
X8500000Y34925000D01*
X8500000Y38075000D01*
X8507612Y38113268D01*
X8529289Y38145711D01*
X8561732Y38167388D01*
X8600000Y38175000D01*
X9600000Y38175000D01*
X9638268Y38167388D01*
G37*
G36*
X12178268Y38167388D02*
G01*
X12210711Y38145711D01*
X12232388Y38113268D01*
X12240000Y38075000D01*
X12240000Y34925000D01*
X12232388Y34886732D01*
X12210711Y34854289D01*
X12178268Y34832612D01*
X12140000Y34825000D01*
X11140000Y34825000D01*
X11101732Y34832612D01*
X11069289Y34854289D01*
X11047612Y34886732D01*
X11040000Y34925000D01*
X11040000Y38075000D01*
X11047612Y38113268D01*
X11069289Y38145711D01*
X11101732Y38167388D01*
X11140000Y38175000D01*
X12140000Y38175000D01*
X12178268Y38167388D01*
G37*
G36*
X14718268Y38167388D02*
G01*
X14750711Y38145711D01*
X14772388Y38113268D01*
X14780000Y38075000D01*
X14780000Y34925000D01*
X14772388Y34886732D01*
X14750711Y34854289D01*
X14718268Y34832612D01*
X14680000Y34825000D01*
X13680000Y34825000D01*
X13641732Y34832612D01*
X13609289Y34854289D01*
X13587612Y34886732D01*
X13580000Y34925000D01*
X13580000Y38075000D01*
X13587612Y38113268D01*
X13609289Y38145711D01*
X13641732Y38167388D01*
X13680000Y38175000D01*
X14680000Y38175000D01*
X14718268Y38167388D01*
G37*
G36*
X17258268Y38167388D02*
G01*
X17290711Y38145711D01*
X17312388Y38113268D01*
X17320000Y38075000D01*
X17320000Y34925000D01*
X17312388Y34886732D01*
X17290711Y34854289D01*
X17258268Y34832612D01*
X17220000Y34825000D01*
X16220000Y34825000D01*
X16181732Y34832612D01*
X16149289Y34854289D01*
X16127612Y34886732D01*
X16120000Y34925000D01*
X16120000Y38075000D01*
X16127612Y38113268D01*
X16149289Y38145711D01*
X16181732Y38167388D01*
X16220000Y38175000D01*
X17220000Y38175000D01*
X17258268Y38167388D01*
G37*
G36*
X19798268Y38167388D02*
G01*
X19830711Y38145711D01*
X19852388Y38113268D01*
X19860000Y38075000D01*
X19860000Y34925000D01*
X19852388Y34886732D01*
X19830711Y34854289D01*
X19798268Y34832612D01*
X19760000Y34825000D01*
X18760000Y34825000D01*
X18721732Y34832612D01*
X18689289Y34854289D01*
X18667612Y34886732D01*
X18660000Y34925000D01*
X18660000Y38075000D01*
X18667612Y38113268D01*
X18689289Y38145711D01*
X18721732Y38167388D01*
X18760000Y38175000D01*
X19760000Y38175000D01*
X19798268Y38167388D01*
G37*
G36*
X22338268Y38167388D02*
G01*
X22370711Y38145711D01*
X22392388Y38113268D01*
X22400000Y38075000D01*
X22400000Y34925000D01*
X22392388Y34886732D01*
X22370711Y34854289D01*
X22338268Y34832612D01*
X22300000Y34825000D01*
X21300000Y34825000D01*
X21261732Y34832612D01*
X21229289Y34854289D01*
X21207612Y34886732D01*
X21200000Y34925000D01*
X21200000Y38075000D01*
X21207612Y38113268D01*
X21229289Y38145711D01*
X21261732Y38167388D01*
X21300000Y38175000D01*
X22300000Y38175000D01*
X22338268Y38167388D01*
G37*
G36*
X24878268Y38167388D02*
G01*
X24910711Y38145711D01*
X24932388Y38113268D01*
X24940000Y38075000D01*
X24940000Y34925000D01*
X24932388Y34886732D01*
X24910711Y34854289D01*
X24878268Y34832612D01*
X24840000Y34825000D01*
X23840000Y34825000D01*
X23801732Y34832612D01*
X23769289Y34854289D01*
X23747612Y34886732D01*
X23740000Y34925000D01*
X23740000Y38075000D01*
X23747612Y38113268D01*
X23769289Y38145711D01*
X23801732Y38167388D01*
X23840000Y38175000D01*
X24840000Y38175000D01*
X24878268Y38167388D01*
G37*
G36*
X27418268Y38167388D02*
G01*
X27450711Y38145711D01*
X27472388Y38113268D01*
X27480000Y38075000D01*
X27480000Y34925000D01*
X27472388Y34886732D01*
X27450711Y34854289D01*
X27418268Y34832612D01*
X27380000Y34825000D01*
X26380000Y34825000D01*
X26341732Y34832612D01*
X26309289Y34854289D01*
X26287612Y34886732D01*
X26280000Y34925000D01*
X26280000Y38075000D01*
X26287612Y38113268D01*
X26309289Y38145711D01*
X26341732Y38167388D01*
X26380000Y38175000D01*
X27380000Y38175000D01*
X27418268Y38167388D01*
G37*
G36*
X29958268Y38167388D02*
G01*
X29990711Y38145711D01*
X30012388Y38113268D01*
X30020000Y38075000D01*
X30020000Y34925000D01*
X30012388Y34886732D01*
X29990711Y34854289D01*
X29958268Y34832612D01*
X29920000Y34825000D01*
X28920000Y34825000D01*
X28881732Y34832612D01*
X28849289Y34854289D01*
X28827612Y34886732D01*
X28820000Y34925000D01*
X28820000Y38075000D01*
X28827612Y38113268D01*
X28849289Y38145711D01*
X28881732Y38167388D01*
X28920000Y38175000D01*
X29920000Y38175000D01*
X29958268Y38167388D01*
G37*
G36*
X32498268Y38167388D02*
G01*
X32530711Y38145711D01*
X32552388Y38113268D01*
X32560000Y38075000D01*
X32560000Y34925000D01*
X32552388Y34886732D01*
X32530711Y34854289D01*
X32498268Y34832612D01*
X32460000Y34825000D01*
X31460000Y34825000D01*
X31421732Y34832612D01*
X31389289Y34854289D01*
X31367612Y34886732D01*
X31360000Y34925000D01*
X31360000Y38075000D01*
X31367612Y38113268D01*
X31389289Y38145711D01*
X31421732Y38167388D01*
X31460000Y38175000D01*
X32460000Y38175000D01*
X32498268Y38167388D01*
G37*
G36*
X35038268Y38167388D02*
G01*
X35070711Y38145711D01*
X35092388Y38113268D01*
X35100000Y38075000D01*
X35100000Y34925000D01*
X35092388Y34886732D01*
X35070711Y34854289D01*
X35038268Y34832612D01*
X35000000Y34825000D01*
X34000000Y34825000D01*
X33961732Y34832612D01*
X33929289Y34854289D01*
X33907612Y34886732D01*
X33900000Y34925000D01*
X33900000Y38075000D01*
X33907612Y38113268D01*
X33929289Y38145711D01*
X33961732Y38167388D01*
X34000000Y38175000D01*
X35000000Y38175000D01*
X35038268Y38167388D01*
G37*
G36*
X37578268Y38167388D02*
G01*
X37610711Y38145711D01*
X37632388Y38113268D01*
X37640000Y38075000D01*
X37640000Y34925000D01*
X37632388Y34886732D01*
X37610711Y34854289D01*
X37578268Y34832612D01*
X37540000Y34825000D01*
X36540000Y34825000D01*
X36501732Y34832612D01*
X36469289Y34854289D01*
X36447612Y34886732D01*
X36440000Y34925000D01*
X36440000Y38075000D01*
X36447612Y38113268D01*
X36469289Y38145711D01*
X36501732Y38167388D01*
X36540000Y38175000D01*
X37540000Y38175000D01*
X37578268Y38167388D01*
G37*
G36*
X40118268Y38167388D02*
G01*
X40150711Y38145711D01*
X40172388Y38113268D01*
X40180000Y38075000D01*
X40180000Y34925000D01*
X40172388Y34886732D01*
X40150711Y34854289D01*
X40118268Y34832612D01*
X40080000Y34825000D01*
X39080000Y34825000D01*
X39041732Y34832612D01*
X39009289Y34854289D01*
X38987612Y34886732D01*
X38980000Y34925000D01*
X38980000Y38075000D01*
X38987612Y38113268D01*
X39009289Y38145711D01*
X39041732Y38167388D01*
X39080000Y38175000D01*
X40080000Y38175000D01*
X40118268Y38167388D01*
G37*
G36*
X42658268Y38167388D02*
G01*
X42690711Y38145711D01*
X42712388Y38113268D01*
X42720000Y38075000D01*
X42720000Y34925000D01*
X42712388Y34886732D01*
X42690711Y34854289D01*
X42658268Y34832612D01*
X42620000Y34825000D01*
X41620000Y34825000D01*
X41581732Y34832612D01*
X41549289Y34854289D01*
X41527612Y34886732D01*
X41520000Y34925000D01*
X41520000Y38075000D01*
X41527612Y38113268D01*
X41549289Y38145711D01*
X41581732Y38167388D01*
X41620000Y38175000D01*
X42620000Y38175000D01*
X42658268Y38167388D01*
G37*
G36*
X45198268Y38167388D02*
G01*
X45230711Y38145711D01*
X45252388Y38113268D01*
X45260000Y38075000D01*
X45260000Y34925000D01*
X45252388Y34886732D01*
X45230711Y34854289D01*
X45198268Y34832612D01*
X45160000Y34825000D01*
X44160000Y34825000D01*
X44121732Y34832612D01*
X44089289Y34854289D01*
X44067612Y34886732D01*
X44060000Y34925000D01*
X44060000Y38075000D01*
X44067612Y38113268D01*
X44089289Y38145711D01*
X44121732Y38167388D01*
X44160000Y38175000D01*
X45160000Y38175000D01*
X45198268Y38167388D01*
G37*
G36*
X47738268Y38167388D02*
G01*
X47770711Y38145711D01*
X47792388Y38113268D01*
X47800000Y38075000D01*
X47800000Y34925000D01*
X47792388Y34886732D01*
X47770711Y34854289D01*
X47738268Y34832612D01*
X47700000Y34825000D01*
X46700000Y34825000D01*
X46661732Y34832612D01*
X46629289Y34854289D01*
X46607612Y34886732D01*
X46600000Y34925000D01*
X46600000Y38075000D01*
X46607612Y38113268D01*
X46629289Y38145711D01*
X46661732Y38167388D01*
X46700000Y38175000D01*
X47700000Y38175000D01*
X47738268Y38167388D01*
G37*
G36*
X50278268Y38167388D02*
G01*
X50310711Y38145711D01*
X50332388Y38113268D01*
X50340000Y38075000D01*
X50340000Y34925000D01*
X50332388Y34886732D01*
X50310711Y34854289D01*
X50278268Y34832612D01*
X50240000Y34825000D01*
X49240000Y34825000D01*
X49201732Y34832612D01*
X49169289Y34854289D01*
X49147612Y34886732D01*
X49140000Y34925000D01*
X49140000Y38075000D01*
X49147612Y38113268D01*
X49169289Y38145711D01*
X49201732Y38167388D01*
X49240000Y38175000D01*
X50240000Y38175000D01*
X50278268Y38167388D01*
G37*
G36*
X52818268Y38167388D02*
G01*
X52850711Y38145711D01*
X52872388Y38113268D01*
X52880000Y38075000D01*
X52880000Y34925000D01*
X52872388Y34886732D01*
X52850711Y34854289D01*
X52818268Y34832612D01*
X52780000Y34825000D01*
X51780000Y34825000D01*
X51741732Y34832612D01*
X51709289Y34854289D01*
X51687612Y34886732D01*
X51680000Y34925000D01*
X51680000Y38075000D01*
X51687612Y38113268D01*
X51709289Y38145711D01*
X51741732Y38167388D01*
X51780000Y38175000D01*
X52780000Y38175000D01*
X52818268Y38167388D01*
G37*
G36*
X55358268Y38167388D02*
G01*
X55390711Y38145711D01*
X55412388Y38113268D01*
X55420000Y38075000D01*
X55420000Y34925000D01*
X55412388Y34886732D01*
X55390711Y34854289D01*
X55358268Y34832612D01*
X55320000Y34825000D01*
X54320000Y34825000D01*
X54281732Y34832612D01*
X54249289Y34854289D01*
X54227612Y34886732D01*
X54220000Y34925000D01*
X54220000Y38075000D01*
X54227612Y38113268D01*
X54249289Y38145711D01*
X54281732Y38167388D01*
X54320000Y38175000D01*
X55320000Y38175000D01*
X55358268Y38167388D01*
G37*
G36*
X65047009Y40534707D02*
G01*
X65057080Y40531826D01*
X65065164Y40531029D01*
X65153312Y40504290D01*
X65236676Y40480437D01*
X65243225Y40477016D01*
X65248025Y40475560D01*
X65334494Y40429341D01*
X65411535Y40389098D01*
X65414869Y40386380D01*
X65416544Y40385484D01*
X65505639Y40312366D01*
X65564429Y40264429D01*
X65612393Y40205606D01*
X65685483Y40116545D01*
X65686377Y40114872D01*
X65689098Y40111535D01*
X65729360Y40034457D01*
X65775559Y39948026D01*
X65777014Y39943229D01*
X65780437Y39936676D01*
X65804301Y39853273D01*
X65831028Y39765165D01*
X65831823Y39757086D01*
X65834707Y39747009D01*
X65850000Y39575000D01*
X65850000Y37825000D01*
X65834707Y37652991D01*
X65831823Y37642914D01*
X65831028Y37634836D01*
X65804306Y37546746D01*
X65780437Y37463324D01*
X65777013Y37456771D01*
X65775559Y37451975D01*
X65729383Y37365588D01*
X65689098Y37288465D01*
X65686376Y37285127D01*
X65685483Y37283456D01*
X65612520Y37194550D01*
X65564429Y37135571D01*
X65505450Y37087480D01*
X65416544Y37014517D01*
X65414873Y37013624D01*
X65411535Y37010902D01*
X65334412Y36970617D01*
X65248025Y36924441D01*
X65243229Y36922987D01*
X65236676Y36919563D01*
X65153254Y36895694D01*
X65065164Y36868972D01*
X65057086Y36868177D01*
X65047009Y36865293D01*
X64875000Y36850000D01*
X63125000Y36850000D01*
X62952991Y36865293D01*
X62942914Y36868177D01*
X62934835Y36868972D01*
X62846727Y36895699D01*
X62763324Y36919563D01*
X62756771Y36922986D01*
X62751974Y36924441D01*
X62665543Y36970640D01*
X62588465Y37010902D01*
X62585128Y37013623D01*
X62583455Y37014517D01*
X62494394Y37087607D01*
X62435571Y37135571D01*
X62387634Y37194361D01*
X62314516Y37283456D01*
X62313620Y37285131D01*
X62310902Y37288465D01*
X62270659Y37365506D01*
X62224440Y37451975D01*
X62222984Y37456775D01*
X62219563Y37463324D01*
X62195710Y37546688D01*
X62168971Y37634836D01*
X62168174Y37642920D01*
X62165293Y37652991D01*
X62150000Y37825000D01*
X62150000Y39575000D01*
X62165293Y39747009D01*
X62168174Y39757081D01*
X62168971Y39765165D01*
X62195715Y39853331D01*
X62219563Y39936676D01*
X62222983Y39943224D01*
X62224440Y39948026D01*
X62270682Y40034539D01*
X62310902Y40111535D01*
X62313619Y40114868D01*
X62314516Y40116545D01*
X62387761Y40205795D01*
X62435571Y40264429D01*
X62494205Y40312239D01*
X62583455Y40385484D01*
X62585132Y40386381D01*
X62588465Y40389098D01*
X62665461Y40429318D01*
X62751974Y40475560D01*
X62756776Y40477017D01*
X62763324Y40480437D01*
X62846669Y40504285D01*
X62934835Y40531029D01*
X62942919Y40531826D01*
X62952991Y40534707D01*
X63125000Y40550000D01*
X64875000Y40550000D01*
X65047009Y40534707D01*
G37*
G36*
X9274851Y41326000D02*
G01*
X9284457Y41321521D01*
X9291601Y41320389D01*
X9342493Y41294459D01*
X9381082Y41276464D01*
X9384482Y41273064D01*
X9385508Y41272541D01*
X9460040Y41198009D01*
X9460562Y41196984D01*
X9463964Y41193582D01*
X9481965Y41154977D01*
X9507888Y41104101D01*
X9509018Y41096961D01*
X9513500Y41087351D01*
X9525000Y41000000D01*
X9525000Y40525000D01*
X9513500Y40437649D01*
X9509018Y40428040D01*
X9507888Y40420899D01*
X9481968Y40370030D01*
X9463964Y40331418D01*
X9460561Y40328016D01*
X9460040Y40326992D01*
X9385508Y40252460D01*
X9384484Y40251939D01*
X9381082Y40248536D01*
X9342464Y40230529D01*
X9291600Y40204612D01*
X9284461Y40203482D01*
X9274851Y40199000D01*
X9187500Y40187500D01*
X8587500Y40187500D01*
X8500149Y40199000D01*
X8490539Y40203481D01*
X8483398Y40204612D01*
X8432518Y40230537D01*
X8393918Y40248536D01*
X8390516Y40251938D01*
X8389491Y40252460D01*
X8314959Y40326992D01*
X8314436Y40328018D01*
X8311036Y40331418D01*
X8293039Y40370013D01*
X8267111Y40420900D01*
X8265979Y40428042D01*
X8261500Y40437649D01*
X8250000Y40525000D01*
X8250000Y41000000D01*
X8261500Y41087351D01*
X8265979Y41096958D01*
X8267111Y41104102D01*
X8293047Y41155005D01*
X8311036Y41193582D01*
X8314435Y41196982D01*
X8314959Y41198009D01*
X8389491Y41272541D01*
X8390518Y41273065D01*
X8393918Y41276464D01*
X8432500Y41294456D01*
X8483399Y41320389D01*
X8490542Y41321521D01*
X8500149Y41326000D01*
X8587500Y41337500D01*
X9187500Y41337500D01*
X9274851Y41326000D01*
G37*
G36*
X10999851Y41326000D02*
G01*
X11009457Y41321521D01*
X11016601Y41320389D01*
X11067493Y41294459D01*
X11106082Y41276464D01*
X11109482Y41273064D01*
X11110508Y41272541D01*
X11185040Y41198009D01*
X11185562Y41196984D01*
X11188964Y41193582D01*
X11206965Y41154977D01*
X11232888Y41104101D01*
X11234018Y41096961D01*
X11238500Y41087351D01*
X11250000Y41000000D01*
X11250000Y40525000D01*
X11238500Y40437649D01*
X11234018Y40428040D01*
X11232888Y40420899D01*
X11206968Y40370030D01*
X11188964Y40331418D01*
X11185561Y40328016D01*
X11185040Y40326992D01*
X11110508Y40252460D01*
X11109484Y40251939D01*
X11106082Y40248536D01*
X11067464Y40230529D01*
X11016600Y40204612D01*
X11009461Y40203482D01*
X10999851Y40199000D01*
X10912500Y40187500D01*
X10312500Y40187500D01*
X10225149Y40199000D01*
X10215539Y40203481D01*
X10208398Y40204612D01*
X10157518Y40230537D01*
X10118918Y40248536D01*
X10115516Y40251938D01*
X10114491Y40252460D01*
X10039959Y40326992D01*
X10039436Y40328018D01*
X10036036Y40331418D01*
X10018039Y40370013D01*
X9992111Y40420900D01*
X9990979Y40428042D01*
X9986500Y40437649D01*
X9975000Y40525000D01*
X9975000Y41000000D01*
X9986500Y41087351D01*
X9990979Y41096958D01*
X9992111Y41104102D01*
X10018047Y41155005D01*
X10036036Y41193582D01*
X10039435Y41196982D01*
X10039959Y41198009D01*
X10114491Y41272541D01*
X10115518Y41273065D01*
X10118918Y41276464D01*
X10157500Y41294456D01*
X10208399Y41320389D01*
X10215542Y41321521D01*
X10225149Y41326000D01*
X10312500Y41337500D01*
X10912500Y41337500D01*
X10999851Y41326000D01*
G37*
G36*
X8874686Y42675130D02*
G01*
X8927405Y42639905D01*
X8962630Y42587186D01*
X8963119Y42584725D01*
X8973275Y42569526D01*
X9026725Y42569526D01*
X9036880Y42584726D01*
X9037370Y42587186D01*
X9072595Y42639905D01*
X9125314Y42675130D01*
X9187500Y42687500D01*
X9312500Y42687500D01*
X9374686Y42675130D01*
X9427405Y42639905D01*
X9462630Y42587186D01*
X9463119Y42584725D01*
X9473275Y42569526D01*
X9526725Y42569526D01*
X9536880Y42584726D01*
X9537370Y42587186D01*
X9572595Y42639905D01*
X9625314Y42675130D01*
X9687500Y42687500D01*
X9812500Y42687500D01*
X9874686Y42675130D01*
X9927405Y42639905D01*
X9962630Y42587186D01*
X9963119Y42584725D01*
X9973275Y42569526D01*
X10026725Y42569526D01*
X10036880Y42584726D01*
X10037370Y42587186D01*
X10072595Y42639905D01*
X10125314Y42675130D01*
X10187500Y42687500D01*
X10312500Y42687500D01*
X10374686Y42675130D01*
X10427405Y42639905D01*
X10462630Y42587186D01*
X10463119Y42584725D01*
X10473275Y42569526D01*
X10526725Y42569526D01*
X10536880Y42584726D01*
X10537370Y42587186D01*
X10572595Y42639905D01*
X10625314Y42675130D01*
X10687500Y42687500D01*
X10812500Y42687500D01*
X10874686Y42675130D01*
X10927405Y42639905D01*
X10962630Y42587186D01*
X10963119Y42584725D01*
X10973275Y42569526D01*
X11026725Y42569526D01*
X11036880Y42584726D01*
X11037370Y42587186D01*
X11072595Y42639905D01*
X11125314Y42675130D01*
X11187500Y42687500D01*
X11312500Y42687500D01*
X11374686Y42675130D01*
X11427405Y42639905D01*
X11462630Y42587186D01*
X11463119Y42584725D01*
X11473275Y42569526D01*
X11526725Y42569526D01*
X11536880Y42584726D01*
X11537370Y42587186D01*
X11572595Y42639905D01*
X11625314Y42675130D01*
X11687500Y42687500D01*
X11812500Y42687500D01*
X11874686Y42675130D01*
X11927405Y42639905D01*
X11962630Y42587186D01*
X11975000Y42525000D01*
X11975000Y41975000D01*
X11962630Y41912814D01*
X11927405Y41860095D01*
X11874686Y41824870D01*
X11812500Y41812500D01*
X11687500Y41812500D01*
X11625314Y41824870D01*
X11572595Y41860095D01*
X11537370Y41912814D01*
X11536880Y41915277D01*
X11526725Y41930475D01*
X11473275Y41930475D01*
X11463120Y41915278D01*
X11462630Y41912814D01*
X11427405Y41860095D01*
X11374686Y41824870D01*
X11312500Y41812500D01*
X11187500Y41812500D01*
X11125314Y41824870D01*
X11072595Y41860095D01*
X11037370Y41912814D01*
X11036880Y41915277D01*
X11026725Y41930475D01*
X10973275Y41930475D01*
X10963120Y41915278D01*
X10962630Y41912814D01*
X10927405Y41860095D01*
X10874686Y41824870D01*
X10812500Y41812500D01*
X10687500Y41812500D01*
X10625314Y41824870D01*
X10572595Y41860095D01*
X10537370Y41912814D01*
X10536880Y41915277D01*
X10526725Y41930475D01*
X10473275Y41930475D01*
X10463120Y41915278D01*
X10462630Y41912814D01*
X10427405Y41860095D01*
X10374686Y41824870D01*
X10312500Y41812500D01*
X10187500Y41812500D01*
X10125314Y41824870D01*
X10072595Y41860095D01*
X10037370Y41912814D01*
X10036880Y41915277D01*
X10026725Y41930475D01*
X9973275Y41930475D01*
X9963120Y41915278D01*
X9962630Y41912814D01*
X9927405Y41860095D01*
X9874686Y41824870D01*
X9812500Y41812500D01*
X9687500Y41812500D01*
X9625314Y41824870D01*
X9572595Y41860095D01*
X9537370Y41912814D01*
X9536880Y41915277D01*
X9526725Y41930475D01*
X9473275Y41930475D01*
X9463120Y41915278D01*
X9462630Y41912814D01*
X9427405Y41860095D01*
X9374686Y41824870D01*
X9312500Y41812500D01*
X9187500Y41812500D01*
X9125314Y41824870D01*
X9072595Y41860095D01*
X9037370Y41912814D01*
X9036880Y41915277D01*
X9026725Y41930475D01*
X8973275Y41930475D01*
X8963120Y41915278D01*
X8962630Y41912814D01*
X8927405Y41860095D01*
X8874686Y41824870D01*
X8812500Y41812500D01*
X8687500Y41812500D01*
X8625314Y41824870D01*
X8572595Y41860095D01*
X8537370Y41912814D01*
X8525000Y41975000D01*
X8525000Y42525000D01*
X8537370Y42587186D01*
X8572595Y42639905D01*
X8625314Y42675130D01*
X8687500Y42687500D01*
X8812500Y42687500D01*
X8874686Y42675130D01*
G37*
G36*
X8574686Y43725130D02*
G01*
X8627405Y43689905D01*
X8662630Y43637186D01*
X8675000Y43575000D01*
X8675000Y43450000D01*
X8662630Y43387814D01*
X8627405Y43335095D01*
X8574686Y43299870D01*
X8512500Y43287500D01*
X7962500Y43287500D01*
X7900314Y43299870D01*
X7847595Y43335095D01*
X7812370Y43387814D01*
X7800000Y43450000D01*
X7800000Y43575000D01*
X7812370Y43637186D01*
X7847595Y43689905D01*
X7900314Y43725130D01*
X7962500Y43737500D01*
X8512500Y43737500D01*
X8574686Y43725130D01*
G37*
G36*
X12599686Y43725130D02*
G01*
X12652405Y43689905D01*
X12687630Y43637186D01*
X12700000Y43575000D01*
X12700000Y43450000D01*
X12687630Y43387814D01*
X12652405Y43335095D01*
X12599686Y43299870D01*
X12537500Y43287500D01*
X11987500Y43287500D01*
X11925314Y43299870D01*
X11872595Y43335095D01*
X11837370Y43387814D01*
X11825000Y43450000D01*
X11825000Y43575000D01*
X11837370Y43637186D01*
X11872595Y43689905D01*
X11925314Y43725130D01*
X11987500Y43737500D01*
X12537500Y43737500D01*
X12599686Y43725130D01*
G37*
G36*
X8874686Y45200130D02*
G01*
X8927405Y45164905D01*
X8962630Y45112186D01*
X8963119Y45109725D01*
X8973275Y45094526D01*
X9026725Y45094526D01*
X9036880Y45109726D01*
X9037370Y45112186D01*
X9072595Y45164905D01*
X9125314Y45200130D01*
X9187500Y45212500D01*
X9312500Y45212500D01*
X9374686Y45200130D01*
X9427405Y45164905D01*
X9462630Y45112186D01*
X9463119Y45109725D01*
X9473275Y45094526D01*
X9526725Y45094526D01*
X9536880Y45109726D01*
X9537370Y45112186D01*
X9572595Y45164905D01*
X9625314Y45200130D01*
X9687500Y45212500D01*
X9812500Y45212500D01*
X9874686Y45200130D01*
X9927405Y45164905D01*
X9962630Y45112186D01*
X9963119Y45109725D01*
X9973275Y45094526D01*
X10026725Y45094526D01*
X10036880Y45109726D01*
X10037370Y45112186D01*
X10072595Y45164905D01*
X10125314Y45200130D01*
X10187500Y45212500D01*
X10312500Y45212500D01*
X10374686Y45200130D01*
X10427405Y45164905D01*
X10462630Y45112186D01*
X10463119Y45109725D01*
X10473275Y45094526D01*
X10526725Y45094526D01*
X10536880Y45109726D01*
X10537370Y45112186D01*
X10572595Y45164905D01*
X10625314Y45200130D01*
X10687500Y45212500D01*
X10812500Y45212500D01*
X10874686Y45200130D01*
X10927405Y45164905D01*
X10962630Y45112186D01*
X10963119Y45109725D01*
X10973275Y45094526D01*
X11026725Y45094526D01*
X11036880Y45109726D01*
X11037370Y45112186D01*
X11072595Y45164905D01*
X11125314Y45200130D01*
X11187500Y45212500D01*
X11312500Y45212500D01*
X11374686Y45200130D01*
X11427405Y45164905D01*
X11462630Y45112186D01*
X11463119Y45109725D01*
X11473275Y45094526D01*
X11526725Y45094526D01*
X11536880Y45109726D01*
X11537370Y45112186D01*
X11572595Y45164905D01*
X11625314Y45200130D01*
X11687500Y45212500D01*
X11812500Y45212500D01*
X11874686Y45200130D01*
X11927405Y45164905D01*
X11962630Y45112186D01*
X11975000Y45050000D01*
X11975000Y44500000D01*
X11962630Y44437814D01*
X11927405Y44385095D01*
X11874686Y44349870D01*
X11812500Y44337500D01*
X11687500Y44337500D01*
X11625314Y44349870D01*
X11572595Y44385095D01*
X11537370Y44437814D01*
X11536880Y44440277D01*
X11526725Y44455475D01*
X11473275Y44455475D01*
X11463120Y44440278D01*
X11462630Y44437814D01*
X11427405Y44385095D01*
X11374686Y44349870D01*
X11312500Y44337500D01*
X11187500Y44337500D01*
X11125314Y44349870D01*
X11072595Y44385095D01*
X11037370Y44437814D01*
X11036880Y44440277D01*
X11026725Y44455475D01*
X10973275Y44455475D01*
X10963120Y44440278D01*
X10962630Y44437814D01*
X10927405Y44385095D01*
X10874686Y44349870D01*
X10812500Y44337500D01*
X10687500Y44337500D01*
X10625314Y44349870D01*
X10572595Y44385095D01*
X10537370Y44437814D01*
X10536880Y44440277D01*
X10526725Y44455475D01*
X10473275Y44455475D01*
X10463120Y44440278D01*
X10462630Y44437814D01*
X10427405Y44385095D01*
X10374686Y44349870D01*
X10312500Y44337500D01*
X10187500Y44337500D01*
X10125314Y44349870D01*
X10072595Y44385095D01*
X10037370Y44437814D01*
X10036880Y44440277D01*
X10026725Y44455475D01*
X9973275Y44455475D01*
X9963120Y44440278D01*
X9962630Y44437814D01*
X9927405Y44385095D01*
X9874686Y44349870D01*
X9812500Y44337500D01*
X9687500Y44337500D01*
X9625314Y44349870D01*
X9572595Y44385095D01*
X9537370Y44437814D01*
X9536880Y44440277D01*
X9526725Y44455475D01*
X9473275Y44455475D01*
X9463120Y44440278D01*
X9462630Y44437814D01*
X9427405Y44385095D01*
X9374686Y44349870D01*
X9312500Y44337500D01*
X9187500Y44337500D01*
X9125314Y44349870D01*
X9072595Y44385095D01*
X9037370Y44437814D01*
X9036880Y44440277D01*
X9026725Y44455475D01*
X8973275Y44455475D01*
X8963120Y44440278D01*
X8962630Y44437814D01*
X8927405Y44385095D01*
X8874686Y44349870D01*
X8812500Y44337500D01*
X8687500Y44337500D01*
X8625314Y44349870D01*
X8572595Y44385095D01*
X8537370Y44437814D01*
X8525000Y44500000D01*
X8525000Y45050000D01*
X8537370Y45112186D01*
X8572595Y45164905D01*
X8625314Y45200130D01*
X8687500Y45212500D01*
X8812500Y45212500D01*
X8874686Y45200130D01*
G37*
G36*
X9037351Y46826000D02*
G01*
X9046957Y46821521D01*
X9054101Y46820389D01*
X9104993Y46794459D01*
X9143582Y46776464D01*
X9146982Y46773064D01*
X9148008Y46772541D01*
X9222540Y46698009D01*
X9223062Y46696984D01*
X9226464Y46693582D01*
X9244465Y46654977D01*
X9270388Y46604101D01*
X9271518Y46596961D01*
X9276000Y46587351D01*
X9287500Y46500000D01*
X9287500Y46025000D01*
X9276000Y45937649D01*
X9271518Y45928040D01*
X9270388Y45920899D01*
X9244468Y45870030D01*
X9226464Y45831418D01*
X9223061Y45828016D01*
X9222540Y45826992D01*
X9148008Y45752460D01*
X9146984Y45751939D01*
X9143582Y45748536D01*
X9104964Y45730529D01*
X9054100Y45704612D01*
X9046961Y45703482D01*
X9037351Y45699000D01*
X8950000Y45687500D01*
X8350000Y45687500D01*
X8262649Y45699000D01*
X8253039Y45703481D01*
X8245898Y45704612D01*
X8195018Y45730537D01*
X8156418Y45748536D01*
X8153016Y45751938D01*
X8151991Y45752460D01*
X8077459Y45826992D01*
X8076936Y45828018D01*
X8073536Y45831418D01*
X8055539Y45870013D01*
X8029611Y45920900D01*
X8028479Y45928042D01*
X8024000Y45937649D01*
X8012500Y46025000D01*
X8012500Y46500000D01*
X8024000Y46587351D01*
X8028479Y46596958D01*
X8029611Y46604102D01*
X8055547Y46655005D01*
X8073536Y46693582D01*
X8076935Y46696982D01*
X8077459Y46698009D01*
X8151991Y46772541D01*
X8153018Y46773065D01*
X8156418Y46776464D01*
X8195000Y46794456D01*
X8245899Y46820389D01*
X8253042Y46821521D01*
X8262649Y46826000D01*
X8350000Y46837500D01*
X8950000Y46837500D01*
X9037351Y46826000D01*
G37*
G36*
X10762351Y46826000D02*
G01*
X10771957Y46821521D01*
X10779101Y46820389D01*
X10829993Y46794459D01*
X10868582Y46776464D01*
X10871982Y46773064D01*
X10873008Y46772541D01*
X10947540Y46698009D01*
X10948062Y46696984D01*
X10951464Y46693582D01*
X10969465Y46654977D01*
X10995388Y46604101D01*
X10996518Y46596961D01*
X11001000Y46587351D01*
X11012500Y46500000D01*
X11012500Y46025000D01*
X11001000Y45937649D01*
X10996518Y45928040D01*
X10995388Y45920899D01*
X10969468Y45870030D01*
X10951464Y45831418D01*
X10948061Y45828016D01*
X10947540Y45826992D01*
X10873008Y45752460D01*
X10871984Y45751939D01*
X10868582Y45748536D01*
X10829964Y45730529D01*
X10779100Y45704612D01*
X10771961Y45703482D01*
X10762351Y45699000D01*
X10675000Y45687500D01*
X10075000Y45687500D01*
X9987649Y45699000D01*
X9978039Y45703481D01*
X9970898Y45704612D01*
X9920018Y45730537D01*
X9881418Y45748536D01*
X9878016Y45751938D01*
X9876991Y45752460D01*
X9802459Y45826992D01*
X9801936Y45828018D01*
X9798536Y45831418D01*
X9780539Y45870013D01*
X9754611Y45920900D01*
X9753479Y45928042D01*
X9749000Y45937649D01*
X9737500Y46025000D01*
X9737500Y46500000D01*
X9749000Y46587351D01*
X9753479Y46596958D01*
X9754611Y46604102D01*
X9780547Y46655005D01*
X9798536Y46693582D01*
X9801935Y46696982D01*
X9802459Y46698009D01*
X9876991Y46772541D01*
X9878018Y46773065D01*
X9881418Y46776464D01*
X9920000Y46794456D01*
X9970899Y46820389D01*
X9978042Y46821521D01*
X9987649Y46826000D01*
X10075000Y46837500D01*
X10675000Y46837500D01*
X10762351Y46826000D01*
G37*
G36*
X4484211Y52264282D02*
G01*
X4801835Y52201103D01*
X5111737Y52107095D01*
X5410932Y51983165D01*
X5696539Y51830504D01*
X5965808Y51650585D01*
X6216145Y51445139D01*
X6445139Y51216145D01*
X6650585Y50965808D01*
X6830504Y50696539D01*
X6983165Y50410932D01*
X7107095Y50111737D01*
X7201103Y49801835D01*
X7264282Y49484211D01*
X7296025Y49161923D01*
X7296025Y48838077D01*
X7264282Y48515789D01*
X7201103Y48198165D01*
X7107095Y47888263D01*
X6983165Y47589068D01*
X6830504Y47303461D01*
X6650585Y47034192D01*
X6445139Y46783855D01*
X6216145Y46554861D01*
X5965808Y46349415D01*
X5696539Y46169496D01*
X5410932Y46016835D01*
X5111737Y45892905D01*
X4801835Y45798897D01*
X4484211Y45735718D01*
X4161923Y45703975D01*
X3838077Y45703975D01*
X3515789Y45735718D01*
X3198165Y45798897D01*
X2888263Y45892905D01*
X2589068Y46016835D01*
X2303461Y46169496D01*
X2034192Y46349415D01*
X1783855Y46554861D01*
X1554861Y46783855D01*
X1349415Y47034192D01*
X1169496Y47303461D01*
X1016835Y47589068D01*
X892905Y47888263D01*
X798897Y48198165D01*
X735718Y48515789D01*
X703975Y48838077D01*
X703975Y49161923D01*
X735718Y49484211D01*
X798897Y49801835D01*
X892905Y50111737D01*
X1016835Y50410932D01*
X1169496Y50696539D01*
X1349415Y50965808D01*
X1554861Y51216145D01*
X1783855Y51445139D01*
X2034192Y51650585D01*
X2303461Y51830504D01*
X2589068Y51983165D01*
X2888263Y52107095D01*
X3198165Y52201103D01*
X3515789Y52264282D01*
X3838077Y52296025D01*
X4161923Y52296025D01*
X4484211Y52264282D01*
G37*
G36*
X74484211Y52264282D02*
G01*
X74801835Y52201103D01*
X75111737Y52107095D01*
X75410932Y51983165D01*
X75696539Y51830504D01*
X75965808Y51650585D01*
X76216145Y51445139D01*
X76445139Y51216145D01*
X76650585Y50965808D01*
X76830504Y50696539D01*
X76983165Y50410932D01*
X77107095Y50111737D01*
X77201103Y49801835D01*
X77264282Y49484211D01*
X77296025Y49161923D01*
X77296025Y48838077D01*
X77264282Y48515789D01*
X77201103Y48198165D01*
X77107095Y47888263D01*
X76983165Y47589068D01*
X76830504Y47303461D01*
X76650585Y47034192D01*
X76445139Y46783855D01*
X76216145Y46554861D01*
X75965808Y46349415D01*
X75696539Y46169496D01*
X75410932Y46016835D01*
X75111737Y45892905D01*
X74801835Y45798897D01*
X74484211Y45735718D01*
X74161923Y45703975D01*
X73838077Y45703975D01*
X73515789Y45735718D01*
X73198165Y45798897D01*
X72888263Y45892905D01*
X72589068Y46016835D01*
X72303461Y46169496D01*
X72034192Y46349415D01*
X71783855Y46554861D01*
X71554861Y46783855D01*
X71349415Y47034192D01*
X71169496Y47303461D01*
X71016835Y47589068D01*
X70892905Y47888263D01*
X70798897Y48198165D01*
X70735718Y48515789D01*
X70703975Y48838077D01*
X70703975Y49161923D01*
X70735718Y49484211D01*
X70798897Y49801835D01*
X70892905Y50111737D01*
X71016835Y50410932D01*
X71169496Y50696539D01*
X71349415Y50965808D01*
X71554861Y51216145D01*
X71783855Y51445139D01*
X72034192Y51650585D01*
X72303461Y51830504D01*
X72589068Y51983165D01*
X72888263Y52107095D01*
X73198165Y52201103D01*
X73515789Y52264282D01*
X73838077Y52296025D01*
X74161923Y52296025D01*
X74484211Y52264282D01*
G37*
G36*
X18699868Y48060450D02*
G01*
X18705586Y48057655D01*
X18707962Y48057278D01*
X18745987Y48037904D01*
X18803377Y48009847D01*
X18884847Y47928377D01*
X18912907Y47870980D01*
X18932276Y47832966D01*
X18932652Y47830592D01*
X18935450Y47824868D01*
X18950000Y47725000D01*
X18950000Y46275000D01*
X18935450Y46175132D01*
X18932652Y46169411D01*
X18932277Y46167038D01*
X18912926Y46129061D01*
X18884847Y46071623D01*
X18803377Y45990153D01*
X18745955Y45962081D01*
X18707965Y45942724D01*
X18705591Y45942349D01*
X18699868Y45939550D01*
X18600000Y45925000D01*
X17400000Y45925000D01*
X17300132Y45939550D01*
X17294410Y45942348D01*
X17292037Y45942723D01*
X17254035Y45962086D01*
X17196623Y45990153D01*
X17115153Y46071623D01*
X17087104Y46128997D01*
X17067723Y46167035D01*
X17067346Y46169412D01*
X17064550Y46175132D01*
X17050000Y46275000D01*
X17050000Y47725000D01*
X17064550Y47824868D01*
X17067345Y47830587D01*
X17067722Y47832963D01*
X17087108Y47871013D01*
X17115153Y47928377D01*
X17196623Y48009847D01*
X17253971Y48037884D01*
X17292034Y48057277D01*
X17294411Y48057654D01*
X17300132Y48060450D01*
X17400000Y48075000D01*
X18600000Y48075000D01*
X18699868Y48060450D01*
G37*
G36*
X56449868Y48060450D02*
G01*
X56455586Y48057655D01*
X56457962Y48057278D01*
X56495987Y48037904D01*
X56553377Y48009847D01*
X56634847Y47928377D01*
X56662907Y47870980D01*
X56682276Y47832966D01*
X56682652Y47830592D01*
X56685450Y47824868D01*
X56700000Y47725000D01*
X56700000Y46275000D01*
X56685450Y46175132D01*
X56682652Y46169411D01*
X56682277Y46167038D01*
X56662926Y46129061D01*
X56634847Y46071623D01*
X56553377Y45990153D01*
X56495955Y45962081D01*
X56457965Y45942724D01*
X56455591Y45942349D01*
X56449868Y45939550D01*
X56350000Y45925000D01*
X55150000Y45925000D01*
X55050132Y45939550D01*
X55044410Y45942348D01*
X55042037Y45942723D01*
X55004035Y45962086D01*
X54946623Y45990153D01*
X54865153Y46071623D01*
X54837104Y46128997D01*
X54817723Y46167035D01*
X54817346Y46169412D01*
X54814550Y46175132D01*
X54800000Y46275000D01*
X54800000Y47725000D01*
X54814550Y47824868D01*
X54817345Y47830587D01*
X54817722Y47832963D01*
X54837108Y47871013D01*
X54865153Y47928377D01*
X54946623Y48009847D01*
X55003971Y48037884D01*
X55042034Y48057277D01*
X55044411Y48057654D01*
X55050132Y48060450D01*
X55150000Y48075000D01*
X56350000Y48075000D01*
X56449868Y48060450D01*
G37*
G36*
X20775770Y48034093D02*
G01*
X20947827Y47962825D01*
X21102674Y47859360D01*
X21234360Y47727674D01*
X21337825Y47572827D01*
X21409093Y47400770D01*
X21445425Y47218116D01*
X21450000Y47125000D01*
X21450000Y46875000D01*
X21445425Y46781884D01*
X21409093Y46599230D01*
X21337825Y46427173D01*
X21234360Y46272326D01*
X21102674Y46140640D01*
X20947827Y46037175D01*
X20775770Y45965907D01*
X20593116Y45929575D01*
X20406884Y45929575D01*
X20224230Y45965907D01*
X20052173Y46037175D01*
X19897326Y46140640D01*
X19765640Y46272326D01*
X19662175Y46427173D01*
X19590907Y46599230D01*
X19554575Y46781884D01*
X19550000Y46875000D01*
X19550000Y47125000D01*
X19554575Y47218116D01*
X19590907Y47400770D01*
X19662175Y47572827D01*
X19765640Y47727674D01*
X19897326Y47859360D01*
X20052173Y47962825D01*
X20224230Y48034093D01*
X20406884Y48070425D01*
X20593116Y48070425D01*
X20775770Y48034093D01*
G37*
G36*
X23275770Y48034093D02*
G01*
X23447827Y47962825D01*
X23602674Y47859360D01*
X23734360Y47727674D01*
X23837825Y47572827D01*
X23909093Y47400770D01*
X23945425Y47218116D01*
X23950000Y47125000D01*
X23950000Y46875000D01*
X23945425Y46781884D01*
X23909093Y46599230D01*
X23837825Y46427173D01*
X23734360Y46272326D01*
X23602674Y46140640D01*
X23447827Y46037175D01*
X23275770Y45965907D01*
X23093116Y45929575D01*
X22906884Y45929575D01*
X22724230Y45965907D01*
X22552173Y46037175D01*
X22397326Y46140640D01*
X22265640Y46272326D01*
X22162175Y46427173D01*
X22090907Y46599230D01*
X22054575Y46781884D01*
X22050000Y46875000D01*
X22050000Y47125000D01*
X22054575Y47218116D01*
X22090907Y47400770D01*
X22162175Y47572827D01*
X22265640Y47727674D01*
X22397326Y47859360D01*
X22552173Y47962825D01*
X22724230Y48034093D01*
X22906884Y48070425D01*
X23093116Y48070425D01*
X23275770Y48034093D01*
G37*
G36*
X25775770Y48034093D02*
G01*
X25947827Y47962825D01*
X26102674Y47859360D01*
X26234360Y47727674D01*
X26337825Y47572827D01*
X26409093Y47400770D01*
X26445425Y47218116D01*
X26450000Y47125000D01*
X26450000Y46875000D01*
X26445425Y46781884D01*
X26409093Y46599230D01*
X26337825Y46427173D01*
X26234360Y46272326D01*
X26102674Y46140640D01*
X25947827Y46037175D01*
X25775770Y45965907D01*
X25593116Y45929575D01*
X25406884Y45929575D01*
X25224230Y45965907D01*
X25052173Y46037175D01*
X24897326Y46140640D01*
X24765640Y46272326D01*
X24662175Y46427173D01*
X24590907Y46599230D01*
X24554575Y46781884D01*
X24550000Y46875000D01*
X24550000Y47125000D01*
X24554575Y47218116D01*
X24590907Y47400770D01*
X24662175Y47572827D01*
X24765640Y47727674D01*
X24897326Y47859360D01*
X25052173Y47962825D01*
X25224230Y48034093D01*
X25406884Y48070425D01*
X25593116Y48070425D01*
X25775770Y48034093D01*
G37*
G36*
X58525770Y48034093D02*
G01*
X58697827Y47962825D01*
X58852674Y47859360D01*
X58984360Y47727674D01*
X59087825Y47572827D01*
X59159093Y47400770D01*
X59195425Y47218116D01*
X59200000Y47125000D01*
X59200000Y46875000D01*
X59195425Y46781884D01*
X59159093Y46599230D01*
X59087825Y46427173D01*
X58984360Y46272326D01*
X58852674Y46140640D01*
X58697827Y46037175D01*
X58525770Y45965907D01*
X58343116Y45929575D01*
X58156884Y45929575D01*
X57974230Y45965907D01*
X57802173Y46037175D01*
X57647326Y46140640D01*
X57515640Y46272326D01*
X57412175Y46427173D01*
X57340907Y46599230D01*
X57304575Y46781884D01*
X57300000Y46875000D01*
X57300000Y47125000D01*
X57304575Y47218116D01*
X57340907Y47400770D01*
X57412175Y47572827D01*
X57515640Y47727674D01*
X57647326Y47859360D01*
X57802173Y47962825D01*
X57974230Y48034093D01*
X58156884Y48070425D01*
X58343116Y48070425D01*
X58525770Y48034093D01*
G37*
G36*
X61025770Y48034093D02*
G01*
X61197827Y47962825D01*
X61352674Y47859360D01*
X61484360Y47727674D01*
X61587825Y47572827D01*
X61659093Y47400770D01*
X61695425Y47218116D01*
X61700000Y47125000D01*
X61700000Y46875000D01*
X61695425Y46781884D01*
X61659093Y46599230D01*
X61587825Y46427173D01*
X61484360Y46272326D01*
X61352674Y46140640D01*
X61197827Y46037175D01*
X61025770Y45965907D01*
X60843116Y45929575D01*
X60656884Y45929575D01*
X60474230Y45965907D01*
X60302173Y46037175D01*
X60147326Y46140640D01*
X60015640Y46272326D01*
X59912175Y46427173D01*
X59840907Y46599230D01*
X59804575Y46781884D01*
X59800000Y46875000D01*
X59800000Y47125000D01*
X59804575Y47218116D01*
X59840907Y47400770D01*
X59912175Y47572827D01*
X60015640Y47727674D01*
X60147326Y47859360D01*
X60302173Y47962825D01*
X60474230Y48034093D01*
X60656884Y48070425D01*
X60843116Y48070425D01*
X61025770Y48034093D01*
G37*
G36*
X68600168Y50458555D02*
G01*
X68824025Y50385819D01*
X69033748Y50278960D01*
X69224172Y50140609D01*
X69390609Y49974172D01*
X69528960Y49783748D01*
X69635819Y49574025D01*
X69708555Y49350168D01*
X69745376Y49117689D01*
X69745376Y48882311D01*
X69708555Y48649832D01*
X69635819Y48425975D01*
X69528960Y48216252D01*
X69390609Y48025828D01*
X69224172Y47859391D01*
X69033748Y47721040D01*
X68824025Y47614181D01*
X68600168Y47541445D01*
X68367689Y47504624D01*
X68132311Y47504624D01*
X67899832Y47541445D01*
X67675975Y47614181D01*
X67466252Y47721040D01*
X67275828Y47859391D01*
X67109391Y48025828D01*
X66971040Y48216252D01*
X66864181Y48425975D01*
X66791445Y48649832D01*
X66754624Y48882311D01*
X66754624Y49117689D01*
X66791445Y49350168D01*
X66864181Y49574025D01*
X66971040Y49783748D01*
X67109391Y49974172D01*
X67275828Y50140609D01*
X67466252Y50278960D01*
X67675975Y50385819D01*
X67899832Y50458555D01*
X68132311Y50495376D01*
X68367689Y50495376D01*
X68600168Y50458555D01*
G37*
M02*
