<svg width="1338" height="263" viewBox="0 0 1338 263" fill="none" xmlns="http://www.w3.org/2000/svg">
<ellipse cx="115.5" cy="132.5" rx="95.5" ry="116.5" fill="#F7F0E0"/>
<path d="M85.8127 248.565C62.5989 234.608 39.5015 220.724 16.4097 206.831C13.3892 205.014 10.3216 203.261 7.41005 201.279C2.52537 197.953 0.0681091 193.11 0.0567805 187.273C-0.0166737 149.427 -0.0215748 111.581 0.0580303 73.7351C0.0712996 67.4274 2.86923 62.3071 8.32948 59.0816C21.8826 51.0753 35.5408 43.2492 49.1362 35.315C65.124 25.9845 81.09 16.6161 97.0657 7.26467C99.6198 5.7696 102.17 4.26746 104.732 2.7855C111.168 -0.938299 117.562 -0.932451 124.026 2.82697C139.973 12.1017 156.023 21.1993 171.912 30.5744C188.018 40.0779 204.251 49.356 220.4 58.7838C226.084 62.1022 228.963 67.2386 228.97 73.8151C229.015 111.788 229 149.76 228.987 187.733C228.985 194.015 226.212 198.862 220.916 202.048C204.353 212.012 187.721 221.859 171.117 231.753C155.488 241.067 139.879 250.415 124.224 259.684C117.667 263.566 110.981 263.564 104.399 259.706C98.208 256.077 92.0843 252.331 85.8127 248.565ZM123.927 224.39C124.94 222.569 125.972 220.758 126.965 218.926C136.296 201.71 145.761 184.561 153.337 166.453C159.874 150.826 165.437 134.867 169.282 118.335C169.49 117.442 169.738 116.524 169.233 115.648C168.246 115.633 167.825 116.341 167.313 116.855C160.084 124.11 153.683 132.071 147.616 140.316C132.033 161.488 118.45 183.823 108.362 208.219C104.863 216.682 101.084 225.03 98.5236 233.858C98.1253 235.231 98.0692 236.268 99.3268 237.342C103.545 240.946 107.782 244.515 112.251 247.804C113.296 248.573 114.025 248.294 114.94 247.663C121.745 242.97 128.168 237.783 134.336 232.287C152.763 215.867 168.977 197.404 183.879 177.735C190.206 169.384 196.316 160.877 201.944 152.029C202.456 151.224 203.208 150.449 202.949 149.321C201.621 149.386 201.597 149.344 199.78 150.408C186.336 158.279 173.429 166.942 161.507 177.022C157.419 180.478 153.216 183.897 150.108 188.313C141.496 200.547 133.036 212.889 124.503 225.179C124.177 225.648 123.988 226.347 123.183 226.339C122.942 225.576 123.574 225.171 123.927 224.39ZM102.818 119.856C102.007 124.897 101.438 129.971 101.075 135.057C100.697 140.349 100.534 145.658 100.357 150.962C100.273 153.485 100.24 156.043 101.652 158.313C105.586 164.637 109.54 170.95 112.757 177.69C113.392 179.022 114.098 179.076 114.865 177.776C118.713 171.252 122.566 164.731 126.42 158.21C127.015 157.204 127.225 156.133 127.219 154.953C127.197 150.025 126.736 145.12 126.508 140.204C126.094 131.253 125.205 122.365 123.846 113.508C121.913 100.903 119.156 88.497 115.508 76.2872C115.297 75.5824 115.253 74.5983 114.348 74.5211C113.317 74.4332 113.369 75.5307 113.139 76.1729C110.664 83.0677 108.816 90.1494 107.102 97.2637C105.331 104.611 103.843 112.019 102.818 119.856ZM63.5703 135.599C64.8713 139.489 66.1228 143.396 67.4817 147.266C75.2178 169.295 85.8201 189.931 97.6582 209.963C98.5508 211.474 99.1738 211.479 99.9955 209.945C100.322 209.336 100.549 208.672 100.808 208.028C103.098 202.343 105.346 196.624 108.436 191.326C109.544 189.425 109.443 187.961 108.557 186.066C101.573 171.141 93.1982 157.054 83.4809 143.783C76.6129 134.404 69.2173 125.462 60.8484 117.377C60.3722 116.917 59.8798 116.193 59.0974 116.626C58.4085 117.007 58.8107 117.773 58.7936 118.371C58.7848 118.677 58.9098 118.987 58.9777 119.294C60.1748 124.72 61.7586 130.036 63.5703 135.599ZM96.1217 219.652C97.373 217.656 97.0876 215.969 95.6839 214.005C93.0463 210.313 90.6446 206.437 88.3365 202.524C82.1421 192.021 74.3609 182.958 64.8597 175.331C52.6399 165.522 39.5242 157.076 26.103 149.076C25.6027 148.778 25.0997 148.293 24.0541 148.734C43.547 178.589 65.2263 206.433 91.7225 230.869C93.2626 226.93 94.6336 223.423 96.1217 219.652ZM172.404 73.3876C173.08 71.6731 173.501 69.8897 173.613 68.0559C174.245 57.6674 164.681 48.9376 154.418 50.7285C144.634 52.436 138.422 62.1569 141.323 71.6757C143.281 78.0984 149.144 83.0598 155.363 83.5557C162.827 84.1509 168.898 80.5939 172.404 73.3876ZM39.7413 93.4374C41.8015 95.9771 42.2724 99.2732 43.6125 102.698C45.0752 99.3532 45.5456 96.2957 47.4855 93.8515C49.5108 91.2997 52.625 90.7414 55.824 89.2556C52.7888 87.6117 49.6107 87.3778 47.51 85.0451C45.3972 82.6991 44.963 79.5742 43.59 76.2439C42.0742 79.5244 41.8225 82.7127 39.6618 85.0606C37.453 87.4608 34.3078 87.854 31.0645 89.2654C34.2753 90.5792 37.4344 90.8636 39.7413 93.4374ZM82.2326 58.6822C83.7654 60.6262 83.8115 63.2587 85.2049 65.6856C87.0884 62.9469 87.2726 59.7944 89.3046 57.5194C91.3263 55.2559 94.361 54.7899 97.1457 52.91C94.0379 51.5126 91.1048 50.9504 89.0673 48.7235C87.0779 46.5492 86.6887 43.5696 85.2301 40.5816C83.6659 43.6133 83.2994 46.6732 81.2612 48.9262C79.1975 51.2072 76.142 51.5478 73.5364 53.1658C76.7181 54.5381 80.07 55.4353 82.2326 58.6822ZM196.029 96.7841C194.146 94.9502 194.295 92.0367 192.478 89.6582C191.312 92.3606 190.886 94.9798 189.075 96.9333C187.253 98.898 184.536 99.0276 182.306 100.455C184.78 101.525 187.407 102.05 189.273 104.049C191.159 106.069 191.223 108.969 192.866 111.433C193.91 105.916 196.452 101.88 202.247 100.977C201.906 99.7871 201.213 99.5479 200.485 99.3052C198.93 98.787 197.412 98.1853 196.029 96.7841ZM122.695 34.7525C121.722 37.0651 119.404 37.7766 117.372 39.0671C120.84 39.8927 122.536 42.3817 124.078 45.3486C125.499 42.3899 127.206 39.952 130.621 39.3672C129.969 38.2872 129.289 38.089 128.673 37.8185C127.126 37.139 125.966 36.1193 125.214 34.5368C124.415 32.8571 123.964 32.8992 122.695 34.7525ZM75.8895 110.13C75.0244 110.992 73.2267 111.47 73.2267 111.47C73.2267 111.47 75.0244 111.948 75.8895 112.81C76.8245 113.741 77.2209 115.757 77.2209 115.757C77.2209 115.757 77.6222 113.746 78.5523 112.81C79.4824 111.874 81.4814 111.47 81.4814 111.47C81.4814 111.47 79.4824 111.066 78.5523 110.13C77.6222 109.194 77.2209 107.183 77.2209 107.183C77.2209 107.183 76.8245 109.199 75.8895 110.13Z" fill="#BF3D2F"/>
<path d="M304.336 181V86.68H324.379L357.391 126.111L390.272 86.68H410.446V181H391.451V114.845L357.391 155.586L323.2 114.976V181H304.336ZM426.131 181V105.544C426.131 102.051 426.961 98.9067 428.62 96.112C430.367 93.23 432.638 90.9593 435.432 89.3C438.314 87.5533 441.502 86.68 444.995 86.68H501.456C504.95 86.68 508.094 87.5533 510.888 89.3C513.77 90.9593 516.085 93.23 517.831 96.112C519.578 98.9067 520.451 102.051 520.451 105.544V181H501.325V149.953H444.995V181H426.131ZM444.995 131.089H501.325V106.461C501.325 106.199 501.238 106.024 501.063 105.937C500.976 105.762 500.801 105.675 500.539 105.675H445.781C445.519 105.675 445.301 105.762 445.126 105.937C445.039 106.024 444.995 106.199 444.995 106.461V131.089ZM609.523 181L581.62 147.726H606.379L629.435 175.105V181H609.523ZM535.377 181V86.811H610.702C614.195 86.811 617.339 87.6843 620.134 89.431C623.016 91.0903 625.33 93.361 627.077 96.243C628.824 99.125 629.697 102.269 629.697 105.675V130.565C629.697 133.971 628.824 137.115 627.077 139.997C625.33 142.792 623.016 145.062 620.134 146.809C617.339 148.468 614.195 149.298 610.702 149.298L554.241 149.429V181H535.377ZM555.027 130.303H609.785C610.047 130.303 610.222 130.259 610.309 130.172C610.484 129.997 610.571 129.823 610.571 129.648V106.461C610.571 106.199 610.484 106.024 610.309 105.937C610.222 105.762 610.047 105.675 609.785 105.675H555.027C554.765 105.675 554.547 105.762 554.372 105.937C554.285 106.024 554.241 106.199 554.241 106.461V129.648C554.241 129.823 554.285 129.997 554.372 130.172C554.547 130.259 554.765 130.303 555.027 130.303ZM661.949 181C658.543 181 655.399 180.17 652.517 178.511C649.635 176.764 647.364 174.494 645.705 171.699C644.045 168.817 643.216 165.629 643.216 162.136V154.145H662.08V161.219C662.08 161.481 662.123 161.699 662.211 161.874C662.385 161.961 662.56 162.005 662.735 162.005H717.624C717.798 162.005 717.973 161.961 718.148 161.874C718.322 161.699 718.41 161.481 718.41 161.219V144.058C718.41 143.883 718.322 143.752 718.148 143.665C717.973 143.49 717.798 143.403 717.624 143.403H661.949C658.543 143.403 655.399 142.573 652.517 140.914C649.635 139.167 647.364 136.853 645.705 133.971C644.045 131.089 643.216 127.945 643.216 124.539V105.544C643.216 102.051 644.045 98.9067 645.705 96.112C647.364 93.23 649.635 90.9593 652.517 89.3C655.399 87.5533 658.543 86.68 661.949 86.68H718.672C722.078 86.68 725.178 87.5533 727.973 89.3C730.855 90.9593 733.169 93.23 734.916 96.112C736.662 98.9067 737.536 102.051 737.536 105.544V113.535H718.41V106.461C718.41 106.199 718.322 106.024 718.148 105.937C717.973 105.762 717.798 105.675 717.624 105.675H662.735C662.56 105.675 662.385 105.762 662.211 105.937C662.123 106.024 662.08 106.199 662.08 106.461V123.622C662.08 123.797 662.123 123.971 662.211 124.146C662.385 124.233 662.56 124.277 662.735 124.277H718.672C722.078 124.277 725.178 125.15 727.973 126.897C730.855 128.556 733.169 130.827 734.916 133.709C736.662 136.591 737.536 139.735 737.536 143.141V162.136C737.536 165.629 736.662 168.817 734.916 171.699C733.169 174.494 730.855 176.764 727.973 178.511C725.178 180.17 722.078 181 718.672 181H661.949ZM867.301 181L839.398 147.726H864.157L887.213 175.105V181H867.301ZM793.155 181V86.811H868.48C871.974 86.811 875.118 87.6843 877.912 89.431C880.794 91.0903 883.109 93.361 884.855 96.243C886.602 99.125 887.475 102.269 887.475 105.675V130.565C887.475 133.971 886.602 137.115 884.855 139.997C883.109 142.792 880.794 145.062 877.912 146.809C875.118 148.468 871.974 149.298 868.48 149.298L812.019 149.429V181H793.155ZM812.805 130.303H867.563C867.825 130.303 868 130.259 868.087 130.172C868.262 129.997 868.349 129.823 868.349 129.648V106.461C868.349 106.199 868.262 106.024 868.087 105.937C868 105.762 867.825 105.675 867.563 105.675H812.805C812.543 105.675 812.325 105.762 812.15 105.937C812.063 106.024 812.019 106.199 812.019 106.461V129.648C812.019 129.823 812.063 129.997 812.15 130.172C812.325 130.259 812.543 130.303 812.805 130.303ZM919.858 181C916.365 181 913.177 180.17 910.295 178.511C907.5 176.764 905.23 174.494 903.483 171.699C901.824 168.817 900.994 165.629 900.994 162.136V105.544C900.994 102.051 901.824 98.9067 903.483 96.112C905.23 93.23 907.5 90.9593 910.295 89.3C913.177 87.5533 916.365 86.68 919.858 86.68H976.45C979.856 86.68 982.956 87.5533 985.751 89.3C988.633 90.9593 990.947 93.23 992.694 96.112C994.441 98.9067 995.314 102.051 995.314 105.544V162.136C995.314 165.629 994.441 168.817 992.694 171.699C990.947 174.494 988.633 176.764 985.751 178.511C982.956 180.17 979.856 181 976.45 181H919.858ZM920.644 162.005H975.402C975.664 162.005 975.839 161.961 975.926 161.874C976.101 161.699 976.188 161.481 976.188 161.219V106.461C976.188 106.199 976.101 106.024 975.926 105.937C975.839 105.762 975.664 105.675 975.402 105.675H920.644C920.382 105.675 920.164 105.762 919.989 105.937C919.902 106.024 919.858 106.199 919.858 106.461V161.219C919.858 161.481 919.902 161.699 919.989 161.874C920.164 161.961 920.382 162.005 920.644 162.005ZM1057.14 181L1002.51 86.68H1024.39L1065.26 157.551L1106.13 86.68H1128.01L1073.38 181H1057.14ZM1136.91 181V86.68H1223.89V105.675H1156.03V124.277H1210.66V143.403H1156.03V162.005H1223.89V181H1136.91ZM1311.09 181L1283.19 147.726H1307.95L1331 175.105V181H1311.09ZM1236.94 181V86.811H1312.27C1315.76 86.811 1318.91 87.6843 1321.7 89.431C1324.58 91.0903 1326.9 93.361 1328.64 96.243C1330.39 99.125 1331.26 102.269 1331.26 105.675V130.565C1331.26 133.971 1330.39 137.115 1328.64 139.997C1326.9 142.792 1324.58 145.062 1321.7 146.809C1318.91 148.468 1315.76 149.298 1312.27 149.298L1255.81 149.429V181H1236.94ZM1256.59 130.303H1311.35C1311.61 130.303 1311.79 130.259 1311.88 130.172C1312.05 129.997 1312.14 129.823 1312.14 129.648V106.461C1312.14 106.199 1312.05 106.024 1311.88 105.937C1311.79 105.762 1311.61 105.675 1311.35 105.675H1256.59C1256.33 105.675 1256.11 105.762 1255.94 105.937C1255.85 106.024 1255.81 106.199 1255.81 106.461V129.648C1255.81 129.823 1255.85 129.997 1255.94 130.172C1256.11 130.259 1256.33 130.303 1256.59 130.303Z" fill="#BF3D2F"/>
</svg>
